G04*
G04 #@! TF.GenerationSoftware,Altium Limited,Altium Designer,19.0.10 (269)*
G04*
G04 Layer_Color=2752767*
%FSLAX25Y25*%
%MOIN*%
G70*
G01*
G75*
%ADD129C,0.00200*%
%ADD130C,0.00267*%
D129*
X383700Y213075D02*
Y214675D01*
X385300D01*
Y213075D01*
X383700D01*
X373700D02*
Y214675D01*
X375300D01*
Y213075D01*
X373700D01*
X383700Y223075D02*
Y224675D01*
X385300D01*
Y223075D01*
X383700D01*
X373700D02*
Y224675D01*
X375300D01*
Y223075D01*
X373700D01*
X383700Y233075D02*
Y234675D01*
X385300D01*
Y233075D01*
X383700D01*
X373700D02*
Y234675D01*
X375300D01*
Y233075D01*
X373700D01*
X190200Y183450D02*
Y185050D01*
X191800D01*
Y183450D01*
X190200D01*
X200200D02*
Y185050D01*
X201800D01*
Y183450D01*
X200200D01*
X190200Y193450D02*
Y195050D01*
X191800D01*
Y193450D01*
X190200D01*
X200200D02*
Y195050D01*
X201800D01*
Y193450D01*
X200200D01*
X383700Y275200D02*
Y276800D01*
X385300D01*
Y275200D01*
X383700D01*
Y285200D02*
Y286800D01*
X385300D01*
Y285200D01*
X383700D01*
Y295200D02*
Y296800D01*
X385300D01*
Y295200D01*
X383700D01*
Y305200D02*
Y306800D01*
X385300D01*
Y305200D01*
X383700D01*
X186450Y266297D02*
Y267897D01*
X188050D01*
Y266297D01*
X186450D01*
Y275353D02*
Y276953D01*
X188050D01*
Y275353D01*
X186450D01*
X373700Y142950D02*
Y144550D01*
X375300D01*
Y142950D01*
X373700D01*
Y152950D02*
Y154550D01*
X375300D01*
Y152950D01*
X373700D01*
X383700Y142950D02*
Y144550D01*
X385300D01*
Y142950D01*
X383700D01*
Y152950D02*
Y154550D01*
X385300D01*
Y152950D01*
X383700D01*
X200200Y143450D02*
Y145050D01*
X201800D01*
Y143450D01*
X200200D01*
X190200D02*
Y145050D01*
X191800D01*
Y143450D01*
X190200D01*
X200200Y153450D02*
Y155050D01*
X201800D01*
Y153450D01*
X200200D01*
X190200D02*
Y155050D01*
X191800D01*
Y153450D01*
X190200D01*
Y213450D02*
Y215050D01*
X191800D01*
Y213450D01*
X190200D01*
Y223450D02*
Y225050D01*
X191800D01*
Y223450D01*
X190200D01*
X200200Y213450D02*
Y215050D01*
X201800D01*
Y213450D01*
X200200D01*
Y223450D02*
Y225050D01*
X201800D01*
Y223450D01*
X200200D01*
Y163325D02*
Y164925D01*
X201800D01*
Y163325D01*
X200200D01*
X190200D02*
Y164925D01*
X191800D01*
Y163325D01*
X190200D01*
X200200Y173325D02*
Y174925D01*
X201800D01*
Y173325D01*
X200200D01*
X190200D02*
Y174925D01*
X191800D01*
Y173325D01*
X190200D01*
X317620Y124325D02*
X316820Y125925D01*
X318420D01*
X317620Y124325D01*
X353053D02*
X352253Y125925D01*
X353853D01*
X353053Y124325D01*
Y140664D02*
X353453Y141064D01*
X353853D01*
X353453Y141464D01*
X353853Y141864D01*
X353453D01*
X353053Y142264D01*
X352653Y141864D01*
X352253D01*
X352653Y141464D01*
X352253Y141064D01*
X352653D01*
X353053Y140664D01*
X317620D02*
X318020Y141064D01*
X318420D01*
X318020Y141464D01*
X318420Y141864D01*
X318020D01*
X317620Y142264D01*
X317220Y141864D01*
X316820D01*
X317220Y141464D01*
X316820Y141064D01*
X317220D01*
X317620Y140664D01*
X213033Y124081D02*
X212233Y125681D01*
X213833D01*
X213033Y124081D01*
X248467D02*
X247667Y125681D01*
X249267D01*
X248467Y124081D01*
Y140419D02*
X248867Y140819D01*
X249267D01*
X248867Y141219D01*
X249267Y141619D01*
X248867D01*
X248467Y142019D01*
X248067Y141619D01*
X247667D01*
X248067Y141219D01*
X247667Y140819D01*
X248067D01*
X248467Y140419D01*
X213033D02*
X213433Y140819D01*
X213833D01*
X213433Y141219D01*
X213833Y141619D01*
X213433D01*
X213033Y142019D01*
X212633Y141619D01*
X212233D01*
X212633Y141219D01*
X212233Y140819D01*
X212633D01*
X213033Y140419D01*
X383026Y374608D02*
X382226Y376208D01*
X383826D01*
X383026Y374608D01*
Y410042D02*
X382226Y411642D01*
X383826D01*
X383026Y410042D01*
X366687D02*
X367087Y410442D01*
X367487D01*
X367087Y410842D01*
X367487Y411242D01*
X367087D01*
X366687Y411642D01*
X366287Y411242D01*
X365887D01*
X366287Y410842D01*
X365887Y410442D01*
X366287D01*
X366687Y410042D01*
Y374608D02*
X367087Y375008D01*
X367487D01*
X367087Y375408D01*
X367487Y375808D01*
X367087D01*
X366687Y376208D01*
X366287Y375808D01*
X365887D01*
X366287Y375408D01*
X365887Y375008D01*
X366287D01*
X366687Y374608D01*
X233912Y200822D02*
X234312Y201622D01*
X233912Y202422D01*
X234712Y202022D01*
X235512Y202422D01*
X235112Y201622D01*
X235512Y200822D01*
X234712Y201222D01*
X233912Y200822D01*
X244141Y200825D02*
X244541Y201625D01*
X244141Y202425D01*
X244941Y202025D01*
X245741Y202425D01*
X245341Y201625D01*
X245741Y200825D01*
X244941Y201225D01*
X244141Y200825D01*
X220589Y185027D02*
X220989Y185827D01*
X220589Y186627D01*
X221389Y186227D01*
X222189Y186627D01*
X221789Y185827D01*
X222189Y185027D01*
X221389Y185427D01*
X220589Y185027D01*
Y188176D02*
X220989Y188976D01*
X220589Y189776D01*
X221389Y189376D01*
X222189Y189776D01*
X221789Y188976D01*
X222189Y188176D01*
X221389Y188576D01*
X220589Y188176D01*
Y191326D02*
X220989Y192126D01*
X220589Y192926D01*
X221389Y192526D01*
X222189Y192926D01*
X221789Y192126D01*
X222189Y191326D01*
X221389Y191726D01*
X220589Y191326D01*
X279570Y211330D02*
X279970Y212130D01*
X279570Y212930D01*
X280370Y212530D01*
X281170Y212930D01*
X280770Y212130D01*
X281170Y211330D01*
X280370Y211730D01*
X279570Y211330D01*
X279515Y227783D02*
X279915Y228583D01*
X279515Y229383D01*
X280315Y228983D01*
X281115Y229383D01*
X280715Y228583D01*
X281115Y227783D01*
X280315Y228183D01*
X279515Y227783D01*
X238220Y227074D02*
X238620Y227874D01*
X238220Y228674D01*
X239020Y228274D01*
X239820Y228674D01*
X239420Y227874D01*
X239820Y227074D01*
X239020Y227474D01*
X238220Y227074D01*
X264350Y201877D02*
X264750Y202677D01*
X264350Y203477D01*
X265150Y203077D01*
X265950Y203477D01*
X265550Y202677D01*
X265950Y201877D01*
X265150Y202277D01*
X264350Y201877D01*
Y206011D02*
X264750Y206811D01*
X264350Y207611D01*
X265150Y207211D01*
X265950Y207611D01*
X265550Y206811D01*
X265950Y206011D01*
X265150Y206411D01*
X264350Y206011D01*
Y211129D02*
X264750Y211929D01*
X264350Y212729D01*
X265150Y212329D01*
X265950Y212729D01*
X265550Y211929D01*
X265950Y211129D01*
X265150Y211529D01*
X264350Y211129D01*
X375959Y243216D02*
X376360Y244016D01*
X375959Y244816D01*
X376760Y244416D01*
X377559Y244816D01*
X377160Y244016D01*
X377559Y243216D01*
X376760Y243616D01*
X375959Y243216D01*
X381247Y240224D02*
X381647Y241024D01*
X381247Y241824D01*
X382047Y241424D01*
X382847Y241824D01*
X382447Y241024D01*
X382847Y240224D01*
X382047Y240624D01*
X381247Y240224D01*
X379950Y249200D02*
X380350Y250000D01*
X379950Y250800D01*
X380750Y250400D01*
X381550Y250800D01*
X381150Y250000D01*
X381550Y249200D01*
X380750Y249600D01*
X379950Y249200D01*
X386141Y228255D02*
X386541Y229055D01*
X386141Y229855D01*
X386941Y229455D01*
X387741Y229855D01*
X387341Y229055D01*
X387741Y228255D01*
X386941Y228655D01*
X386141Y228255D01*
X373415Y240066D02*
X373815Y240866D01*
X373415Y241666D01*
X374215Y241266D01*
X375015Y241666D01*
X374615Y240866D01*
X375015Y240066D01*
X374215Y240466D01*
X373415Y240066D01*
X370069D02*
X370468Y240866D01*
X370069Y241666D01*
X370868Y241266D01*
X371669Y241666D01*
X371269Y240866D01*
X371669Y240066D01*
X370868Y240466D01*
X370069Y240066D01*
X366722D02*
X367122Y240866D01*
X366722Y241666D01*
X367522Y241266D01*
X368322Y241666D01*
X367922Y240866D01*
X368322Y240066D01*
X367522Y240466D01*
X366722Y240066D01*
Y236838D02*
X367122Y237638D01*
X366722Y238438D01*
X367522Y238038D01*
X368322Y238438D01*
X367922Y237638D01*
X368322Y236838D01*
X367522Y237238D01*
X366722Y236838D01*
Y233610D02*
X367122Y234409D01*
X366722Y235209D01*
X367522Y234809D01*
X368322Y235209D01*
X367922Y234409D01*
X368322Y233610D01*
X367522Y234010D01*
X366722Y233610D01*
X383818Y228255D02*
X384218Y229055D01*
X383818Y229855D01*
X384618Y229455D01*
X385418Y229855D01*
X385018Y229055D01*
X385418Y228255D01*
X384618Y228655D01*
X383818Y228255D01*
X368334Y210702D02*
X368734Y211502D01*
X368334Y212302D01*
X369134Y211902D01*
X369934Y212302D01*
X369534Y211502D01*
X369934Y210702D01*
X369134Y211102D01*
X368334Y210702D01*
X347940Y205858D02*
X348340Y206658D01*
X347940Y207458D01*
X348740Y207058D01*
X349540Y207458D01*
X349140Y206658D01*
X349540Y205858D01*
X348740Y206258D01*
X347940Y205858D01*
X345027D02*
X345427Y206658D01*
X345027Y207458D01*
X345827Y207058D01*
X346627Y207458D01*
X346227Y206658D01*
X346627Y205858D01*
X345827Y206258D01*
X345027Y205858D01*
X367074Y183685D02*
X367474Y184485D01*
X367074Y185285D01*
X367874Y184885D01*
X368674Y185285D01*
X368274Y184485D01*
X368674Y183685D01*
X367874Y184085D01*
X367074Y183685D01*
Y186680D02*
X367474Y187480D01*
X367074Y188280D01*
X367874Y187880D01*
X368674Y188280D01*
X368274Y187480D01*
X368674Y186680D01*
X367874Y187080D01*
X367074Y186680D01*
Y189830D02*
X367474Y190630D01*
X367074Y191430D01*
X367874Y191030D01*
X368674Y191430D01*
X368274Y190630D01*
X368674Y189830D01*
X367874Y190230D01*
X367074Y189830D01*
X344082Y170145D02*
X344482Y170945D01*
X344082Y171745D01*
X344882Y171345D01*
X345682Y171745D01*
X345282Y170945D01*
X345682Y170145D01*
X344882Y170545D01*
X344082Y170145D01*
X360410Y159594D02*
X360810Y160394D01*
X360410Y161194D01*
X361210Y160794D01*
X362010Y161194D01*
X361610Y160394D01*
X362010Y159594D01*
X361210Y159994D01*
X360410Y159594D01*
X381544Y168157D02*
X381944Y168957D01*
X381544Y169757D01*
X382345Y169357D01*
X383144Y169757D01*
X382745Y168957D01*
X383144Y168157D01*
X382345Y168557D01*
X381544Y168157D01*
X378387D02*
X378787Y168957D01*
X378387Y169757D01*
X379187Y169357D01*
X379987Y169757D01*
X379587Y168957D01*
X379987Y168157D01*
X379187Y168557D01*
X378387Y168157D01*
X332490Y169450D02*
X332890Y170250D01*
X332490Y171050D01*
X333290Y170650D01*
X334090Y171050D01*
X333690Y170250D01*
X334090Y169450D01*
X333290Y169850D01*
X332490Y169450D01*
X337609Y174663D02*
X338009Y175463D01*
X337609Y176263D01*
X338409Y175863D01*
X339209Y176263D01*
X338809Y175463D01*
X339209Y174663D01*
X338409Y175063D01*
X337609Y174663D01*
X332586Y185965D02*
X332986Y186765D01*
X332586Y187565D01*
X333386Y187165D01*
X334186Y187565D01*
X333786Y186765D01*
X334186Y185965D01*
X333386Y186365D01*
X332586Y185965D01*
X338019Y219422D02*
X338419Y220222D01*
X338019Y221022D01*
X338819Y220622D01*
X339619Y221022D01*
X339219Y220222D01*
X339619Y219422D01*
X338819Y219822D01*
X338019Y219422D01*
X334689D02*
X335089Y220222D01*
X334689Y221022D01*
X335489Y220622D01*
X336289Y221022D01*
X335889Y220222D01*
X336289Y219422D01*
X335489Y219822D01*
X334689Y219422D01*
X331359D02*
X331759Y220222D01*
X331359Y221022D01*
X332159Y220622D01*
X332959Y221022D01*
X332559Y220222D01*
X332959Y219422D01*
X332159Y219822D01*
X331359Y219422D01*
X329594Y210702D02*
X329994Y211502D01*
X329594Y212302D01*
X330394Y211902D01*
X331194Y212302D01*
X330794Y211502D01*
X331194Y210702D01*
X330394Y211102D01*
X329594Y210702D01*
Y214161D02*
X329994Y214961D01*
X329594Y215761D01*
X330394Y215361D01*
X331194Y215761D01*
X330794Y214961D01*
X331194Y214161D01*
X330394Y214561D01*
X329594Y214161D01*
Y217245D02*
X329994Y218045D01*
X329594Y218845D01*
X330394Y218445D01*
X331194Y218845D01*
X330794Y218045D01*
X331194Y217245D01*
X330394Y217645D01*
X329594Y217245D01*
X287254Y187468D02*
X287654Y188268D01*
X287254Y189068D01*
X288054Y188668D01*
X288854Y189068D01*
X288454Y188268D01*
X288854Y187468D01*
X288054Y187868D01*
X287254Y187468D01*
X281877D02*
X282277Y188268D01*
X281877Y189068D01*
X282677Y188668D01*
X283477Y189068D01*
X283077Y188268D01*
X283477Y187468D01*
X282677Y187868D01*
X281877Y187468D01*
X278780D02*
X279180Y188268D01*
X278780Y189068D01*
X279580Y188668D01*
X280380Y189068D01*
X279980Y188268D01*
X280380Y187468D01*
X279580Y187868D01*
X278780Y187468D01*
X275683D02*
X276083Y188268D01*
X275683Y189068D01*
X276483Y188668D01*
X277283Y189068D01*
X276883Y188268D01*
X277283Y187468D01*
X276483Y187868D01*
X275683Y187468D01*
X272586D02*
X272986Y188268D01*
X272586Y189068D01*
X273386Y188668D01*
X274186Y189068D01*
X273786Y188268D01*
X274186Y187468D01*
X273386Y187868D01*
X272586Y187468D01*
X245814Y177567D02*
X246214Y178367D01*
X245814Y179167D01*
X246614Y178767D01*
X247414Y179167D01*
X247014Y178367D01*
X247414Y177567D01*
X246614Y177967D01*
X245814Y177567D01*
X249594Y180924D02*
X249994Y181724D01*
X249594Y182524D01*
X250394Y182124D01*
X251194Y182524D01*
X250794Y181724D01*
X251194Y180924D01*
X250394Y181324D01*
X249594Y180924D01*
Y174210D02*
X249994Y175010D01*
X249594Y175810D01*
X250394Y175410D01*
X251194Y175810D01*
X250794Y175010D01*
X251194Y174210D01*
X250394Y174610D01*
X249594Y174210D01*
X245814D02*
X246214Y175010D01*
X245814Y175810D01*
X246614Y175410D01*
X247414Y175810D01*
X247014Y175010D01*
X247414Y174210D01*
X246614Y174610D01*
X245814Y174210D01*
Y180924D02*
X246214Y181724D01*
X245814Y182524D01*
X246614Y182124D01*
X247414Y182524D01*
X247014Y181724D01*
X247414Y180924D01*
X246614Y181324D01*
X245814Y180924D01*
X249594Y170853D02*
X249994Y171653D01*
X249594Y172453D01*
X250394Y172054D01*
X251194Y172453D01*
X250794Y171653D01*
X251194Y170853D01*
X250394Y171254D01*
X249594Y170853D01*
X245814D02*
X246214Y171653D01*
X245814Y172453D01*
X246614Y172054D01*
X247414Y172453D01*
X247014Y171653D01*
X247414Y170853D01*
X246614Y171254D01*
X245814Y170853D01*
X241956D02*
X242356Y171653D01*
X241956Y172453D01*
X242756Y172054D01*
X243556Y172453D01*
X243156Y171653D01*
X243556Y170853D01*
X242756Y171254D01*
X241956Y170853D01*
Y174210D02*
X242356Y175010D01*
X241956Y175810D01*
X242756Y175410D01*
X243556Y175810D01*
X243156Y175010D01*
X243556Y174210D01*
X242756Y174610D01*
X241956Y174210D01*
Y177567D02*
X242356Y178367D01*
X241956Y179167D01*
X242756Y178767D01*
X243556Y179167D01*
X243156Y178367D01*
X243556Y177567D01*
X242756Y177967D01*
X241956Y177567D01*
Y180924D02*
X242356Y181724D01*
X241956Y182524D01*
X242756Y182124D01*
X243556Y182524D01*
X243156Y181724D01*
X243556Y180924D01*
X242756Y181324D01*
X241956Y180924D01*
X249594Y184281D02*
X249994Y185081D01*
X249594Y185881D01*
X250394Y185481D01*
X251194Y185881D01*
X250794Y185081D01*
X251194Y184281D01*
X250394Y184681D01*
X249594Y184281D01*
X245814D02*
X246214Y185081D01*
X245814Y185881D01*
X246614Y185481D01*
X247414Y185881D01*
X247014Y185081D01*
X247414Y184281D01*
X246614Y184681D01*
X245814Y184281D01*
X241956D02*
X242356Y185081D01*
X241956Y185881D01*
X242756Y185481D01*
X243556Y185881D01*
X243156Y185081D01*
X243556Y184281D01*
X242756Y184681D01*
X241956Y184281D01*
X259239Y144397D02*
X259639Y145197D01*
X259239Y145997D01*
X260039Y145597D01*
X260839Y145997D01*
X260439Y145197D01*
X260839Y144397D01*
X260039Y144797D01*
X259239Y144397D01*
X255840D02*
X256240Y145197D01*
X255840Y145997D01*
X256640Y145597D01*
X257440Y145997D01*
X257040Y145197D01*
X257440Y144397D01*
X256640Y144797D01*
X255840Y144397D01*
X255893Y147704D02*
X256293Y148504D01*
X255893Y149304D01*
X256693Y148904D01*
X257493Y149304D01*
X257093Y148504D01*
X257493Y147704D01*
X256693Y148104D01*
X255893Y147704D01*
X259239D02*
X259639Y148504D01*
X259239Y149304D01*
X260039Y148904D01*
X260839Y149304D01*
X260439Y148504D01*
X260839Y147704D01*
X260039Y148104D01*
X259239Y147704D01*
X244764D02*
X245164Y148504D01*
X244764Y149304D01*
X245564Y148904D01*
X246364Y149304D01*
X245964Y148504D01*
X246364Y147704D01*
X245564Y148104D01*
X244764Y147704D01*
Y150966D02*
X245164Y151766D01*
X244764Y152566D01*
X245564Y152166D01*
X246364Y152566D01*
X245964Y151766D01*
X246364Y150966D01*
X245564Y151366D01*
X244764Y150966D01*
X241168D02*
X241568Y151766D01*
X241168Y152566D01*
X241968Y152166D01*
X242769Y152566D01*
X242369Y151766D01*
X242769Y150966D01*
X241968Y151366D01*
X241168Y150966D01*
X212310Y146444D02*
X212710Y147244D01*
X212310Y148044D01*
X213110Y147644D01*
X213910Y148044D01*
X213510Y147244D01*
X213910Y146444D01*
X213110Y146844D01*
X212310Y146444D01*
X209121Y146433D02*
X209521Y147233D01*
X209121Y148033D01*
X209921Y147633D01*
X210721Y148033D01*
X210321Y147233D01*
X210721Y146433D01*
X209921Y146833D01*
X209121Y146433D01*
X215499Y149751D02*
X215899Y150551D01*
X215499Y151351D01*
X216299Y150951D01*
X217099Y151351D01*
X216699Y150551D01*
X217099Y149751D01*
X216299Y150151D01*
X215499Y149751D01*
X212310D02*
X212710Y150551D01*
X212310Y151351D01*
X213110Y150951D01*
X213910Y151351D01*
X213510Y150551D01*
X213910Y149751D01*
X213110Y150151D01*
X212310Y149751D01*
X209121D02*
X209521Y150551D01*
X209121Y151351D01*
X209921Y150951D01*
X210721Y151351D01*
X210321Y150551D01*
X210721Y149751D01*
X209921Y150151D01*
X209121Y149751D01*
X210357Y207400D02*
X210757Y208200D01*
X210357Y209000D01*
X211157Y208600D01*
X211957Y209000D01*
X211557Y208200D01*
X211957Y207400D01*
X211157Y207800D01*
X210357Y207400D01*
X210421Y203688D02*
X210821Y204488D01*
X210421Y205288D01*
X211221Y204888D01*
X212021Y205288D01*
X211621Y204488D01*
X212021Y203688D01*
X211221Y204088D01*
X210421Y203688D01*
X211274Y162200D02*
X211674Y163000D01*
X211274Y163800D01*
X212074Y163400D01*
X212874Y163800D01*
X212474Y163000D01*
X212874Y162200D01*
X212074Y162600D01*
X211274Y162200D01*
X215184Y157153D02*
X215584Y157953D01*
X215184Y158753D01*
X215984Y158353D01*
X216784Y158753D01*
X216384Y157953D01*
X216784Y157153D01*
X215984Y157553D01*
X215184Y157153D01*
X217389Y203688D02*
X217789Y204488D01*
X217389Y205288D01*
X218189Y204888D01*
X218989Y205288D01*
X218589Y204488D01*
X218989Y203688D01*
X218189Y204088D01*
X217389Y203688D01*
X213909D02*
X214309Y204488D01*
X213909Y205288D01*
X214709Y204888D01*
X215509Y205288D01*
X215109Y204488D01*
X215509Y203688D01*
X214709Y204088D01*
X213909Y203688D01*
X213846Y207400D02*
X214246Y208200D01*
X213846Y209000D01*
X214646Y208600D01*
X215446Y209000D01*
X215046Y208200D01*
X215446Y207400D01*
X214646Y207800D01*
X213846Y207400D01*
X213832Y210932D02*
X214232Y211732D01*
X213832Y212532D01*
X214632Y212132D01*
X215432Y212532D01*
X215032Y211732D01*
X215432Y210932D01*
X214632Y211332D01*
X213832Y210932D01*
X207861Y220460D02*
X208261Y221260D01*
X207861Y222060D01*
X208661Y221660D01*
X209461Y222060D01*
X209061Y221260D01*
X209461Y220460D01*
X208661Y220860D01*
X207861Y220460D01*
X221562Y224476D02*
X221962Y225276D01*
X221562Y226076D01*
X222362Y225676D01*
X223162Y226076D01*
X222762Y225276D01*
X223162Y224476D01*
X222362Y224876D01*
X221562Y224476D01*
X224318Y199830D02*
X224718Y200630D01*
X224318Y201430D01*
X225118Y201030D01*
X225918Y201430D01*
X225518Y200630D01*
X225918Y199830D01*
X225118Y200230D01*
X224318Y199830D01*
X352350Y152192D02*
X352750Y152992D01*
X352350Y153792D01*
X353150Y153392D01*
X353950Y153792D01*
X353550Y152992D01*
X353950Y152192D01*
X353150Y152592D01*
X352350Y152192D01*
X356441Y149279D02*
X356841Y150079D01*
X356441Y150879D01*
X357241Y150479D01*
X358041Y150879D01*
X357641Y150079D01*
X358041Y149279D01*
X357241Y149679D01*
X356441Y149279D01*
Y154899D02*
X356841Y155699D01*
X356441Y156499D01*
X357241Y156099D01*
X358041Y156499D01*
X357641Y155699D01*
X358041Y154899D01*
X357241Y155299D01*
X356441Y154899D01*
X237940Y194869D02*
X238340Y195669D01*
X237940Y196469D01*
X238740Y196069D01*
X239540Y196469D01*
X239140Y195669D01*
X239540Y194869D01*
X238740Y195269D01*
X237940Y194869D01*
X260381Y161724D02*
X260781Y162524D01*
X260381Y163324D01*
X261181Y162924D01*
X261981Y163324D01*
X261581Y162524D01*
X261981Y161724D01*
X261181Y162124D01*
X260381Y161724D01*
X356441Y134712D02*
X356841Y135512D01*
X356441Y136312D01*
X357241Y135912D01*
X358041Y136312D01*
X357641Y135512D01*
X358041Y134712D01*
X357241Y135112D01*
X356441Y134712D01*
X311956Y181641D02*
X312356Y182441D01*
X311956Y183241D01*
X312756Y182841D01*
X313556Y183241D01*
X313156Y182441D01*
X313556Y181641D01*
X312756Y182041D01*
X311956Y181641D01*
X259891Y192271D02*
X260291Y193071D01*
X259891Y193871D01*
X260691Y193471D01*
X261491Y193871D01*
X261091Y193071D01*
X261491Y192271D01*
X260691Y192671D01*
X259891Y192271D01*
X284661Y211405D02*
X285061Y212205D01*
X284661Y213005D01*
X285461Y212605D01*
X286261Y213005D01*
X285861Y212205D01*
X286261Y211405D01*
X285461Y211805D01*
X284661Y211405D01*
X255105Y216523D02*
X255505Y217323D01*
X255105Y218123D01*
X255906Y217723D01*
X256705Y218123D01*
X256306Y217323D01*
X256705Y216523D01*
X255906Y216923D01*
X255105Y216523D01*
X263610D02*
X264009Y217323D01*
X263610Y218123D01*
X264409Y217723D01*
X265210Y218123D01*
X264809Y217323D01*
X265210Y216523D01*
X264409Y216923D01*
X263610Y216523D01*
X259358D02*
X259757Y217323D01*
X259358Y218123D01*
X260157Y217723D01*
X260958Y218123D01*
X260558Y217323D01*
X260958Y216523D01*
X260157Y216923D01*
X259358Y216523D01*
X250853D02*
X251254Y217323D01*
X250853Y218123D01*
X251654Y217723D01*
X252453Y218123D01*
X252053Y217323D01*
X252453Y216523D01*
X251654Y216923D01*
X250853Y216523D01*
X246602D02*
X247002Y217323D01*
X246602Y218123D01*
X247402Y217723D01*
X248202Y218123D01*
X247802Y217323D01*
X248202Y216523D01*
X247402Y216923D01*
X246602Y216523D01*
X263610Y220617D02*
X264009Y221417D01*
X263610Y222217D01*
X264409Y221817D01*
X265210Y222217D01*
X264809Y221417D01*
X265210Y220617D01*
X264409Y221017D01*
X263610Y220617D01*
X259358D02*
X259757Y221417D01*
X259358Y222217D01*
X260157Y221817D01*
X260958Y222217D01*
X260558Y221417D01*
X260958Y220617D01*
X260157Y221017D01*
X259358Y220617D01*
X255105D02*
X255505Y221417D01*
X255105Y222217D01*
X255906Y221817D01*
X256705Y222217D01*
X256306Y221417D01*
X256705Y220617D01*
X255906Y221017D01*
X255105Y220617D01*
X250853D02*
X251254Y221417D01*
X250853Y222217D01*
X251654Y221817D01*
X252453Y222217D01*
X252053Y221417D01*
X252453Y220617D01*
X251654Y221017D01*
X250853Y220617D01*
X246602D02*
X247002Y221417D01*
X246602Y222217D01*
X247402Y221817D01*
X248202Y222217D01*
X247802Y221417D01*
X248202Y220617D01*
X247402Y221017D01*
X246602Y220617D01*
X227478Y174948D02*
X227878Y175748D01*
X227478Y176548D01*
X228278Y176148D01*
X229078Y176548D01*
X228678Y175748D01*
X229078Y174948D01*
X228278Y175348D01*
X227478Y174948D01*
X247389Y194948D02*
X247789Y195748D01*
X247389Y196548D01*
X248189Y196148D01*
X248989Y196548D01*
X248589Y195748D01*
X248989Y194948D01*
X248189Y195348D01*
X247389Y194948D01*
X254476Y193846D02*
X254876Y194646D01*
X254476Y195446D01*
X255276Y195046D01*
X256076Y195446D01*
X255676Y194646D01*
X256076Y193846D01*
X255276Y194246D01*
X254476Y193846D01*
X262822Y191326D02*
X263222Y192126D01*
X262822Y192926D01*
X263622Y192526D01*
X264422Y192926D01*
X264022Y192126D01*
X264422Y191326D01*
X263622Y191726D01*
X262822Y191326D01*
X261090Y165027D02*
X261490Y165827D01*
X261090Y166627D01*
X261890Y166227D01*
X262690Y166627D01*
X262290Y165827D01*
X262690Y165027D01*
X261890Y165427D01*
X261090Y165027D01*
X280102Y199121D02*
X280502Y199921D01*
X280102Y200721D01*
X280902Y200321D01*
X281702Y200721D01*
X281302Y199921D01*
X281702Y199121D01*
X280902Y199521D01*
X280102Y199121D01*
X254478Y162350D02*
X254877Y163150D01*
X254478Y163950D01*
X255277Y163550D01*
X256078Y163950D01*
X255678Y163150D01*
X256078Y162350D01*
X255277Y162750D01*
X254478Y162350D01*
X223216Y163510D02*
X223616Y164310D01*
X223216Y165110D01*
X224016Y164709D01*
X224816Y165110D01*
X224416Y164310D01*
X224816Y163510D01*
X224016Y163909D01*
X223216Y163510D01*
X228570Y164397D02*
X228970Y165197D01*
X228570Y165997D01*
X229370Y165597D01*
X230170Y165997D01*
X229770Y165197D01*
X230170Y164397D01*
X229370Y164797D01*
X228570Y164397D01*
X235027Y154239D02*
X235427Y155039D01*
X235027Y155839D01*
X235827Y155439D01*
X236627Y155839D01*
X236227Y155039D01*
X236627Y154239D01*
X235827Y154639D01*
X235027Y154239D01*
X223216Y178255D02*
X223616Y179055D01*
X223216Y179855D01*
X224016Y179455D01*
X224816Y179855D01*
X224416Y179055D01*
X224816Y178255D01*
X224016Y178655D01*
X223216Y178255D01*
X269357Y135512D02*
X269758Y136312D01*
X269357Y137112D01*
X270158Y136713D01*
X270957Y137112D01*
X270557Y136312D01*
X270957Y135512D01*
X270158Y135913D01*
X269357Y135512D01*
X212153Y157153D02*
X212553Y157953D01*
X212153Y158753D01*
X212953Y158353D01*
X213753Y158753D01*
X213353Y157953D01*
X213753Y157153D01*
X212953Y157553D01*
X212153Y157153D01*
X364831Y155931D02*
X365231Y156731D01*
X364831Y157531D01*
X365631Y157131D01*
X366431Y157531D01*
X366031Y156731D01*
X366431Y155931D01*
X365631Y156331D01*
X364831Y155931D01*
X365263Y141450D02*
X365663Y142250D01*
X365263Y143050D01*
X366063Y142650D01*
X366863Y143050D01*
X366463Y142250D01*
X366863Y141450D01*
X366063Y141850D01*
X365263Y141450D01*
X230617Y178570D02*
X231017Y179370D01*
X230617Y180170D01*
X231417Y179770D01*
X232217Y180170D01*
X231817Y179370D01*
X232217Y178570D01*
X231417Y178970D01*
X230617Y178570D01*
X227783Y180381D02*
X228183Y181181D01*
X227783Y181981D01*
X228583Y181581D01*
X229383Y181981D01*
X228983Y181181D01*
X229383Y180381D01*
X228583Y180781D01*
X227783Y180381D01*
X229278Y138806D02*
X229678Y139606D01*
X229278Y140406D01*
X230078Y140006D01*
X230878Y140406D01*
X230478Y139606D01*
X230878Y138806D01*
X230078Y139206D01*
X229278Y138806D01*
X233294D02*
X233694Y139606D01*
X233294Y140406D01*
X234094Y140006D01*
X234894Y140406D01*
X234494Y139606D01*
X234894Y138806D01*
X234094Y139206D01*
X233294Y138806D01*
X209121Y157153D02*
X209521Y157953D01*
X209121Y158753D01*
X209921Y158353D01*
X210721Y158753D01*
X210321Y157953D01*
X210721Y157153D01*
X209921Y157553D01*
X209121Y157153D01*
X225578Y184926D02*
X225978Y185726D01*
X225578Y186526D01*
X226378Y186126D01*
X227178Y186526D01*
X226778Y185726D01*
X227178Y184926D01*
X226378Y185326D01*
X225578Y184926D01*
X269325Y118964D02*
X269725Y119764D01*
X269325Y120564D01*
X270125Y120164D01*
X270925Y120564D01*
X270525Y119764D01*
X270925Y118964D01*
X270125Y119364D01*
X269325Y118964D01*
X275259Y147385D02*
X275659Y148185D01*
X275259Y148985D01*
X276059Y148585D01*
X276859Y148985D01*
X276459Y148185D01*
X276859Y147385D01*
X276059Y147785D01*
X275259Y147385D01*
X285868Y118964D02*
X286268Y119764D01*
X285868Y120564D01*
X286668Y120164D01*
X287468Y120564D01*
X287068Y119764D01*
X287468Y118964D01*
X286668Y119364D01*
X285868Y118964D01*
X370539Y344633D02*
X370939Y345433D01*
X370539Y346233D01*
X371339Y345833D01*
X372139Y346233D01*
X371739Y345433D01*
X372139Y344633D01*
X371339Y345033D01*
X370539Y344633D01*
X388649Y332543D02*
X389049Y333344D01*
X388649Y334143D01*
X389449Y333744D01*
X390249Y334143D01*
X389849Y333344D01*
X390249Y332543D01*
X389449Y332944D01*
X388649Y332543D01*
X375033Y387947D02*
Y387546D01*
X375833D01*
Y387947D01*
X376233D01*
Y388747D01*
X375833D01*
Y389146D01*
X375033D01*
Y388747D01*
X374633D01*
Y387947D01*
X375033D01*
X368975Y359994D02*
Y359594D01*
X369775D01*
Y359994D01*
X370175D01*
Y360794D01*
X369775D01*
Y361194D01*
X368975D01*
Y360794D01*
X368575D01*
Y359994D01*
X368975D01*
X378700Y348450D02*
X379100Y349250D01*
X378700Y350050D01*
X379500Y349650D01*
X380300Y350050D01*
X379900Y349250D01*
X380300Y348450D01*
X379500Y348850D01*
X378700Y348450D01*
X355972Y389717D02*
X356372Y390516D01*
X355972Y391317D01*
X356772Y390916D01*
X357572Y391317D01*
X357172Y390516D01*
X357572Y389717D01*
X356772Y390117D01*
X355972Y389717D01*
X372481Y351009D02*
X372882Y351809D01*
X372481Y352609D01*
X373282Y352209D01*
X374081Y352609D01*
X373681Y351809D01*
X374081Y351009D01*
X373282Y351409D01*
X372481Y351009D01*
X371876Y194003D02*
X372276Y194803D01*
X371876Y195603D01*
X372676Y195203D01*
X373476Y195603D01*
X373076Y194803D01*
X373476Y194003D01*
X372676Y194403D01*
X371876Y194003D01*
X376050Y207350D02*
X376450Y208150D01*
X376050Y208950D01*
X376850Y208550D01*
X377650Y208950D01*
X377250Y208150D01*
X377650Y207350D01*
X376850Y207750D01*
X376050Y207350D01*
X355850Y222901D02*
X356250Y223701D01*
X355850Y224501D01*
X356650Y224101D01*
X357450Y224501D01*
X357050Y223701D01*
X357450Y222901D01*
X356650Y223301D01*
X355850Y222901D01*
X364633Y227783D02*
X365033Y228583D01*
X364633Y229383D01*
X365433Y228983D01*
X366233Y229383D01*
X365833Y228583D01*
X366233Y227783D01*
X365433Y228183D01*
X364633Y227783D01*
X356838Y183846D02*
X357238Y184646D01*
X356838Y185446D01*
X357638Y185046D01*
X358438Y185446D01*
X358038Y184646D01*
X358438Y183846D01*
X357638Y184246D01*
X356838Y183846D01*
X360224Y181641D02*
X360624Y182441D01*
X360224Y183241D01*
X361024Y182841D01*
X361824Y183241D01*
X361424Y182441D01*
X361824Y181641D01*
X361024Y182041D01*
X360224Y181641D01*
X360266Y217389D02*
X360666Y218189D01*
X360266Y218989D01*
X361066Y218589D01*
X361866Y218989D01*
X361466Y218189D01*
X361866Y217389D01*
X361066Y217789D01*
X360266Y217389D01*
X354790Y176602D02*
X355190Y177402D01*
X354790Y178202D01*
X355591Y177802D01*
X356391Y178202D01*
X355991Y177402D01*
X356391Y176602D01*
X355591Y177002D01*
X354790Y176602D01*
X346630Y171956D02*
X347030Y172756D01*
X346630Y173556D01*
X347430Y173156D01*
X348230Y173556D01*
X347830Y172756D01*
X348230Y171956D01*
X347430Y172356D01*
X346630Y171956D01*
X360266Y223076D02*
X360666Y223876D01*
X360266Y224676D01*
X361066Y224276D01*
X361866Y224676D01*
X361466Y223876D01*
X361866Y223076D01*
X361066Y223476D01*
X360266Y223076D01*
X346630Y217310D02*
X347030Y218110D01*
X346630Y218910D01*
X347430Y218510D01*
X348230Y218910D01*
X347830Y218110D01*
X348230Y217310D01*
X347430Y217710D01*
X346630Y217310D01*
Y222979D02*
X347030Y223780D01*
X346630Y224580D01*
X347430Y224180D01*
X348230Y224580D01*
X347830Y223780D01*
X348230Y222979D01*
X347430Y223379D01*
X346630Y222979D01*
X386759Y197940D02*
X387159Y198740D01*
X386759Y199540D01*
X387559Y199140D01*
X388359Y199540D01*
X387959Y198740D01*
X388359Y197940D01*
X387559Y198340D01*
X386759Y197940D01*
X373402Y163449D02*
X373802Y164249D01*
X373402Y165049D01*
X374202Y164649D01*
X375002Y165049D01*
X374602Y164249D01*
X375002Y163449D01*
X374202Y163849D01*
X373402Y163449D01*
X332489Y161950D02*
X332890Y162750D01*
X332489Y163550D01*
X333290Y163150D01*
X334089Y163550D01*
X333689Y162750D01*
X334089Y161950D01*
X333290Y162350D01*
X332489Y161950D01*
X351748Y210700D02*
X352148Y211500D01*
X351748Y212300D01*
X352548Y211900D01*
X353348Y212300D01*
X352948Y211500D01*
X353348Y210700D01*
X352548Y211100D01*
X351748Y210700D01*
X345982Y166602D02*
X346381Y167402D01*
X345982Y168202D01*
X346781Y167802D01*
X347582Y168202D01*
X347182Y167402D01*
X347582Y166602D01*
X346781Y167002D01*
X345982Y166602D01*
X371798Y189987D02*
X372198Y190787D01*
X371798Y191587D01*
X372598Y191187D01*
X373398Y191587D01*
X372998Y190787D01*
X373398Y189987D01*
X372598Y190387D01*
X371798Y189987D01*
X369594Y191981D02*
X369994Y192780D01*
X369594Y193580D01*
X370394Y193181D01*
X371194Y193580D01*
X370794Y192780D01*
X371194Y191981D01*
X370394Y192380D01*
X369594Y191981D01*
X323934Y163448D02*
X324334Y164248D01*
X323934Y165048D01*
X324734Y164648D01*
X325534Y165048D01*
X325134Y164248D01*
X325534Y163448D01*
X324734Y163848D01*
X323934Y163448D01*
X208255Y267675D02*
X208655D01*
X209055Y268075D01*
X209455Y267675D01*
X209855D01*
Y268075D01*
X209455Y268475D01*
X209855Y268875D01*
Y269275D01*
X209455D01*
X209055Y268875D01*
X208655Y269275D01*
X208255D01*
Y268875D01*
X208655Y268475D01*
X208255Y268075D01*
Y267675D01*
X274976Y199174D02*
X275376Y199974D01*
X274976Y200774D01*
X275776Y200374D01*
X276576Y200774D01*
X276176Y199974D01*
X276576Y199174D01*
X275776Y199574D01*
X274976Y199174D01*
X337608Y197902D02*
X338008Y198702D01*
X337608Y199502D01*
X338408Y199102D01*
X339208Y199502D01*
X338808Y198702D01*
X339208Y197902D01*
X338408Y198302D01*
X337608Y197902D01*
X337609Y179830D02*
X338009Y180630D01*
X337609Y181430D01*
X338409Y181030D01*
X339209Y181430D01*
X338809Y180630D01*
X339209Y179830D01*
X338409Y180230D01*
X337609Y179830D01*
X223216Y159104D02*
X223616Y159904D01*
X223216Y160704D01*
X224016Y160304D01*
X224816Y160704D01*
X224416Y159904D01*
X224816Y159104D01*
X224016Y159504D01*
X223216Y159104D01*
X221329Y149122D02*
X221729Y149922D01*
X221329Y150722D01*
X222129Y150322D01*
X222929Y150722D01*
X222529Y149922D01*
X222929Y149122D01*
X222129Y149522D01*
X221329Y149122D01*
X239717Y142950D02*
X240117Y143750D01*
X239717Y144550D01*
X240517Y144150D01*
X241317Y144550D01*
X240917Y143750D01*
X241317Y142950D01*
X240517Y143350D01*
X239717Y142950D01*
X220825D02*
X221225Y143750D01*
X220825Y144550D01*
X221625Y144150D01*
X222425Y144550D01*
X222025Y143750D01*
X222425Y142950D01*
X221625Y143350D01*
X220825Y142950D01*
X237200Y148075D02*
X237600Y148875D01*
X237200Y149675D01*
X238000Y149275D01*
X238800Y149675D01*
X238400Y148875D01*
X238800Y148075D01*
X238000Y148475D01*
X237200Y148075D01*
X378700Y127750D02*
X379500Y128550D01*
X380300Y127750D01*
X379500Y126950D01*
X378700Y127750D01*
Y451750D02*
X379500Y452550D01*
X380300Y451750D01*
X379500Y450950D01*
X378700Y451750D01*
X194700D02*
X195500Y452550D01*
X196300Y451750D01*
X195500Y450950D01*
X194700Y451750D01*
Y127750D02*
X195500Y128550D01*
X196300Y127750D01*
X195500Y126950D01*
X194700Y127750D01*
D130*
X325103Y139495D02*
X324550Y140256D01*
X323656Y139965D01*
Y139025D01*
X324550Y138734D01*
X325103Y139495D01*
X347859D02*
X347306Y140256D01*
X346412Y139965D01*
Y139025D01*
X347306Y138734D01*
X347859Y139495D01*
X220516Y139251D02*
X219964Y140012D01*
X219069Y139721D01*
Y138781D01*
X219964Y138490D01*
X220516Y139251D01*
X243272D02*
X242720Y140012D01*
X241825Y139721D01*
Y138781D01*
X242720Y138490D01*
X243272Y139251D01*
X369456Y382091D02*
X368903Y382852D01*
X368008Y382562D01*
Y381621D01*
X368903Y381331D01*
X369456Y382091D01*
Y404847D02*
X368903Y405608D01*
X368008Y405318D01*
Y404377D01*
X368903Y404087D01*
X369456Y404847D01*
M02*
