G04*
G04 #@! TF.GenerationSoftware,Altium Limited,Altium Designer,19.0.10 (269)*
G04*
G04 Layer_Color=65535*
%FSLAX25Y25*%
%MOIN*%
G70*
G01*
G75*
%ADD10C,0.00984*%
%ADD11C,0.01000*%
%ADD12C,0.02362*%
%ADD13C,0.01181*%
%ADD14C,0.00591*%
%ADD15C,0.00600*%
%ADD16C,0.00787*%
%ADD17C,0.00800*%
%ADD18C,0.01500*%
%ADD19C,0.00700*%
G36*
X363489Y434083D02*
X363262Y433939D01*
Y433517D01*
X364455D01*
X364622Y433728D01*
X364960Y433456D01*
X364772Y433328D01*
Y432912D01*
Y432906D01*
Y432901D01*
Y432867D01*
Y432812D01*
Y432745D01*
X364777Y432673D01*
Y432584D01*
X364788Y432412D01*
X364477Y432285D01*
Y432518D01*
X363262D01*
Y431824D01*
X364622D01*
X364832Y432035D01*
X365165Y431741D01*
X364960Y431613D01*
Y431608D01*
Y431580D01*
Y431547D01*
Y431497D01*
Y431441D01*
Y431375D01*
Y431302D01*
Y431219D01*
X364966Y431058D01*
Y430892D01*
X364971Y430808D01*
Y430736D01*
X364977Y430670D01*
Y430609D01*
X364666Y430503D01*
Y430781D01*
X363262D01*
Y430770D01*
Y430742D01*
Y430692D01*
Y430625D01*
Y430553D01*
Y430464D01*
Y430370D01*
Y430270D01*
X363267Y430070D01*
Y429970D01*
Y429871D01*
X363273Y429782D01*
Y429704D01*
X363279Y429637D01*
Y429588D01*
X362946Y429438D01*
Y429443D01*
Y429460D01*
Y429482D01*
X362951Y429521D01*
Y429571D01*
Y429626D01*
X362957Y429693D01*
Y429771D01*
Y429859D01*
X362962Y429959D01*
Y430070D01*
Y430192D01*
X362968Y430326D01*
Y430464D01*
Y430620D01*
Y430781D01*
X361563D01*
Y430592D01*
X361225Y430442D01*
Y430448D01*
Y430459D01*
Y430481D01*
X361230Y430509D01*
Y430548D01*
Y430586D01*
X361236Y430636D01*
Y430692D01*
X361242Y430808D01*
Y430936D01*
X361247Y431075D01*
Y431219D01*
Y431225D01*
Y431236D01*
Y431258D01*
Y431286D01*
Y431319D01*
Y431358D01*
Y431458D01*
X361242Y431569D01*
X361236Y431697D01*
X361230Y431835D01*
X361225Y431974D01*
X361563Y431824D01*
X362968D01*
Y432518D01*
X361791D01*
Y432368D01*
X361458Y432263D01*
Y432268D01*
Y432279D01*
Y432301D01*
X361464Y432329D01*
Y432363D01*
Y432401D01*
X361469Y432496D01*
Y432607D01*
X361475Y432729D01*
Y432862D01*
Y432995D01*
Y433001D01*
Y433012D01*
Y433029D01*
Y433056D01*
Y433089D01*
Y433128D01*
Y433217D01*
X361469Y433323D01*
Y433445D01*
X361464Y433572D01*
X361458Y433706D01*
X361813Y433517D01*
X362968D01*
Y433728D01*
Y433733D01*
Y433744D01*
Y433761D01*
Y433783D01*
Y433811D01*
Y433844D01*
Y433928D01*
X362962Y434022D01*
X362957Y434127D01*
X362951Y434244D01*
X362946Y434361D01*
X363489Y434083D01*
D02*
G37*
G36*
X370477Y433439D02*
X370310Y433312D01*
Y431258D01*
Y431252D01*
Y431230D01*
Y431191D01*
Y431147D01*
Y431091D01*
Y431025D01*
Y430953D01*
X370316Y430875D01*
Y430703D01*
X370321Y430525D01*
X370327Y430348D01*
Y430265D01*
X370333Y430187D01*
X370016Y430043D01*
Y430525D01*
X367247D01*
Y430059D01*
X366936Y429915D01*
Y429926D01*
Y429948D01*
Y429987D01*
X366941Y430048D01*
Y430120D01*
Y430209D01*
Y430309D01*
X366947Y430431D01*
Y430564D01*
Y430714D01*
Y430875D01*
X366953Y431053D01*
Y431247D01*
Y431452D01*
Y431669D01*
Y431902D01*
Y431907D01*
Y431918D01*
Y431935D01*
Y431957D01*
Y431991D01*
Y432024D01*
Y432113D01*
Y432218D01*
Y432335D01*
Y432468D01*
Y432607D01*
X366947Y432757D01*
Y432906D01*
Y433056D01*
Y433206D01*
X366941Y433350D01*
Y433484D01*
Y433606D01*
X366936Y433711D01*
X367269Y433500D01*
X369972D01*
X370144Y433733D01*
X370477Y433439D01*
D02*
G37*
G36*
X380439Y434022D02*
X380461Y434011D01*
X380489Y434000D01*
X380528Y433983D01*
X380567Y433966D01*
X380656Y433928D01*
X380755Y433883D01*
X380855Y433833D01*
X380944Y433783D01*
X380989Y433761D01*
X381022Y433739D01*
X381027Y433733D01*
X381050Y433717D01*
X381077Y433695D01*
X381111Y433661D01*
X381138Y433622D01*
X381161Y433578D01*
X381177Y433522D01*
Y433467D01*
Y433461D01*
X381172Y433439D01*
X381166Y433417D01*
X381161Y433384D01*
X381133Y433306D01*
X381116Y433273D01*
X381094Y433245D01*
X381083Y433234D01*
X381061Y433217D01*
X381033Y433195D01*
X381022Y433189D01*
X381011Y433184D01*
X381000Y433189D01*
X380989Y433195D01*
X380972Y433206D01*
X380950Y433228D01*
X380922Y433256D01*
X380894Y433300D01*
X380866Y433356D01*
X380861Y433367D01*
X380844Y433400D01*
X380811Y433450D01*
X380767Y433517D01*
X380700Y433606D01*
X380617Y433706D01*
X380567Y433767D01*
X380511Y433828D01*
X380450Y433894D01*
X380384Y433961D01*
X380422Y434027D01*
X380428D01*
X380439Y434022D01*
D02*
G37*
G36*
X380173Y434111D02*
X380006Y433961D01*
Y433955D01*
Y433933D01*
Y433894D01*
Y433850D01*
Y433789D01*
Y433722D01*
Y433650D01*
X380012Y433572D01*
Y433400D01*
X380017Y433228D01*
X380023Y433062D01*
Y432984D01*
X380028Y432912D01*
X381055D01*
X381366Y433184D01*
X381766Y432790D01*
X380045D01*
Y432779D01*
X380051Y432751D01*
Y432701D01*
X380062Y432634D01*
X380067Y432557D01*
X380078Y432462D01*
X380095Y432357D01*
X380112Y432246D01*
X380128Y432118D01*
X380151Y431985D01*
X380178Y431852D01*
X380206Y431708D01*
X380278Y431419D01*
X380361Y431130D01*
X380367Y431136D01*
X380378Y431158D01*
X380400Y431197D01*
X380428Y431247D01*
X380467Y431308D01*
X380506Y431380D01*
X380550Y431463D01*
X380600Y431558D01*
X380650Y431658D01*
X380700Y431769D01*
X380750Y431885D01*
X380805Y432007D01*
X380905Y432263D01*
X380989Y432535D01*
X381388Y432263D01*
X381222Y432118D01*
X381216Y432113D01*
X381205Y432091D01*
X381188Y432052D01*
X381166Y432002D01*
X381138Y431946D01*
X381100Y431874D01*
X381061Y431796D01*
X381011Y431708D01*
X380961Y431613D01*
X380905Y431508D01*
X380778Y431297D01*
X380639Y431069D01*
X380489Y430836D01*
X380495Y430831D01*
X380506Y430808D01*
X380522Y430781D01*
X380544Y430742D01*
X380578Y430692D01*
X380617Y430636D01*
X380667Y430570D01*
X380717Y430503D01*
X380778Y430431D01*
X380844Y430359D01*
X380916Y430281D01*
X381000Y430203D01*
X381088Y430131D01*
X381183Y430054D01*
X381283Y429987D01*
X381388Y429920D01*
X381577Y430836D01*
X381660Y430820D01*
Y430814D01*
Y430797D01*
X381655Y430764D01*
Y430725D01*
X381649Y430681D01*
Y430625D01*
X381643Y430564D01*
Y430503D01*
X381638Y430365D01*
X381632Y430226D01*
Y430098D01*
X381638Y430037D01*
Y429982D01*
Y429976D01*
Y429970D01*
X381643Y429937D01*
X381649Y429887D01*
X381660Y429826D01*
X381671Y429760D01*
X381693Y429682D01*
X381716Y429610D01*
X381743Y429543D01*
Y429537D01*
X381749Y429526D01*
X381754Y429493D01*
Y429471D01*
X381743Y429454D01*
X381732Y429443D01*
X381704Y429438D01*
X381693D01*
X381682Y429443D01*
X381660D01*
X381632Y429449D01*
X381599Y429460D01*
X381549Y429476D01*
X381494Y429493D01*
X381488Y429499D01*
X381460Y429504D01*
X381421Y429526D01*
X381366Y429554D01*
X381288Y429599D01*
X381194Y429660D01*
X381083Y429737D01*
X381016Y429787D01*
X380950Y429837D01*
X380944Y429843D01*
X380933Y429848D01*
X380911Y429865D01*
X380889Y429893D01*
X380855Y429920D01*
X380817Y429954D01*
X380772Y429993D01*
X380728Y430043D01*
X380678Y430092D01*
X380628Y430154D01*
X380517Y430287D01*
X380406Y430437D01*
X380300Y430609D01*
X380295Y430598D01*
X380273Y430575D01*
X380234Y430537D01*
X380189Y430487D01*
X380128Y430426D01*
X380051Y430353D01*
X379967Y430270D01*
X379878Y430187D01*
X379773Y430092D01*
X379662Y429998D01*
X379540Y429904D01*
X379418Y429810D01*
X379285Y429715D01*
X379146Y429626D01*
X379002Y429537D01*
X378852Y429460D01*
X378813Y429526D01*
X378824Y429532D01*
X378852Y429554D01*
X378896Y429588D01*
X378952Y429626D01*
X379024Y429682D01*
X379107Y429748D01*
X379196Y429826D01*
X379296Y429909D01*
X379401Y430004D01*
X379507Y430104D01*
X379618Y430215D01*
X379729Y430331D01*
X379840Y430453D01*
X379951Y430586D01*
X380051Y430720D01*
X380151Y430858D01*
X380145Y430869D01*
X380139Y430892D01*
X380123Y430936D01*
X380106Y430992D01*
X380078Y431064D01*
X380051Y431153D01*
X380023Y431258D01*
X379995Y431375D01*
X379962Y431508D01*
X379928Y431652D01*
X379895Y431813D01*
X379868Y431985D01*
X379840Y432168D01*
X379812Y432363D01*
X379790Y432573D01*
X379773Y432790D01*
X377531D01*
X377475Y432784D01*
X377409D01*
X377331Y432773D01*
X377248Y432762D01*
X377159Y432745D01*
X377070Y432723D01*
X376882Y432912D01*
X378225D01*
Y433461D01*
X377886D01*
X377831Y433456D01*
X377764D01*
X377686Y433445D01*
X377603Y433434D01*
X377514Y433417D01*
X377426Y433395D01*
X377237Y433583D01*
X378225D01*
Y433589D01*
Y433600D01*
Y433622D01*
Y433650D01*
Y433689D01*
Y433728D01*
Y433828D01*
X378219Y433939D01*
X378214Y434066D01*
X378208Y434194D01*
X378202Y434322D01*
X378641Y434150D01*
X378497Y434005D01*
Y433583D01*
X378896D01*
X379146Y433817D01*
X379501Y433461D01*
X378497D01*
Y432912D01*
X379756D01*
Y432923D01*
Y432951D01*
Y432995D01*
X379751Y433051D01*
Y433123D01*
Y433206D01*
X379745Y433300D01*
Y433400D01*
X379740Y433511D01*
X379734Y433622D01*
X379729Y433861D01*
X379723Y434100D01*
X379718Y434211D01*
X379712Y434322D01*
X380173Y434111D01*
D02*
G37*
G36*
X376288Y433672D02*
X374007D01*
Y432579D01*
X374012D01*
X374023Y432573D01*
X374040Y432568D01*
X374062Y432562D01*
X374090Y432551D01*
X374123Y432540D01*
X374206Y432518D01*
X374306Y432485D01*
X374412Y432446D01*
X374534Y432407D01*
X374661Y432363D01*
X374911Y432268D01*
X375033Y432218D01*
X375150Y432168D01*
X375250Y432118D01*
X375339Y432068D01*
X375411Y432024D01*
X375438Y432002D01*
X375461Y431980D01*
X375472Y431968D01*
X375494Y431941D01*
X375522Y431902D01*
X375561Y431846D01*
X375600Y431785D01*
X375627Y431724D01*
X375649Y431658D01*
X375661Y431591D01*
Y431580D01*
Y431563D01*
X375655Y431547D01*
X375638Y431491D01*
X375605Y431413D01*
Y431408D01*
X375600Y431397D01*
X375577Y431358D01*
X375544Y431314D01*
X375533Y431302D01*
X375516Y431297D01*
X375511D01*
X375500Y431302D01*
X375477Y431314D01*
X375444Y431330D01*
X375405Y431363D01*
X375355Y431413D01*
X375328Y431441D01*
X375294Y431480D01*
X375261Y431519D01*
X375222Y431569D01*
X375217Y431574D01*
X375205Y431586D01*
X375189Y431608D01*
X375161Y431641D01*
X375128Y431680D01*
X375083Y431724D01*
X375028Y431774D01*
X374961Y431830D01*
X374884Y431896D01*
X374795Y431963D01*
X374695Y432041D01*
X374584Y432118D01*
X374462Y432201D01*
X374323Y432290D01*
X374173Y432379D01*
X374007Y432474D01*
Y430331D01*
Y430326D01*
Y430314D01*
Y430287D01*
Y430259D01*
Y430220D01*
Y430181D01*
Y430076D01*
X374012Y429965D01*
Y429843D01*
X374018Y429721D01*
X374023Y429604D01*
X373668Y429454D01*
Y429465D01*
Y429488D01*
Y429526D01*
X373674Y429582D01*
Y429643D01*
Y429715D01*
X373679Y429793D01*
Y429876D01*
X373685Y430054D01*
Y430231D01*
X373690Y430314D01*
Y430392D01*
Y430459D01*
Y430520D01*
Y433672D01*
X372303D01*
X372247Y433667D01*
X372181D01*
X372103Y433656D01*
X372020Y433644D01*
X371931Y433628D01*
X371842Y433606D01*
X371659Y433794D01*
X375533D01*
X375849Y434111D01*
X376288Y433672D01*
D02*
G37*
G36*
X384413Y434066D02*
X384246Y433961D01*
X384097Y433750D01*
X385590D01*
X385778Y433961D01*
X386133Y433644D01*
X385900Y433522D01*
X385895Y433511D01*
X385878Y433489D01*
X385845Y433450D01*
X385806Y433400D01*
X385761Y433339D01*
X385706Y433267D01*
X385645Y433184D01*
X385573Y433101D01*
X385423Y432917D01*
X385257Y432734D01*
X385173Y432646D01*
X385085Y432557D01*
X385001Y432479D01*
X384918Y432407D01*
X384924Y432401D01*
X384940Y432390D01*
X384968Y432368D01*
X385007Y432340D01*
X385051Y432312D01*
X385107Y432274D01*
X385168Y432229D01*
X385240Y432185D01*
X385317Y432140D01*
X385395Y432091D01*
X385578Y431996D01*
X385773Y431907D01*
X385984Y431830D01*
X385989D01*
X386011Y431824D01*
X386039Y431813D01*
X386083Y431802D01*
X386133Y431785D01*
X386194Y431774D01*
X386261Y431752D01*
X386339Y431735D01*
X386422Y431719D01*
X386516Y431697D01*
X386711Y431663D01*
X386922Y431635D01*
X387138Y431613D01*
Y431547D01*
X387132D01*
X387127Y431541D01*
X387088Y431535D01*
X387038Y431513D01*
X386977Y431486D01*
X386905Y431447D01*
X386838Y431397D01*
X386777Y431330D01*
X386722Y431252D01*
X386716D01*
X386705Y431258D01*
X386688Y431264D01*
X386666Y431269D01*
X386605Y431291D01*
X386533Y431314D01*
X386450Y431341D01*
X386367Y431369D01*
X386289Y431397D01*
X386217Y431425D01*
X386133Y431341D01*
Y430248D01*
Y430242D01*
Y430231D01*
Y430215D01*
Y430192D01*
Y430165D01*
Y430131D01*
X386139Y430048D01*
Y429954D01*
X386144Y429848D01*
X386156Y429626D01*
X385839Y429499D01*
Y429810D01*
X383680D01*
Y429560D01*
X383364Y429454D01*
Y429460D01*
Y429476D01*
Y429504D01*
X383369Y429537D01*
Y429582D01*
Y429632D01*
X383375Y429687D01*
Y429748D01*
X383381Y429882D01*
Y430020D01*
X383386Y430159D01*
Y430292D01*
Y431463D01*
X383381D01*
X383364Y431458D01*
X383336Y431447D01*
X383303Y431430D01*
X383259Y431413D01*
X383203Y431397D01*
X383142Y431375D01*
X383070Y431352D01*
X382998Y431325D01*
X382914Y431297D01*
X382826Y431269D01*
X382731Y431241D01*
X382531Y431186D01*
X382315Y431130D01*
X382298Y431214D01*
X382310Y431219D01*
X382337Y431230D01*
X382387Y431247D01*
X382448Y431269D01*
X382526Y431302D01*
X382615Y431336D01*
X382715Y431375D01*
X382820Y431419D01*
X382937Y431463D01*
X383048Y431513D01*
X383286Y431619D01*
X383403Y431674D01*
X383514Y431730D01*
X383619Y431785D01*
X383719Y431841D01*
X383725Y431846D01*
X383741Y431852D01*
X383769Y431869D01*
X383802Y431891D01*
X383847Y431918D01*
X383897Y431952D01*
X383952Y431985D01*
X384013Y432024D01*
X384141Y432113D01*
X384280Y432213D01*
X384413Y432318D01*
X384541Y432429D01*
X384535Y432435D01*
X384524Y432451D01*
X384507Y432474D01*
X384479Y432507D01*
X384452Y432551D01*
X384413Y432601D01*
X384374Y432657D01*
X384330Y432723D01*
X384285Y432795D01*
X384235Y432879D01*
X384185Y432962D01*
X384135Y433056D01*
X384080Y433156D01*
X384030Y433256D01*
X383930Y433478D01*
X383925Y433472D01*
X383908Y433445D01*
X383886Y433411D01*
X383852Y433361D01*
X383808Y433300D01*
X383752Y433228D01*
X383691Y433151D01*
X383625Y433067D01*
X383547Y432978D01*
X383464Y432890D01*
X383369Y432795D01*
X383270Y432701D01*
X383159Y432607D01*
X383048Y432512D01*
X382926Y432429D01*
X382798Y432346D01*
X382737Y432407D01*
X382742Y432412D01*
X382759Y432429D01*
X382787Y432457D01*
X382826Y432490D01*
X382864Y432535D01*
X382920Y432590D01*
X382976Y432646D01*
X383036Y432712D01*
X383098Y432784D01*
X383164Y432862D01*
X383303Y433034D01*
X383431Y433217D01*
X383553Y433411D01*
X383558Y433417D01*
X383564Y433434D01*
X383580Y433461D01*
X383603Y433500D01*
X383625Y433545D01*
X383653Y433600D01*
X383686Y433661D01*
X383714Y433728D01*
X383786Y433878D01*
X383852Y434033D01*
X383919Y434199D01*
X383974Y434361D01*
X384413Y434066D01*
D02*
G37*
G36*
X378452Y432496D02*
X378308Y432435D01*
Y432429D01*
X378297Y432418D01*
X378286Y432396D01*
X378263Y432368D01*
X378241Y432329D01*
X378214Y432274D01*
X378180Y432213D01*
X378141Y432140D01*
X378913D01*
X379190Y432390D01*
X379523Y432018D01*
X378075D01*
X377636Y431258D01*
X378308D01*
Y431264D01*
Y431275D01*
Y431291D01*
Y431314D01*
Y431375D01*
Y431458D01*
X378302Y431552D01*
X378297Y431658D01*
X378291Y431769D01*
X378286Y431885D01*
X378708Y431697D01*
X378580Y431552D01*
Y431258D01*
X379002D01*
X379229Y431513D01*
X379568Y431136D01*
X378580D01*
Y430609D01*
X379501Y430736D01*
X379523Y430670D01*
X378580Y430442D01*
Y430437D01*
Y430420D01*
Y430392D01*
Y430359D01*
Y430314D01*
Y430259D01*
Y430203D01*
X378585Y430142D01*
Y430015D01*
X378591Y429876D01*
X378596Y429748D01*
X378602Y429626D01*
X378286Y429504D01*
Y429510D01*
Y429532D01*
Y429565D01*
X378291Y429610D01*
Y429660D01*
Y429721D01*
X378297Y429787D01*
Y429854D01*
X378302Y430004D01*
Y430148D01*
X378308Y430215D01*
Y430276D01*
Y430331D01*
Y430381D01*
X378297D01*
X378269Y430376D01*
X378219Y430365D01*
X378158Y430348D01*
X378086Y430331D01*
X378003Y430314D01*
X377914Y430292D01*
X377825Y430270D01*
X377636Y430215D01*
X377548Y430187D01*
X377470Y430159D01*
X377398Y430131D01*
X377337Y430098D01*
X377287Y430070D01*
X377259Y430043D01*
X377070Y430398D01*
X377087D01*
X377103Y430403D01*
X377131D01*
X377170Y430409D01*
X377215Y430414D01*
X377270Y430420D01*
X377337Y430426D01*
X377414Y430437D01*
X377503Y430448D01*
X377603Y430464D01*
X377714Y430481D01*
X377842Y430498D01*
X377986Y430520D01*
X378141Y430542D01*
X378308Y430570D01*
Y431136D01*
X377614D01*
X377470Y431008D01*
X377237Y431280D01*
X377242D01*
X377270Y431291D01*
X377287Y431302D01*
X377309Y431319D01*
X377337Y431341D01*
X377370Y431375D01*
X377403Y431413D01*
X377442Y431463D01*
X377486Y431519D01*
X377537Y431591D01*
X377592Y431674D01*
X377647Y431774D01*
X377714Y431891D01*
X377781Y432018D01*
X377570D01*
X377525Y432013D01*
X377459D01*
X377387Y432002D01*
X377303Y431991D01*
X377220Y431974D01*
X377131Y431952D01*
X376943Y432140D01*
X377847D01*
Y432146D01*
X377853Y432157D01*
X377864Y432174D01*
X377875Y432201D01*
X377903Y432263D01*
X377936Y432346D01*
X377975Y432440D01*
X378014Y432540D01*
X378047Y432634D01*
X378075Y432729D01*
X378452Y432496D01*
D02*
G37*
G36*
X365687Y428331D02*
X365521Y428164D01*
Y424490D01*
Y424485D01*
Y424468D01*
Y424440D01*
X365515Y424407D01*
X365510Y424368D01*
X365504Y424318D01*
X365487Y424268D01*
X365471Y424213D01*
X365448Y424157D01*
X365421Y424102D01*
X365382Y424046D01*
X365338Y423991D01*
X365282Y423941D01*
X365221Y423897D01*
X365143Y423858D01*
X365060Y423824D01*
Y423830D01*
Y423841D01*
X365054Y423858D01*
X365043Y423880D01*
X365032Y423913D01*
X365016Y423947D01*
X364993Y423980D01*
X364960Y424019D01*
X364927Y424057D01*
X364877Y424096D01*
X364827Y424135D01*
X364760Y424168D01*
X364688Y424207D01*
X364599Y424235D01*
X364499Y424263D01*
X364388Y424285D01*
Y424385D01*
X364411D01*
X364439Y424379D01*
X364477D01*
X364522Y424374D01*
X364566D01*
X364677Y424368D01*
X364794Y424363D01*
X364910Y424357D01*
X365082D01*
X365099Y424363D01*
X365127Y424374D01*
X365154Y424396D01*
X365177Y424429D01*
X365204Y424479D01*
X365221Y424551D01*
X365227Y424590D01*
Y424640D01*
Y425711D01*
X363822D01*
Y425706D01*
Y425695D01*
Y425678D01*
Y425656D01*
Y425623D01*
Y425584D01*
Y425500D01*
Y425395D01*
Y425273D01*
Y425145D01*
X363828Y425006D01*
Y424735D01*
Y424601D01*
X363833Y424474D01*
Y424357D01*
X363839Y424257D01*
Y424180D01*
X363845Y424146D01*
Y424119D01*
X363528Y423974D01*
Y423980D01*
Y423985D01*
Y424002D01*
Y424024D01*
Y424052D01*
Y424085D01*
X363534Y424168D01*
Y424268D01*
Y424379D01*
X363539Y424502D01*
Y424635D01*
Y424779D01*
X363545Y424918D01*
Y425206D01*
X363550Y425345D01*
Y425478D01*
Y425600D01*
Y425711D01*
X362169D01*
Y425706D01*
Y425700D01*
X362163Y425684D01*
Y425661D01*
X362152Y425606D01*
X362135Y425523D01*
X362113Y425428D01*
X362085Y425317D01*
X362046Y425190D01*
X362002Y425057D01*
X361952Y424907D01*
X361885Y424757D01*
X361813Y424596D01*
X361736Y424435D01*
X361641Y424274D01*
X361536Y424113D01*
X361419Y423952D01*
X361286Y423802D01*
X361225Y423847D01*
X361230Y423852D01*
X361242Y423874D01*
X361264Y423913D01*
X361292Y423957D01*
X361325Y424019D01*
X361358Y424085D01*
X361397Y424163D01*
X361441Y424252D01*
X361486Y424346D01*
X361536Y424451D01*
X361580Y424557D01*
X361625Y424674D01*
X361702Y424912D01*
X361741Y425034D01*
X361769Y425162D01*
Y425168D01*
X361774Y425195D01*
X361780Y425234D01*
X361791Y425284D01*
X361802Y425356D01*
X361813Y425434D01*
X361830Y425534D01*
X361841Y425645D01*
X361852Y425772D01*
X361869Y425911D01*
X361880Y426061D01*
X361891Y426228D01*
X361902Y426405D01*
X361908Y426594D01*
X361913Y426794D01*
Y427010D01*
Y427016D01*
Y427021D01*
Y427038D01*
Y427060D01*
Y427121D01*
Y427199D01*
Y427293D01*
Y427404D01*
Y427521D01*
Y427648D01*
X361908Y427909D01*
Y428037D01*
Y428164D01*
X361902Y428281D01*
Y428386D01*
Y428486D01*
X361896Y428564D01*
X362207Y428353D01*
X365210D01*
X365354Y428586D01*
X365687Y428331D01*
D02*
G37*
G36*
X388925Y428226D02*
X388759Y428098D01*
Y428092D01*
Y428087D01*
Y428070D01*
Y428042D01*
Y428015D01*
Y427981D01*
Y427904D01*
Y427804D01*
Y427693D01*
Y427576D01*
Y427449D01*
X388764Y427193D01*
Y427071D01*
Y426949D01*
X388770Y426844D01*
Y426749D01*
X388775Y426672D01*
Y426638D01*
Y426611D01*
X388487Y426488D01*
Y426699D01*
X386933D01*
Y426510D01*
X386638Y426383D01*
Y426389D01*
Y426411D01*
Y426438D01*
X386644Y426477D01*
Y426527D01*
Y426588D01*
X386649Y426655D01*
Y426727D01*
Y426805D01*
X386655Y426888D01*
Y427066D01*
X386661Y427254D01*
Y427437D01*
Y427443D01*
Y427460D01*
Y427487D01*
Y427521D01*
Y427571D01*
Y427621D01*
Y427682D01*
Y427754D01*
X386655Y427826D01*
Y427909D01*
X386649Y428081D01*
X386644Y428275D01*
X386638Y428475D01*
X386955Y428287D01*
X388442D01*
X388653Y428498D01*
X388925Y428226D01*
D02*
G37*
G36*
X370915Y427787D02*
X370749Y427659D01*
Y425606D01*
Y425600D01*
Y425578D01*
Y425539D01*
Y425495D01*
Y425439D01*
Y425373D01*
Y425301D01*
X370754Y425223D01*
Y425051D01*
X370760Y424873D01*
X370765Y424696D01*
Y424612D01*
X370771Y424535D01*
X370455Y424390D01*
Y424873D01*
X367685D01*
Y424407D01*
X367374Y424263D01*
Y424274D01*
Y424296D01*
Y424335D01*
X367380Y424396D01*
Y424468D01*
Y424557D01*
Y424657D01*
X367386Y424779D01*
Y424912D01*
Y425062D01*
Y425223D01*
X367391Y425401D01*
Y425595D01*
Y425800D01*
Y426017D01*
Y426250D01*
Y426255D01*
Y426266D01*
Y426283D01*
Y426305D01*
Y426338D01*
Y426372D01*
Y426461D01*
Y426566D01*
Y426683D01*
Y426816D01*
Y426955D01*
X367386Y427104D01*
Y427254D01*
Y427404D01*
Y427554D01*
X367380Y427698D01*
Y427832D01*
Y427953D01*
X367374Y428059D01*
X367707Y427848D01*
X370410D01*
X370582Y428081D01*
X370915Y427787D01*
D02*
G37*
G36*
X376482Y427093D02*
X376315Y426943D01*
Y426044D01*
Y426039D01*
Y426028D01*
Y426011D01*
Y425983D01*
Y425950D01*
Y425906D01*
Y425861D01*
Y425806D01*
X376321Y425750D01*
Y425684D01*
Y425539D01*
X376326Y425378D01*
X376332Y425206D01*
X376021Y425084D01*
Y425462D01*
X374822D01*
Y424979D01*
X374512Y424873D01*
Y424884D01*
Y424907D01*
Y424945D01*
X374517Y424995D01*
Y425062D01*
Y425134D01*
X374523Y425217D01*
Y425312D01*
Y425406D01*
X374528Y425512D01*
Y425728D01*
X374534Y425944D01*
Y426161D01*
Y426166D01*
Y426189D01*
Y426216D01*
Y426255D01*
Y426311D01*
Y426366D01*
Y426438D01*
Y426516D01*
X374528Y426599D01*
Y426688D01*
Y426783D01*
X374523Y426882D01*
X374517Y427099D01*
X374512Y427321D01*
X374845Y427154D01*
X375999D01*
X376127Y427365D01*
X376482Y427093D01*
D02*
G37*
G36*
X385023Y427282D02*
Y427260D01*
Y427221D01*
X385018Y427177D01*
Y427121D01*
X385012Y427060D01*
X385001Y426921D01*
X384984Y426777D01*
X384974Y426705D01*
X384962Y426638D01*
X384951Y426577D01*
X384940Y426527D01*
X384924Y426483D01*
X384907Y426449D01*
X384901Y426444D01*
X384890Y426427D01*
X384874Y426405D01*
X384846Y426377D01*
X384785Y426322D01*
X384746Y426300D01*
X384707Y426283D01*
X384701D01*
X384690Y426277D01*
X384651D01*
X384602Y426283D01*
X384579Y426289D01*
X384563Y426305D01*
X384557Y426316D01*
X384546Y426338D01*
X384529Y426366D01*
X384524Y426400D01*
Y426405D01*
Y426416D01*
X384529Y426433D01*
X384541Y426455D01*
X384552Y426483D01*
X384574Y426516D01*
X384607Y426549D01*
X384646Y426588D01*
X384651Y426599D01*
X384674Y426622D01*
X384690Y426644D01*
X384707Y426672D01*
X384724Y426705D01*
X384746Y426738D01*
X384768Y426783D01*
X384790Y426832D01*
X384818Y426894D01*
X384840Y426955D01*
X384868Y427027D01*
X384890Y427104D01*
X384918Y427193D01*
X384940Y427288D01*
X385023D01*
Y427282D01*
D02*
G37*
G36*
X382226Y426955D02*
X382243Y426943D01*
X382265Y426927D01*
X382298Y426910D01*
X382337Y426882D01*
X382420Y426827D01*
X382526Y426755D01*
X382643Y426677D01*
X382765Y426594D01*
X382898Y426499D01*
X383031Y426411D01*
X383159Y426316D01*
X383286Y426222D01*
X383397Y426139D01*
X383503Y426055D01*
X383586Y425983D01*
X383619Y425956D01*
X383647Y425922D01*
X383669Y425900D01*
X383686Y425878D01*
X383691Y425867D01*
X383708Y425844D01*
X383730Y425806D01*
X383758Y425756D01*
X383780Y425700D01*
X383802Y425645D01*
X383819Y425589D01*
X383825Y425539D01*
Y425534D01*
Y425523D01*
X383819Y425506D01*
Y425484D01*
X383797Y425423D01*
X383780Y425384D01*
X383758Y425340D01*
Y425334D01*
X383747Y425323D01*
X383725Y425284D01*
X383691Y425245D01*
X383675Y425234D01*
X383658Y425229D01*
X383653D01*
X383641Y425234D01*
X383625Y425245D01*
X383597Y425273D01*
X383558Y425312D01*
X383536Y425340D01*
X383514Y425367D01*
X383492Y425406D01*
X383464Y425451D01*
X383436Y425500D01*
X383403Y425562D01*
X383397Y425567D01*
X383392Y425584D01*
X383375Y425606D01*
X383347Y425645D01*
X383314Y425695D01*
X383270Y425750D01*
X383220Y425817D01*
X383153Y425894D01*
X383075Y425983D01*
X382986Y426083D01*
X382887Y426194D01*
X382770Y426316D01*
X382637Y426449D01*
X382493Y426588D01*
X382326Y426744D01*
X382149Y426905D01*
X382209Y426966D01*
X382215D01*
X382226Y426955D01*
D02*
G37*
G36*
X385823Y428392D02*
X385656Y428248D01*
Y426927D01*
X385662Y426932D01*
X385667Y426943D01*
X385684Y426971D01*
X385706Y426999D01*
X385734Y427038D01*
X385761Y427082D01*
X385795Y427132D01*
X385834Y427188D01*
X385911Y427310D01*
X385989Y427449D01*
X386067Y427593D01*
X386133Y427743D01*
X386494Y427449D01*
X386305Y427365D01*
X386300Y427360D01*
X386294Y427354D01*
X386278Y427338D01*
X386256Y427310D01*
X386194Y427254D01*
X386117Y427171D01*
X386017Y427082D01*
X385906Y426977D01*
X385784Y426871D01*
X385656Y426760D01*
Y426749D01*
Y426721D01*
Y426677D01*
X385651Y426616D01*
Y426549D01*
X385645Y426466D01*
Y426377D01*
X385639Y426283D01*
X385628Y426089D01*
X385623Y425994D01*
X385617Y425900D01*
X385612Y425811D01*
X385606Y425734D01*
X385595Y425661D01*
X385590Y425606D01*
X385595D01*
X385606Y425595D01*
X385628Y425584D01*
X385656Y425573D01*
X385689Y425550D01*
X385728Y425534D01*
X385817Y425484D01*
X385911Y425423D01*
X386000Y425362D01*
X386083Y425301D01*
X386117Y425267D01*
X386144Y425240D01*
X386150Y425234D01*
X386167Y425212D01*
X386189Y425184D01*
X386217Y425145D01*
X386239Y425101D01*
X386261Y425057D01*
X386278Y425006D01*
X386283Y424957D01*
Y424951D01*
Y424940D01*
X386278Y424923D01*
Y424901D01*
X386256Y424840D01*
X386239Y424807D01*
X386217Y424768D01*
Y424762D01*
X386206Y424751D01*
X386183Y424718D01*
X386156Y424679D01*
X386144Y424668D01*
X386133Y424662D01*
X386128D01*
X386122Y424668D01*
X386106Y424674D01*
X386083Y424690D01*
X386061Y424718D01*
X386039Y424762D01*
X386011Y424818D01*
X385989Y424895D01*
Y424901D01*
X385984Y424912D01*
X385978Y424929D01*
X385967Y424951D01*
X385934Y425012D01*
X385889Y425090D01*
X385828Y425178D01*
X385756Y425284D01*
X385673Y425389D01*
X385567Y425500D01*
Y425495D01*
Y425489D01*
X385562Y425473D01*
X385556Y425456D01*
X385545Y425395D01*
X385523Y425323D01*
X385495Y425234D01*
X385456Y425129D01*
X385412Y425012D01*
X385356Y424890D01*
X385290Y424757D01*
X385218Y424618D01*
X385129Y424474D01*
X385029Y424335D01*
X384918Y424196D01*
X384796Y424057D01*
X384657Y423930D01*
X384502Y423808D01*
X384479Y423869D01*
X384485Y423874D01*
X384507Y423902D01*
X384541Y423935D01*
X384579Y423991D01*
X384629Y424052D01*
X384685Y424124D01*
X384746Y424213D01*
X384812Y424307D01*
X384879Y424407D01*
X384946Y424524D01*
X385007Y424640D01*
X385068Y424762D01*
X385129Y424890D01*
X385179Y425023D01*
X385218Y425162D01*
X385251Y425301D01*
Y425312D01*
X385257Y425334D01*
X385262Y425373D01*
X385273Y425428D01*
X385284Y425495D01*
X385295Y425578D01*
X385312Y425667D01*
X385323Y425767D01*
X385334Y425878D01*
X385351Y425994D01*
X385356Y426117D01*
X385367Y426244D01*
X385379Y426516D01*
Y426799D01*
Y426810D01*
Y426832D01*
Y426877D01*
Y426932D01*
X385373Y427010D01*
Y427099D01*
X385367Y427199D01*
Y427315D01*
Y427443D01*
X385362Y427587D01*
X385356Y427743D01*
Y427909D01*
X385351Y428081D01*
X385345Y428270D01*
Y428464D01*
X385340Y428670D01*
X385823Y428392D01*
D02*
G37*
G36*
X378641Y428020D02*
X377636D01*
Y424601D01*
Y424596D01*
Y424579D01*
Y424551D01*
X377631Y424513D01*
X377625Y424468D01*
X377614Y424418D01*
X377603Y424363D01*
X377586Y424307D01*
X377564Y424246D01*
X377531Y424185D01*
X377492Y424124D01*
X377448Y424063D01*
X377398Y424008D01*
X377331Y423952D01*
X377259Y423908D01*
X377176Y423869D01*
Y423874D01*
X377170Y423880D01*
X377165Y423897D01*
X377159Y423919D01*
X377142Y423941D01*
X377126Y423974D01*
X377103Y424002D01*
X377070Y424041D01*
X377031Y424074D01*
X376981Y424113D01*
X376926Y424152D01*
X376854Y424196D01*
X376776Y424235D01*
X376682Y424274D01*
X376576Y424313D01*
X376460Y424346D01*
Y424451D01*
X376476D01*
X376493Y424446D01*
X376515D01*
X376576Y424440D01*
X376654Y424429D01*
X376748Y424418D01*
X376854Y424407D01*
X376965Y424402D01*
X377076Y424390D01*
X377126D01*
X377170Y424402D01*
X377226Y424418D01*
X377276Y424451D01*
X377298Y424474D01*
X377314Y424507D01*
X377331Y424540D01*
X377342Y424579D01*
X377348Y424629D01*
X377342Y424685D01*
Y428020D01*
X374401D01*
X374345Y428015D01*
X374279D01*
X374206Y428004D01*
X374118Y427992D01*
X374034Y427976D01*
X373946Y427953D01*
X373757Y428142D01*
X377886D01*
X378202Y428459D01*
X378641Y428020D01*
D02*
G37*
G36*
X383952Y428164D02*
X381960D01*
Y428159D01*
X381949Y428148D01*
X381943Y428126D01*
X381926Y428103D01*
X381910Y428064D01*
X381888Y428026D01*
X381866Y427976D01*
X381838Y427926D01*
X381804Y427865D01*
X381777Y427798D01*
X381704Y427654D01*
X381621Y427498D01*
X381538Y427321D01*
X381893Y427115D01*
X381704Y426966D01*
Y424957D01*
Y424951D01*
Y424929D01*
Y424895D01*
Y424851D01*
Y424801D01*
Y424740D01*
Y424674D01*
X381710Y424601D01*
Y424446D01*
X381716Y424285D01*
X381721Y424130D01*
Y424063D01*
X381727Y423996D01*
X381371Y423847D01*
Y423858D01*
Y423880D01*
Y423924D01*
X381377Y423980D01*
Y424046D01*
Y424130D01*
X381383Y424218D01*
Y424318D01*
Y424424D01*
X381388Y424535D01*
Y424762D01*
X381394Y425001D01*
Y425229D01*
Y427066D01*
X381383Y427054D01*
X381371Y427038D01*
X381355Y427016D01*
X381333Y426982D01*
X381310Y426949D01*
X381244Y426860D01*
X381161Y426749D01*
X381055Y426627D01*
X380939Y426488D01*
X380805Y426338D01*
X380656Y426178D01*
X380495Y426011D01*
X380311Y425839D01*
X380123Y425667D01*
X379912Y425495D01*
X379690Y425328D01*
X379457Y425168D01*
X379213Y425018D01*
X379168Y425101D01*
X379174Y425106D01*
X379202Y425123D01*
X379235Y425151D01*
X379285Y425190D01*
X379351Y425240D01*
X379423Y425301D01*
X379507Y425373D01*
X379595Y425451D01*
X379695Y425534D01*
X379801Y425634D01*
X379906Y425734D01*
X380023Y425850D01*
X380139Y425967D01*
X380261Y426094D01*
X380378Y426228D01*
X380500Y426366D01*
X380506Y426377D01*
X380528Y426400D01*
X380561Y426444D01*
X380606Y426505D01*
X380661Y426577D01*
X380722Y426666D01*
X380794Y426766D01*
X380872Y426877D01*
X380950Y427004D01*
X381033Y427143D01*
X381122Y427288D01*
X381205Y427449D01*
X381294Y427615D01*
X381377Y427793D01*
X381460Y427976D01*
X381538Y428164D01*
X379862D01*
X379806Y428159D01*
X379740D01*
X379662Y428148D01*
X379579Y428137D01*
X379490Y428120D01*
X379401Y428098D01*
X379213Y428287D01*
X383197D01*
X383508Y428603D01*
X383952Y428164D01*
D02*
G37*
G36*
X389114Y425983D02*
X387854D01*
Y425289D01*
X388775D01*
X389031Y425539D01*
X389386Y425168D01*
X387854D01*
Y425156D01*
Y425123D01*
Y425073D01*
Y425006D01*
Y424929D01*
Y424834D01*
Y424740D01*
X387860Y424635D01*
Y424418D01*
Y424313D01*
X387865Y424213D01*
Y424124D01*
X387871Y424041D01*
Y423969D01*
X387876Y423913D01*
X387543Y423763D01*
Y423769D01*
Y423780D01*
Y423808D01*
X387549Y423841D01*
Y423880D01*
Y423935D01*
Y424002D01*
X387554Y424080D01*
Y424168D01*
Y424274D01*
Y424385D01*
X387560Y424513D01*
Y424657D01*
Y424812D01*
Y424984D01*
Y425168D01*
X386844D01*
X386788Y425162D01*
X386722D01*
X386649Y425151D01*
X386561Y425140D01*
X386477Y425123D01*
X386389Y425101D01*
X386200Y425289D01*
X387560D01*
Y425983D01*
X387016D01*
X386960Y425978D01*
X386894D01*
X386816Y425967D01*
X386733Y425956D01*
X386644Y425939D01*
X386555Y425917D01*
X386367Y426105D01*
X388548D01*
X388775Y426338D01*
X389114Y425983D01*
D02*
G37*
G36*
X390296Y428209D02*
X390313Y428187D01*
X390335Y428148D01*
X390368Y428103D01*
X390412Y428042D01*
X390457Y427970D01*
X390507Y427892D01*
X390562Y427804D01*
X390623Y427704D01*
X390679Y427598D01*
X390740Y427493D01*
X390801Y427376D01*
X390912Y427138D01*
X390967Y427010D01*
X391012Y426888D01*
Y426882D01*
X391023Y426860D01*
X391028Y426832D01*
X391045Y426788D01*
X391062Y426738D01*
X391078Y426677D01*
X391095Y426605D01*
X391117Y426527D01*
X391134Y426438D01*
X391151Y426344D01*
X391167Y426250D01*
X391184Y426144D01*
X391206Y425922D01*
X391217Y425695D01*
Y425689D01*
Y425661D01*
Y425623D01*
X391212Y425573D01*
Y425512D01*
X391201Y425434D01*
X391195Y425351D01*
X391184Y425256D01*
X391167Y425156D01*
X391151Y425045D01*
X391101Y424818D01*
X391073Y424696D01*
X391034Y424574D01*
X390995Y424446D01*
X390945Y424324D01*
X390940Y424318D01*
X390934Y424296D01*
X390917Y424263D01*
X390895Y424213D01*
X390873Y424157D01*
X390840Y424091D01*
X390801Y424019D01*
X390762Y423935D01*
X390718Y423847D01*
X390668Y423758D01*
X390557Y423563D01*
X390429Y423364D01*
X390290Y423175D01*
X389952D01*
Y423181D01*
X389963Y423192D01*
X389974Y423208D01*
X389985Y423231D01*
X390002Y423264D01*
X390024Y423297D01*
X390046Y423342D01*
X390074Y423391D01*
X390135Y423502D01*
X390201Y423641D01*
X390268Y423791D01*
X390346Y423963D01*
X390418Y424146D01*
X390485Y424340D01*
X390551Y424551D01*
X390612Y424768D01*
X390662Y424990D01*
X390701Y425223D01*
X390723Y425456D01*
X390734Y425695D01*
Y425700D01*
Y425717D01*
Y425745D01*
Y425778D01*
X390729Y425822D01*
Y425878D01*
X390723Y425933D01*
X390718Y426000D01*
X390712Y426072D01*
X390707Y426150D01*
X390684Y426311D01*
X390657Y426488D01*
X390618Y426672D01*
Y426677D01*
X390612Y426688D01*
X390607Y426710D01*
X390601Y426738D01*
X390590Y426771D01*
X390579Y426816D01*
X390551Y426916D01*
X390518Y427027D01*
X390474Y427154D01*
X390423Y427293D01*
X390368Y427426D01*
Y427432D01*
X390363Y427437D01*
X390357Y427454D01*
X390346Y427471D01*
X390335Y427498D01*
X390318Y427532D01*
X390301Y427565D01*
X390279Y427615D01*
X390251Y427665D01*
X390224Y427720D01*
X390191Y427787D01*
X390152Y427859D01*
X390107Y427937D01*
X390063Y428020D01*
X390007Y428115D01*
X389952Y428214D01*
X390290D01*
X390296Y428209D01*
D02*
G37*
G36*
X373307Y428209D02*
X373302Y428192D01*
X373285Y428164D01*
X373263Y428126D01*
X373235Y428081D01*
X373207Y428026D01*
X373141Y427909D01*
X373069Y427781D01*
X373002Y427654D01*
X372936Y427532D01*
X372913Y427482D01*
X372891Y427432D01*
Y427426D01*
X372886Y427415D01*
X372874Y427398D01*
X372863Y427371D01*
X372852Y427338D01*
X372836Y427299D01*
X372819Y427254D01*
X372802Y427204D01*
X372758Y427088D01*
X372719Y426960D01*
X372680Y426821D01*
X372641Y426677D01*
Y426672D01*
X372636Y426655D01*
X372630Y426627D01*
X372625Y426594D01*
X372614Y426549D01*
X372608Y426494D01*
X372597Y426438D01*
X372586Y426372D01*
X372575Y426300D01*
X372564Y426222D01*
X372547Y426055D01*
X372536Y425878D01*
X372530Y425695D01*
Y425689D01*
Y425678D01*
Y425661D01*
Y425639D01*
X372536Y425606D01*
Y425573D01*
X372541Y425528D01*
Y425478D01*
X372553Y425362D01*
X372569Y425229D01*
X372597Y425073D01*
X372630Y424907D01*
X372669Y424723D01*
X372719Y424524D01*
X372786Y424313D01*
X372863Y424096D01*
X372952Y423874D01*
X373052Y423641D01*
X373174Y423408D01*
X373313Y423175D01*
X372974D01*
X372969Y423181D01*
X372958Y423197D01*
X372936Y423225D01*
X372908Y423264D01*
X372874Y423308D01*
X372836Y423364D01*
X372791Y423430D01*
X372747Y423502D01*
X372691Y423586D01*
X372641Y423674D01*
X372586Y423769D01*
X372530Y423869D01*
X372475Y423974D01*
X372419Y424085D01*
X372314Y424324D01*
X372308Y424329D01*
X372303Y424352D01*
X372292Y424390D01*
X372275Y424440D01*
X372253Y424502D01*
X372231Y424568D01*
X372208Y424651D01*
X372181Y424746D01*
X372159Y424840D01*
X372131Y424951D01*
X372109Y425062D01*
X372092Y425178D01*
X372059Y425434D01*
X372053Y425562D01*
X372047Y425695D01*
Y425700D01*
Y425723D01*
Y425756D01*
X372053Y425800D01*
Y425856D01*
X372059Y425922D01*
X372064Y425994D01*
X372075Y426078D01*
X372081Y426166D01*
X372097Y426261D01*
X372131Y426461D01*
X372181Y426672D01*
X372247Y426888D01*
X372253Y426894D01*
X372258Y426916D01*
X372270Y426955D01*
X372292Y427004D01*
X372314Y427060D01*
X372347Y427132D01*
X372386Y427215D01*
X372425Y427304D01*
X372475Y427398D01*
X372525Y427504D01*
X372586Y427615D01*
X372652Y427726D01*
X372725Y427848D01*
X372802Y427970D01*
X372886Y428092D01*
X372974Y428214D01*
X373313D01*
X373307Y428209D01*
D02*
G37*
G36*
X326416Y234036D02*
X326405Y234031D01*
X326383Y234014D01*
X326344Y233981D01*
X326294Y233937D01*
X326233Y233876D01*
X326177Y233798D01*
X326116Y233709D01*
X326055Y233604D01*
Y233598D01*
X326050Y233587D01*
X326039Y233570D01*
X326027Y233548D01*
X326016Y233515D01*
X325994Y233476D01*
X325977Y233432D01*
X325950Y233376D01*
X325927Y233315D01*
X325894Y233248D01*
X325861Y233176D01*
X325828Y233093D01*
X325789Y233004D01*
X325750Y232910D01*
X325706Y232804D01*
X325661Y232693D01*
X325667Y232688D01*
X325678Y232677D01*
X325694Y232660D01*
X325722Y232638D01*
X325750Y232610D01*
X325783Y232571D01*
X325861Y232494D01*
X325944Y232399D01*
X326033Y232294D01*
X326111Y232183D01*
X326183Y232077D01*
Y232072D01*
X326188Y232066D01*
X326199Y232050D01*
X326211Y232027D01*
X326233Y231972D01*
X326266Y231894D01*
X326294Y231805D01*
X326322Y231700D01*
X326333Y231589D01*
X326338Y231467D01*
Y231461D01*
Y231450D01*
Y231434D01*
X326333Y231411D01*
X326327Y231356D01*
X326316Y231284D01*
X326294Y231201D01*
X326260Y231117D01*
X326216Y231034D01*
X326161Y230956D01*
X326155Y230951D01*
X326127Y230928D01*
X326089Y230895D01*
X326039Y230856D01*
X325966Y230812D01*
X325878Y230768D01*
X325778Y230729D01*
X325661Y230701D01*
Y230707D01*
Y230712D01*
X325656Y230745D01*
X325639Y230795D01*
X325611Y230851D01*
X325589Y230884D01*
X325556Y230917D01*
X325522Y230951D01*
X325483Y230984D01*
X325434Y231017D01*
X325378Y231045D01*
X325311Y231073D01*
X325239Y231101D01*
Y231184D01*
X325256D01*
X325278Y231178D01*
X325300D01*
X325367Y231173D01*
X325450Y231167D01*
X325539Y231156D01*
X325633D01*
X325722Y231151D01*
X325800D01*
X325822Y231156D01*
X325850Y231162D01*
X325889Y231178D01*
X325922Y231201D01*
X325961Y231228D01*
X325989Y231273D01*
X326005Y231328D01*
Y231334D01*
X326011Y231356D01*
X326016Y231389D01*
X326022Y231434D01*
X326027Y231484D01*
X326033Y231534D01*
X326039Y231645D01*
Y231656D01*
Y231683D01*
X326033Y231722D01*
X326027Y231778D01*
X326022Y231839D01*
X326005Y231905D01*
X325989Y231983D01*
X325961Y232055D01*
X325955Y232066D01*
X325944Y232094D01*
X325922Y232144D01*
X325883Y232211D01*
X325828Y232299D01*
X325761Y232410D01*
X325717Y232471D01*
X325667Y232538D01*
X325617Y232616D01*
X325556Y232693D01*
X325911Y233976D01*
X325134D01*
Y229802D01*
X324840Y229630D01*
Y229641D01*
Y229669D01*
Y229724D01*
X324845Y229796D01*
Y229885D01*
Y230002D01*
X324851Y230135D01*
Y230285D01*
Y230462D01*
X324856Y230657D01*
Y230868D01*
Y231106D01*
X324862Y231361D01*
Y231639D01*
Y231933D01*
Y232249D01*
Y232255D01*
Y232272D01*
Y232294D01*
Y232327D01*
Y232366D01*
Y232410D01*
Y232466D01*
Y232527D01*
Y232660D01*
Y232816D01*
Y232982D01*
Y233160D01*
X324856Y233337D01*
Y233515D01*
Y233681D01*
X324851Y233842D01*
Y233987D01*
Y234053D01*
X324845Y234114D01*
Y234170D01*
Y234214D01*
X324840Y234253D01*
Y234286D01*
X325134Y234098D01*
X325911D01*
X326061Y234309D01*
X326416Y234036D01*
D02*
G37*
G36*
X328869Y234014D02*
X328680Y233842D01*
Y230090D01*
X328786D01*
X329080Y230379D01*
X329457Y229963D01*
X326516D01*
X326460Y229957D01*
X326394D01*
X326322Y229946D01*
X326233Y229935D01*
X326150Y229924D01*
X326061Y229902D01*
X325872Y230090D01*
X326771D01*
Y230102D01*
Y230129D01*
Y230179D01*
Y230246D01*
Y230329D01*
Y230423D01*
Y230535D01*
Y230662D01*
Y230795D01*
Y230940D01*
Y231095D01*
Y231256D01*
Y231422D01*
Y231594D01*
Y231955D01*
X326765Y232316D01*
Y232682D01*
Y232854D01*
Y233026D01*
Y233193D01*
X326760Y233354D01*
Y233504D01*
Y233648D01*
Y233781D01*
X326754Y233903D01*
Y234009D01*
Y234103D01*
X326749Y234181D01*
Y234242D01*
X327043Y234053D01*
X328364D01*
X328531Y234286D01*
X328869Y234014D01*
D02*
G37*
G36*
X314250Y234425D02*
X314272Y234419D01*
X314300Y234403D01*
X314339Y234381D01*
X314384Y234358D01*
X314433Y234331D01*
X314545Y234264D01*
X314661Y234192D01*
X314711Y234159D01*
X314761Y234120D01*
X314805Y234081D01*
X314844Y234048D01*
X314866Y234014D01*
X314883Y233987D01*
Y233981D01*
X314894Y233964D01*
X314900Y233937D01*
X314911Y233909D01*
X314927Y233837D01*
X314938Y233809D01*
Y233781D01*
Y233776D01*
Y233765D01*
X314933Y233742D01*
X314927Y233720D01*
X314905Y233654D01*
X314889Y233620D01*
X314861Y233587D01*
X314855Y233581D01*
X314850Y233576D01*
X314822Y233548D01*
X314783Y233515D01*
X314766Y233509D01*
X314750Y233504D01*
X314744D01*
X314739Y233509D01*
X314728Y233515D01*
X314711Y233531D01*
X314689Y233554D01*
X314667Y233593D01*
X314644Y233643D01*
X314622Y233715D01*
Y233720D01*
X314617Y233726D01*
X314611Y233742D01*
X314600Y233765D01*
X314572Y233820D01*
X314528Y233898D01*
X314472Y233992D01*
X314400Y234103D01*
X314311Y234225D01*
X314200Y234364D01*
X314245Y234431D01*
X314250Y234425D01*
D02*
G37*
G36*
X311031Y234281D02*
X310865Y234131D01*
Y233398D01*
X312141D01*
X312352Y233609D01*
X312646Y233315D01*
X312458Y233171D01*
Y233165D01*
Y233154D01*
Y233132D01*
Y233099D01*
Y233060D01*
Y233015D01*
Y232960D01*
Y232904D01*
Y232771D01*
Y232621D01*
Y232455D01*
X312463Y232283D01*
Y231922D01*
Y231750D01*
X312469Y231583D01*
Y231428D01*
X312474Y231289D01*
Y231228D01*
Y231173D01*
X312480Y231123D01*
Y231078D01*
X312163Y230928D01*
Y231184D01*
X310865D01*
Y230235D01*
Y230224D01*
X310870Y230202D01*
X310876Y230163D01*
X310898Y230124D01*
X310926Y230085D01*
X310970Y230046D01*
X311031Y230024D01*
X311070Y230013D01*
X312569D01*
X312591Y230018D01*
X312624Y230029D01*
X312657Y230046D01*
X312696Y230074D01*
X312730Y230113D01*
X312757Y230163D01*
X312768Y230229D01*
Y230240D01*
Y230251D01*
X312774Y230268D01*
Y230296D01*
X312780Y230324D01*
Y230357D01*
X312785Y230401D01*
Y230451D01*
X312791Y230512D01*
Y230579D01*
X312796Y230651D01*
X312802Y230734D01*
X312807Y230823D01*
Y230923D01*
X312813Y231034D01*
X312918D01*
Y231028D01*
Y231012D01*
Y230984D01*
Y230951D01*
Y230906D01*
X312924Y230862D01*
X312929Y230751D01*
X312935Y230634D01*
X312952Y230523D01*
X312957Y230468D01*
X312968Y230418D01*
X312979Y230379D01*
X312990Y230340D01*
X312996Y230335D01*
X313001Y230312D01*
X313024Y230285D01*
X313046Y230246D01*
X313079Y230202D01*
X313113Y230157D01*
X313162Y230113D01*
X313212Y230074D01*
X313207Y230068D01*
X313196Y230046D01*
X313179Y230018D01*
X313157Y229979D01*
X313124Y229941D01*
X313090Y229902D01*
X313046Y229869D01*
X313001Y229835D01*
X312996Y229830D01*
X312979Y229824D01*
X312952Y229813D01*
X312907Y229796D01*
X312857Y229780D01*
X312796Y229769D01*
X312730Y229763D01*
X312646Y229757D01*
X310993D01*
X310970Y229763D01*
X310943D01*
X310870Y229780D01*
X310793Y229807D01*
X310748Y229830D01*
X310709Y229857D01*
X310671Y229891D01*
X310637Y229935D01*
X310610Y229979D01*
X310587Y230035D01*
X310576Y230102D01*
X310571Y230174D01*
Y231184D01*
X309311D01*
Y230890D01*
X309000Y230740D01*
Y230751D01*
Y230773D01*
Y230812D01*
X309005Y230862D01*
Y230928D01*
Y231006D01*
Y231095D01*
X309011Y231189D01*
Y231300D01*
Y231411D01*
Y231534D01*
X309017Y231661D01*
Y231927D01*
Y232205D01*
Y232216D01*
Y232238D01*
Y232277D01*
Y232333D01*
Y232399D01*
Y232477D01*
Y232566D01*
Y232660D01*
X309011Y232766D01*
Y232877D01*
Y233104D01*
X309005Y233348D01*
X309000Y233587D01*
X309333Y233398D01*
X310571D01*
Y233404D01*
Y233426D01*
Y233459D01*
Y233504D01*
Y233554D01*
Y233620D01*
Y233687D01*
Y233765D01*
X310565Y233848D01*
Y233937D01*
X310560Y234125D01*
X310554Y234320D01*
X310548Y234514D01*
X311031Y234281D01*
D02*
G37*
G36*
X321943D02*
X321732Y234136D01*
Y234131D01*
Y234120D01*
Y234098D01*
Y234064D01*
Y234025D01*
Y233981D01*
Y233931D01*
Y233876D01*
X321726Y233748D01*
Y233609D01*
X321721Y233454D01*
X321715Y233298D01*
X322992D01*
X323180Y233531D01*
X323535Y233260D01*
X323347Y233110D01*
Y230301D01*
Y230296D01*
Y230279D01*
Y230257D01*
X323341Y230224D01*
X323336Y230185D01*
X323324Y230140D01*
X323313Y230090D01*
X323297Y230041D01*
X323269Y229985D01*
X323241Y229929D01*
X323202Y229874D01*
X323152Y229819D01*
X323097Y229769D01*
X323030Y229719D01*
X322953Y229674D01*
X322864Y229635D01*
Y229641D01*
Y229652D01*
X322858Y229669D01*
X322847Y229691D01*
X322836Y229719D01*
X322819Y229746D01*
X322797Y229785D01*
X322764Y229819D01*
X322725Y229857D01*
X322675Y229902D01*
X322614Y229941D01*
X322536Y229979D01*
X322453Y230018D01*
X322353Y230057D01*
X322237Y230090D01*
X322109Y230118D01*
Y230196D01*
X322131D01*
X322165Y230190D01*
X322203D01*
X322248Y230185D01*
X322298D01*
X322420Y230179D01*
X322548Y230168D01*
X322670Y230163D01*
X322731D01*
X322786Y230157D01*
X322886D01*
X322908Y230163D01*
X322936Y230179D01*
X322975Y230207D01*
X323008Y230251D01*
X323019Y230279D01*
X323036Y230318D01*
X323047Y230362D01*
X323053Y230412D01*
Y230468D01*
Y230535D01*
Y233176D01*
X321715D01*
Y233171D01*
Y233154D01*
X321709Y233132D01*
Y233104D01*
X321704Y233065D01*
X321698Y233021D01*
X321682Y232915D01*
X321665Y232793D01*
X321643Y232660D01*
X321615Y232527D01*
X321587Y232399D01*
X321593D01*
X321599Y232394D01*
X321615Y232383D01*
X321637Y232371D01*
X321693Y232338D01*
X321760Y232299D01*
X321848Y232249D01*
X321943Y232188D01*
X322042Y232127D01*
X322148Y232061D01*
X322253Y231994D01*
X322353Y231927D01*
X322453Y231861D01*
X322536Y231794D01*
X322614Y231733D01*
X322670Y231683D01*
X322714Y231639D01*
X322725Y231617D01*
X322731Y231600D01*
Y231594D01*
X322736Y231572D01*
X322742Y231545D01*
X322747Y231506D01*
X322758Y231417D01*
X322764Y231372D01*
Y231328D01*
Y231323D01*
Y231300D01*
X322758Y231273D01*
Y231234D01*
X322736Y231151D01*
X322720Y231106D01*
X322697Y231067D01*
Y231062D01*
X322686Y231051D01*
X322664Y231023D01*
X322636Y230990D01*
X322625Y230978D01*
X322614Y230973D01*
X322603Y230978D01*
X322592Y230984D01*
X322575Y230995D01*
X322559Y231017D01*
X322536Y231051D01*
X322509Y231101D01*
X322486Y231162D01*
Y231167D01*
X322481Y231173D01*
X322475Y231189D01*
X322464Y231212D01*
X322436Y231261D01*
X322392Y231334D01*
X322337Y231422D01*
X322270Y231522D01*
X322192Y231628D01*
X322098Y231739D01*
X322093Y231744D01*
X322087Y231750D01*
X322070Y231767D01*
X322054Y231789D01*
X321998Y231850D01*
X321932Y231922D01*
X321848Y232011D01*
X321754Y232100D01*
X321654Y232200D01*
X321543Y232294D01*
Y232288D01*
X321532Y232272D01*
X321521Y232244D01*
X321504Y232205D01*
X321482Y232161D01*
X321460Y232105D01*
X321427Y232050D01*
X321393Y231983D01*
X321304Y231844D01*
X321199Y231694D01*
X321077Y231545D01*
X320938Y231400D01*
X320933Y231395D01*
X320921Y231384D01*
X320899Y231367D01*
X320866Y231339D01*
X320833Y231311D01*
X320788Y231273D01*
X320738Y231234D01*
X320683Y231195D01*
X320555Y231106D01*
X320405Y231012D01*
X320250Y230923D01*
X320078Y230845D01*
Y229763D01*
X319761Y229591D01*
Y229596D01*
Y229613D01*
Y229641D01*
X319767Y229680D01*
Y229730D01*
Y229780D01*
X319773Y229841D01*
Y229907D01*
X319778Y230052D01*
Y230202D01*
X319784Y230351D01*
Y230490D01*
Y232521D01*
Y232527D01*
Y232555D01*
Y232588D01*
Y232632D01*
Y232693D01*
Y232754D01*
Y232827D01*
Y232904D01*
X319778Y233065D01*
X319773Y233232D01*
Y233310D01*
X319767Y233382D01*
Y233448D01*
X319761Y233509D01*
X320078Y233298D01*
X321399D01*
Y233304D01*
Y233326D01*
Y233359D01*
X321404Y233398D01*
Y233454D01*
Y233520D01*
Y233593D01*
X321410Y233676D01*
Y233765D01*
Y233859D01*
Y233959D01*
Y234070D01*
X321404Y234297D01*
X321399Y234536D01*
X321943Y234281D01*
D02*
G37*
G36*
X317114Y234220D02*
X316948Y234070D01*
Y232921D01*
X317747Y233126D01*
X317913Y233382D01*
X318230Y233126D01*
X318080Y232960D01*
Y232954D01*
Y232949D01*
Y232915D01*
Y232866D01*
X318074Y232793D01*
Y232716D01*
Y232621D01*
X318069Y232516D01*
Y232410D01*
X318063Y232188D01*
X318058Y232077D01*
Y231972D01*
X318052Y231872D01*
Y231778D01*
X318046Y231700D01*
Y231639D01*
Y231633D01*
Y231628D01*
Y231589D01*
X318041Y231539D01*
X318030Y231478D01*
X318019Y231406D01*
X317997Y231339D01*
X317969Y231273D01*
X317935Y231217D01*
X317930Y231212D01*
X317913Y231195D01*
X317891Y231173D01*
X317858Y231145D01*
X317813Y231106D01*
X317758Y231067D01*
X317691Y231028D01*
X317619Y230990D01*
Y230995D01*
X317614Y231001D01*
X317591Y231034D01*
X317558Y231084D01*
X317503Y231139D01*
X317430Y231206D01*
X317386Y231239D01*
X317336Y231273D01*
X317281Y231306D01*
X317219Y231334D01*
X317147Y231361D01*
X317075Y231389D01*
Y231472D01*
X317092D01*
X317114Y231467D01*
X317147Y231461D01*
X317181D01*
X317219Y231456D01*
X317308Y231445D01*
X317403Y231434D01*
X317497Y231422D01*
X317575Y231417D01*
X317636D01*
X317647Y231422D01*
X317669Y231428D01*
X317691Y231445D01*
X317713Y231461D01*
X317736Y231495D01*
X317752Y231534D01*
X317763Y231583D01*
Y231594D01*
Y231606D01*
X317769Y231628D01*
Y231661D01*
X317775Y231700D01*
Y231755D01*
X317780Y231822D01*
Y231905D01*
X317786Y232005D01*
Y232122D01*
X317791Y232260D01*
X317797Y232416D01*
Y232499D01*
X317802Y232593D01*
Y232693D01*
Y232793D01*
X317808Y232904D01*
Y233021D01*
X316948Y232816D01*
Y231472D01*
Y231467D01*
Y231456D01*
Y231439D01*
Y231417D01*
Y231389D01*
Y231350D01*
X316953Y231267D01*
Y231162D01*
X316959Y231045D01*
X316964Y230917D01*
X316970Y230779D01*
X316653Y230634D01*
Y230640D01*
Y230657D01*
Y230679D01*
X316659Y230712D01*
Y230756D01*
Y230801D01*
X316665Y230856D01*
Y230917D01*
X316670Y231056D01*
Y231206D01*
X316676Y231367D01*
Y231534D01*
Y232732D01*
X315982Y232560D01*
Y230468D01*
Y230462D01*
Y230457D01*
X315987Y230423D01*
X315993Y230374D01*
X316010Y230324D01*
X316032Y230268D01*
X316071Y230218D01*
X316121Y230185D01*
X316154Y230179D01*
X316193Y230174D01*
X317947D01*
X317974Y230179D01*
X318008Y230185D01*
X318052Y230207D01*
X318102Y230235D01*
X318146Y230279D01*
X318180Y230340D01*
X318191Y230379D01*
X318202Y230423D01*
Y230429D01*
Y230435D01*
X318208Y230451D01*
Y230473D01*
X318213Y230496D01*
X318219Y230529D01*
Y230568D01*
X318224Y230612D01*
X318230Y230662D01*
X318235Y230712D01*
X318241Y230840D01*
X318246Y230990D01*
Y231156D01*
X318352D01*
Y231151D01*
Y231134D01*
Y231112D01*
X318357Y231078D01*
Y231040D01*
X318363Y230995D01*
X318368Y230901D01*
X318379Y230795D01*
X318396Y230690D01*
X318413Y230601D01*
X318424Y230562D01*
X318435Y230529D01*
X318441Y230523D01*
X318446Y230507D01*
X318463Y230479D01*
X318485Y230446D01*
X318518Y230407D01*
X318551Y230362D01*
X318596Y230318D01*
X318646Y230279D01*
Y230274D01*
X318640Y230262D01*
X318629Y230246D01*
X318613Y230224D01*
X318574Y230163D01*
X318513Y230096D01*
X318429Y230029D01*
X318330Y229974D01*
X318268Y229952D01*
X318202Y229935D01*
X318135Y229924D01*
X316093D01*
X316071Y229929D01*
X316049D01*
X315982Y229946D01*
X315910Y229979D01*
X315871Y230002D01*
X315838Y230029D01*
X315804Y230068D01*
X315771Y230107D01*
X315749Y230157D01*
X315727Y230218D01*
X315716Y230285D01*
X315710Y230362D01*
Y232499D01*
X315355Y232416D01*
X315271Y232333D01*
X315127Y232477D01*
X315710Y232605D01*
Y232616D01*
Y232638D01*
Y232682D01*
Y232738D01*
Y232804D01*
Y232877D01*
Y232960D01*
Y233049D01*
X315704Y233226D01*
Y233409D01*
X315699Y233493D01*
Y233570D01*
Y233637D01*
X315693Y233692D01*
X316132Y233465D01*
X315982Y233337D01*
Y232666D01*
X316676Y232832D01*
Y232838D01*
Y232849D01*
Y232866D01*
Y232888D01*
Y232915D01*
Y232949D01*
Y233032D01*
Y233132D01*
Y233243D01*
Y233365D01*
Y233498D01*
X316670Y233765D01*
Y233898D01*
X316665Y234031D01*
Y234148D01*
X316659Y234259D01*
Y234353D01*
X316653Y234431D01*
X317114Y234220D01*
D02*
G37*
G36*
X313795Y233226D02*
X313817Y233215D01*
X313851Y233193D01*
X313901Y233171D01*
X313956Y233137D01*
X314017Y233099D01*
X314150Y233015D01*
X314284Y232915D01*
X314345Y232866D01*
X314400Y232810D01*
X314450Y232760D01*
X314483Y232704D01*
X314511Y232660D01*
X314517Y232610D01*
Y232599D01*
Y232571D01*
X314511Y232533D01*
X314500Y232483D01*
X314489Y232427D01*
X314467Y232371D01*
X314439Y232327D01*
X314400Y232288D01*
X314395Y232283D01*
X314384D01*
X314361Y232277D01*
X314334Y232283D01*
X314300Y232305D01*
X314284Y232322D01*
X314267Y232344D01*
X314250Y232371D01*
X314234Y232405D01*
X314217Y232449D01*
X314200Y232499D01*
Y232505D01*
X314195Y232510D01*
X314189Y232527D01*
X314178Y232549D01*
X314150Y232605D01*
X314106Y232688D01*
X314039Y232782D01*
X313962Y232899D01*
X313862Y233026D01*
X313806Y233099D01*
X313740Y233171D01*
X313784Y233232D01*
X313795Y233226D01*
D02*
G37*
G36*
X315355Y233593D02*
Y233587D01*
X315349Y233570D01*
X315338Y233537D01*
X315327Y233498D01*
X315310Y233448D01*
X315294Y233387D01*
X315271Y233315D01*
X315249Y233243D01*
X315222Y233160D01*
X315199Y233071D01*
X315138Y232877D01*
X315077Y232666D01*
X315011Y232449D01*
X314944Y232227D01*
X314877Y232005D01*
X314816Y231800D01*
X314755Y231606D01*
X314733Y231517D01*
X314705Y231434D01*
X314683Y231356D01*
X314667Y231289D01*
X314644Y231228D01*
X314633Y231178D01*
X314622Y231134D01*
X314611Y231106D01*
Y231101D01*
X314605Y231095D01*
Y231078D01*
X314600Y231062D01*
X314589Y231006D01*
X314578Y230928D01*
X314567Y230834D01*
X314556Y230729D01*
X314550Y230601D01*
Y230468D01*
Y230462D01*
Y230451D01*
Y230435D01*
Y230407D01*
X314556Y230340D01*
Y230262D01*
X314561Y230179D01*
X314567Y230096D01*
X314572Y230013D01*
X314578Y229952D01*
Y229946D01*
Y229941D01*
X314567Y229907D01*
X314550Y229891D01*
X314533Y229880D01*
X314506Y229869D01*
X314472Y229863D01*
X314439D01*
X314417Y229869D01*
X314384Y229874D01*
X314350Y229880D01*
X314261Y229907D01*
X314256D01*
X314245Y229918D01*
X314223Y229929D01*
X314200Y229946D01*
X314178Y229974D01*
X314156Y230007D01*
X314145Y230046D01*
X314139Y230096D01*
Y230102D01*
Y230113D01*
X314145Y230140D01*
Y230174D01*
X314156Y230218D01*
X314167Y230268D01*
X314178Y230335D01*
X314200Y230407D01*
X314206Y230418D01*
X314212Y230440D01*
X314223Y230479D01*
X314234Y230523D01*
X314245Y230579D01*
X314256Y230634D01*
X314267Y230690D01*
Y230740D01*
Y230745D01*
Y230762D01*
X314261Y230790D01*
X314256Y230823D01*
X314245Y230862D01*
X314228Y230901D01*
X314206Y230940D01*
X314173Y230973D01*
X314167Y230978D01*
X314150Y230990D01*
X314128Y231006D01*
X314084Y231023D01*
X314028Y231051D01*
X313962Y231078D01*
X313873Y231106D01*
X313762Y231139D01*
Y231223D01*
X313778D01*
X313795Y231217D01*
X313823D01*
X313884Y231212D01*
X313962Y231201D01*
X314045Y231195D01*
X314123Y231189D01*
X314239D01*
X314250Y231195D01*
X314272Y231201D01*
X314295Y231217D01*
X314328Y231239D01*
X314361Y231273D01*
X314400Y231317D01*
X314444Y231378D01*
X314450Y231389D01*
X314461Y231406D01*
X314472Y231439D01*
X314494Y231484D01*
X314517Y231545D01*
X314550Y231622D01*
X314572Y231672D01*
X314594Y231722D01*
X314617Y231783D01*
X314639Y231850D01*
X314667Y231922D01*
X314700Y232000D01*
X314728Y232088D01*
X314766Y232183D01*
X314805Y232288D01*
X314844Y232399D01*
X314883Y232516D01*
X314933Y232644D01*
X314983Y232782D01*
X315033Y232927D01*
X315088Y233082D01*
X315144Y233248D01*
X315205Y233426D01*
X315271Y233615D01*
X315355Y233593D01*
D02*
G37*
G36*
X332998Y232782D02*
X333015Y232771D01*
X333037Y232754D01*
X333070Y232738D01*
X333109Y232710D01*
X333192Y232655D01*
X333298Y232582D01*
X333414Y232505D01*
X333537Y232421D01*
X333670Y232327D01*
X333803Y232238D01*
X333931Y232144D01*
X334058Y232050D01*
X334169Y231966D01*
X334275Y231883D01*
X334358Y231811D01*
X334391Y231783D01*
X334419Y231750D01*
X334441Y231728D01*
X334458Y231705D01*
X334463Y231694D01*
X334480Y231672D01*
X334502Y231633D01*
X334530Y231583D01*
X334552Y231528D01*
X334574Y231472D01*
X334591Y231417D01*
X334597Y231367D01*
Y231361D01*
Y231350D01*
X334591Y231334D01*
Y231311D01*
X334569Y231250D01*
X334552Y231212D01*
X334530Y231167D01*
Y231162D01*
X334519Y231151D01*
X334497Y231112D01*
X334463Y231073D01*
X334447Y231062D01*
X334430Y231056D01*
X334424D01*
X334414Y231062D01*
X334397Y231073D01*
X334369Y231101D01*
X334330Y231139D01*
X334308Y231167D01*
X334286Y231195D01*
X334264Y231234D01*
X334236Y231278D01*
X334208Y231328D01*
X334175Y231389D01*
X334169Y231395D01*
X334164Y231411D01*
X334147Y231434D01*
X334119Y231472D01*
X334086Y231522D01*
X334042Y231578D01*
X333992Y231645D01*
X333925Y231722D01*
X333847Y231811D01*
X333759Y231911D01*
X333659Y232022D01*
X333542Y232144D01*
X333409Y232277D01*
X333265Y232416D01*
X333098Y232571D01*
X332921Y232732D01*
X332982Y232793D01*
X332987D01*
X332998Y232782D01*
D02*
G37*
G36*
X334724Y233992D02*
X332732D01*
Y233987D01*
X332721Y233976D01*
X332715Y233953D01*
X332698Y233931D01*
X332682Y233892D01*
X332660Y233853D01*
X332637Y233803D01*
X332610Y233753D01*
X332576Y233692D01*
X332549Y233626D01*
X332476Y233482D01*
X332393Y233326D01*
X332310Y233149D01*
X332665Y232943D01*
X332476Y232793D01*
Y230784D01*
Y230779D01*
Y230756D01*
Y230723D01*
Y230679D01*
Y230629D01*
Y230568D01*
Y230501D01*
X332482Y230429D01*
Y230274D01*
X332488Y230113D01*
X332493Y229957D01*
Y229891D01*
X332499Y229824D01*
X332143Y229674D01*
Y229685D01*
Y229708D01*
Y229752D01*
X332149Y229807D01*
Y229874D01*
Y229957D01*
X332155Y230046D01*
Y230146D01*
Y230251D01*
X332160Y230362D01*
Y230590D01*
X332166Y230829D01*
Y231056D01*
Y232893D01*
X332155Y232882D01*
X332143Y232866D01*
X332127Y232843D01*
X332105Y232810D01*
X332083Y232777D01*
X332016Y232688D01*
X331933Y232577D01*
X331827Y232455D01*
X331711Y232316D01*
X331577Y232166D01*
X331428Y232005D01*
X331267Y231839D01*
X331083Y231667D01*
X330895Y231495D01*
X330684Y231323D01*
X330462Y231156D01*
X330229Y230995D01*
X329984Y230845D01*
X329940Y230928D01*
X329946Y230934D01*
X329974Y230951D01*
X330007Y230978D01*
X330057Y231017D01*
X330123Y231067D01*
X330195Y231128D01*
X330279Y231201D01*
X330367Y231278D01*
X330467Y231361D01*
X330573Y231461D01*
X330678Y231561D01*
X330795Y231678D01*
X330911Y231794D01*
X331033Y231922D01*
X331150Y232055D01*
X331272Y232194D01*
X331278Y232205D01*
X331300Y232227D01*
X331333Y232272D01*
X331378Y232333D01*
X331433Y232405D01*
X331494Y232494D01*
X331566Y232593D01*
X331644Y232704D01*
X331722Y232832D01*
X331805Y232971D01*
X331894Y233115D01*
X331977Y233276D01*
X332066Y233443D01*
X332149Y233620D01*
X332232Y233803D01*
X332310Y233992D01*
X330634D01*
X330578Y233987D01*
X330512D01*
X330434Y233976D01*
X330351Y233964D01*
X330262Y233948D01*
X330173Y233926D01*
X329984Y234114D01*
X333969D01*
X334280Y234431D01*
X334724Y233992D01*
D02*
G37*
G36*
X313151Y228379D02*
X312979Y228257D01*
Y224627D01*
Y224622D01*
Y224605D01*
Y224583D01*
X312974Y224544D01*
X312968Y224505D01*
X312957Y224461D01*
X312946Y224411D01*
X312924Y224355D01*
X312902Y224300D01*
X312868Y224238D01*
X312829Y224183D01*
X312780Y224128D01*
X312719Y224072D01*
X312652Y224022D01*
X312574Y223978D01*
X312480Y223939D01*
Y223944D01*
Y223950D01*
X312469Y223983D01*
X312458Y224011D01*
X312441Y224039D01*
X312419Y224066D01*
X312391Y224105D01*
X312352Y224139D01*
X312308Y224178D01*
X312247Y224216D01*
X312180Y224261D01*
X312097Y224300D01*
X312003Y224344D01*
X311892Y224383D01*
X311764Y224422D01*
Y224522D01*
X311786D01*
X311808Y224516D01*
X311836Y224511D01*
X311875Y224505D01*
X311919Y224499D01*
X312014Y224488D01*
X312125Y224477D01*
X312241Y224466D01*
X312347Y224455D01*
X312446Y224449D01*
X312458D01*
X312485Y224455D01*
X312524Y224461D01*
X312569Y224483D01*
X312613Y224522D01*
X312635Y224544D01*
X312652Y224571D01*
X312669Y224610D01*
X312680Y224649D01*
X312691Y224699D01*
Y224755D01*
Y228323D01*
X309333D01*
Y224066D01*
X309000Y223939D01*
Y223944D01*
Y223972D01*
X309005Y224006D01*
Y224055D01*
X309011Y224111D01*
Y224178D01*
X309017Y224255D01*
X309022Y224339D01*
X309028Y224511D01*
X309033Y224699D01*
X309039Y224882D01*
Y224966D01*
Y225049D01*
Y227691D01*
Y227696D01*
Y227713D01*
Y227735D01*
Y227768D01*
Y227813D01*
Y227863D01*
Y227918D01*
Y227985D01*
X309033Y228051D01*
Y228129D01*
X309028Y228290D01*
X309022Y228468D01*
X309017Y228656D01*
X309333Y228445D01*
X312669D01*
X312813Y228656D01*
X313151Y228379D01*
D02*
G37*
G36*
X318185Y228362D02*
X316509D01*
Y227963D01*
X318124D01*
X318313Y228173D01*
X318668Y227796D01*
X318646D01*
X318618Y227790D01*
X318585D01*
X318541Y227779D01*
X318496Y227768D01*
X318441Y227752D01*
X318385Y227730D01*
X318379Y227724D01*
X318357Y227713D01*
X318324Y227691D01*
X318274Y227657D01*
X318213Y227602D01*
X318141Y227530D01*
X318096Y227485D01*
X318052Y227435D01*
X318008Y227374D01*
X317958Y227313D01*
X317891Y227358D01*
X318146Y227840D01*
X316509D01*
Y227829D01*
Y227796D01*
Y227746D01*
Y227680D01*
Y227602D01*
Y227519D01*
Y227424D01*
X316515Y227324D01*
Y227130D01*
Y227036D01*
X316520Y226953D01*
Y226880D01*
X316526Y226819D01*
Y226775D01*
X316531Y226747D01*
X316215Y226620D01*
Y226625D01*
Y226647D01*
Y226680D01*
X316221Y226719D01*
Y226775D01*
Y226841D01*
X316226Y226914D01*
Y226991D01*
Y227080D01*
X316232Y227174D01*
Y227274D01*
Y227385D01*
X316237Y227607D01*
Y227840D01*
X314578D01*
Y227829D01*
X314583Y227807D01*
X314589Y227763D01*
X314594Y227713D01*
Y227657D01*
X314589Y227596D01*
X314578Y227530D01*
X314556Y227469D01*
Y227463D01*
X314545Y227447D01*
X314528Y227419D01*
X314506Y227391D01*
X314478Y227358D01*
X314439Y227335D01*
X314395Y227313D01*
X314345Y227302D01*
X314267D01*
X314212Y227308D01*
X314184Y227319D01*
X314167Y227330D01*
X314161Y227335D01*
X314156Y227358D01*
X314145Y227374D01*
X314139Y227396D01*
Y227402D01*
Y227408D01*
X314150Y227441D01*
X314167Y227469D01*
X314184Y227496D01*
X314212Y227530D01*
X314245Y227563D01*
X314250Y227569D01*
X314267Y227591D01*
X314295Y227635D01*
X314328Y227691D01*
X314367Y227774D01*
X314389Y227818D01*
X314411Y227874D01*
X314433Y227935D01*
X314456Y228001D01*
X314472Y228074D01*
X314494Y228151D01*
X314561D01*
X314578Y227963D01*
X316237D01*
Y228362D01*
X315183D01*
X315144Y228357D01*
X315099D01*
X315038Y228346D01*
X314972Y228334D01*
X314894Y228318D01*
X314811Y228296D01*
X314622Y228484D01*
X317514D01*
X317786Y228762D01*
X318185Y228362D01*
D02*
G37*
G36*
X324002Y228279D02*
X321859D01*
Y227668D01*
X322969D01*
X323180Y227879D01*
X323497Y227585D01*
X323308Y227457D01*
Y227452D01*
Y227447D01*
Y227430D01*
Y227402D01*
Y227374D01*
Y227341D01*
Y227263D01*
Y227163D01*
Y227052D01*
Y226930D01*
X323313Y226803D01*
Y226536D01*
Y226403D01*
X323319Y226275D01*
Y226153D01*
X323324Y226042D01*
Y225942D01*
X323330Y225865D01*
X323014Y225720D01*
Y225954D01*
X321820D01*
Y225948D01*
X321815Y225920D01*
X321809Y225887D01*
X321804Y225837D01*
X321793Y225776D01*
X321782Y225709D01*
X321765Y225632D01*
X321743Y225548D01*
X321698Y225371D01*
X321632Y225193D01*
X321554Y225015D01*
X321510Y224932D01*
X321460Y224860D01*
X321465Y224855D01*
X321482Y224844D01*
X321510Y224827D01*
X321549Y224805D01*
X321593Y224777D01*
X321649Y224749D01*
X321709Y224716D01*
X321776Y224682D01*
X321848Y224649D01*
X321926Y224610D01*
X322098Y224544D01*
X322276Y224488D01*
X322370Y224466D01*
X322464Y224449D01*
X322486D01*
X322514Y224444D01*
X322548Y224438D01*
X322592Y224433D01*
X322647Y224427D01*
X322703Y224422D01*
X322769Y224416D01*
X322908Y224405D01*
X323058Y224394D01*
X323214Y224388D01*
X323369Y224383D01*
X323497D01*
X323541Y224388D01*
X323591D01*
X323702Y224394D01*
X323830Y224399D01*
X323974Y224411D01*
X324124Y224422D01*
Y224361D01*
X324118D01*
X324107Y224355D01*
X324091Y224349D01*
X324068Y224339D01*
X324013Y224316D01*
X323946Y224277D01*
X323874Y224233D01*
X323813Y224172D01*
X323791Y224139D01*
X323769Y224105D01*
X323752Y224066D01*
X323746Y224022D01*
X323708D01*
X323663Y224028D01*
X323608D01*
X323535Y224033D01*
X323452Y224039D01*
X323358Y224044D01*
X323258Y224050D01*
X323147Y224061D01*
X323036Y224072D01*
X322803Y224100D01*
X322564Y224139D01*
X322453Y224161D01*
X322342Y224183D01*
X322337D01*
X322314Y224189D01*
X322287Y224200D01*
X322248Y224211D01*
X322198Y224227D01*
X322137Y224244D01*
X322076Y224266D01*
X322004Y224294D01*
X321843Y224366D01*
X321671Y224455D01*
X321493Y224560D01*
X321404Y224622D01*
X321316Y224688D01*
X321310Y224682D01*
X321304Y224677D01*
X321288Y224660D01*
X321260Y224638D01*
X321232Y224616D01*
X321193Y224588D01*
X321154Y224555D01*
X321105Y224522D01*
X321049Y224483D01*
X320988Y224444D01*
X320921Y224405D01*
X320849Y224366D01*
X320772Y224327D01*
X320688Y224283D01*
X320505Y224211D01*
X320500D01*
X320483Y224205D01*
X320455Y224194D01*
X320416Y224178D01*
X320366Y224166D01*
X320305Y224144D01*
X320239Y224128D01*
X320161Y224105D01*
X320078Y224078D01*
X319989Y224055D01*
X319889Y224033D01*
X319784Y224006D01*
X319667Y223983D01*
X319551Y223961D01*
X319301Y223917D01*
X319284Y224006D01*
X319295D01*
X319318Y224011D01*
X319356Y224022D01*
X319406Y224033D01*
X319467Y224050D01*
X319539Y224072D01*
X319623Y224094D01*
X319706Y224116D01*
X319900Y224178D01*
X320094Y224244D01*
X320294Y224316D01*
X320389Y224355D01*
X320477Y224399D01*
X320483Y224405D01*
X320500Y224411D01*
X320522Y224422D01*
X320555Y224438D01*
X320588Y224461D01*
X320633Y224483D01*
X320733Y224544D01*
X320838Y224610D01*
X320944Y224688D01*
X321043Y224771D01*
X321088Y224816D01*
X321127Y224860D01*
Y224866D01*
X321116Y224871D01*
X321099Y224882D01*
X321082Y224905D01*
X321060Y224932D01*
X321032Y224960D01*
X320999Y224999D01*
X320960Y225043D01*
X320916Y225099D01*
X320871Y225154D01*
X320827Y225221D01*
X320772Y225293D01*
X320716Y225371D01*
X320661Y225460D01*
X320600Y225554D01*
X320538Y225659D01*
X320605Y225698D01*
X320611Y225693D01*
X320622Y225676D01*
X320644Y225654D01*
X320666Y225621D01*
X320699Y225587D01*
X320738Y225543D01*
X320827Y225443D01*
X320927Y225332D01*
X321038Y225221D01*
X321149Y225115D01*
X321204Y225071D01*
X321254Y225027D01*
X321260Y225038D01*
X321271Y225060D01*
X321293Y225099D01*
X321316Y225149D01*
X321343Y225210D01*
X321371Y225276D01*
X321399Y225348D01*
X321421Y225426D01*
X321427Y225437D01*
X321432Y225465D01*
X321443Y225510D01*
X321460Y225571D01*
X321476Y225648D01*
X321493Y225737D01*
X321510Y225842D01*
X321526Y225954D01*
X320350D01*
Y225804D01*
X320039Y225676D01*
Y225682D01*
Y225698D01*
Y225720D01*
X320044Y225759D01*
Y225804D01*
Y225854D01*
Y225915D01*
X320050Y225981D01*
Y226053D01*
Y226137D01*
Y226225D01*
X320056Y226320D01*
Y226520D01*
Y226736D01*
Y226742D01*
Y226764D01*
Y226797D01*
Y226836D01*
Y226891D01*
Y226953D01*
Y227025D01*
Y227102D01*
X320050Y227186D01*
Y227274D01*
Y227463D01*
X320044Y227657D01*
X320039Y227857D01*
X320372Y227668D01*
X321565D01*
Y228279D01*
X320011D01*
X319956Y228273D01*
X319889D01*
X319817Y228262D01*
X319728Y228251D01*
X319645Y228235D01*
X319556Y228212D01*
X319367Y228401D01*
X323286D01*
X323580Y228701D01*
X324002Y228279D01*
D02*
G37*
G36*
X312352Y227419D02*
X310215D01*
X310171Y227413D01*
X310116D01*
X310054Y227402D01*
X309982Y227391D01*
X309910Y227374D01*
X309838Y227352D01*
X309649Y227541D01*
X311681D01*
X311953Y227813D01*
X312352Y227419D01*
D02*
G37*
G36*
X317725Y227313D02*
X316759D01*
Y227435D01*
X317725D01*
Y227313D01*
D02*
G37*
G36*
X315838D02*
X314894D01*
Y227435D01*
X315838D01*
Y227313D01*
D02*
G37*
G36*
X317725Y226814D02*
X316759D01*
Y226936D01*
X317725D01*
Y226814D01*
D02*
G37*
G36*
X315838D02*
X314833D01*
Y226936D01*
X315838D01*
Y226814D01*
D02*
G37*
G36*
X312058Y226686D02*
X311892Y226536D01*
Y225759D01*
Y225754D01*
Y225748D01*
Y225731D01*
Y225715D01*
Y225659D01*
X311897Y225587D01*
Y225510D01*
X311903Y225415D01*
X311908Y225315D01*
X311914Y225215D01*
X311620Y225110D01*
Y225471D01*
X310338D01*
Y225154D01*
X310049Y225049D01*
Y225054D01*
Y225065D01*
Y225088D01*
X310054Y225110D01*
Y225149D01*
Y225188D01*
Y225238D01*
X310060Y225293D01*
Y225348D01*
Y225415D01*
X310066Y225565D01*
Y225731D01*
Y225915D01*
Y225920D01*
Y225937D01*
Y225965D01*
Y226004D01*
Y226048D01*
Y226103D01*
Y226164D01*
Y226231D01*
X310060Y226381D01*
Y226547D01*
X310054Y226719D01*
X310049Y226891D01*
X310338Y226725D01*
X311597D01*
X311747Y226936D01*
X312058Y226686D01*
D02*
G37*
G36*
X318524Y226287D02*
X316365D01*
X316359Y226281D01*
X316354Y226270D01*
X316337Y226253D01*
X316315Y226231D01*
X316259Y226170D01*
X316193Y226092D01*
X316121Y226009D01*
X316054Y225920D01*
X315993Y225837D01*
X315943Y225759D01*
X317808D01*
X317935Y225948D01*
X318268Y225698D01*
X318102Y225548D01*
Y224344D01*
Y224339D01*
Y224333D01*
Y224316D01*
X318096Y224294D01*
X318080Y224238D01*
X318058Y224172D01*
X318008Y224100D01*
X317980Y224066D01*
X317941Y224033D01*
X317902Y224000D01*
X317847Y223972D01*
X317791Y223944D01*
X317725Y223922D01*
Y223928D01*
Y223933D01*
X317713Y223967D01*
X317691Y224011D01*
X317652Y224066D01*
X317625Y224100D01*
X317591Y224128D01*
X317553Y224161D01*
X317503Y224189D01*
X317453Y224216D01*
X317392Y224238D01*
X317319Y224261D01*
X317242Y224277D01*
Y224361D01*
X317286D01*
X317336Y224355D01*
X317397D01*
X317464Y224349D01*
X317536D01*
X317608Y224344D01*
X317697D01*
X317719Y224349D01*
X317752Y224361D01*
X317780Y224377D01*
X317808Y224405D01*
X317825Y224438D01*
X317830Y224483D01*
Y225637D01*
X316992D01*
Y224300D01*
X316720Y224150D01*
Y225637D01*
X315987D01*
Y224255D01*
X315710Y224111D01*
Y225637D01*
X314894D01*
Y224050D01*
X314578Y223900D01*
Y223905D01*
Y223922D01*
Y223944D01*
X314583Y223978D01*
Y224022D01*
Y224078D01*
X314589Y224133D01*
Y224205D01*
Y224277D01*
X314594Y224366D01*
Y224455D01*
Y224549D01*
X314600Y224655D01*
Y224766D01*
Y224877D01*
Y224999D01*
Y225004D01*
Y225027D01*
Y225060D01*
Y225104D01*
Y225160D01*
Y225221D01*
Y225288D01*
Y225360D01*
X314594Y225515D01*
X314589Y225665D01*
Y225737D01*
X314583Y225809D01*
Y225870D01*
X314578Y225926D01*
X314894Y225759D01*
X315838D01*
X315987Y226287D01*
X314722D01*
X314683Y226281D01*
X314633D01*
X314578Y226270D01*
X314511Y226259D01*
X314433Y226242D01*
X314350Y226220D01*
X314161Y226409D01*
X317874D01*
X318146Y226680D01*
X318524Y226287D01*
D02*
G37*
G36*
X332005Y228257D02*
X332055D01*
X332171Y228251D01*
X332293Y228235D01*
X332427Y228218D01*
X332549Y228190D01*
X332610Y228173D01*
X332660Y228157D01*
X332665D01*
X332671Y228151D01*
X332704Y228135D01*
X332754Y228112D01*
X332815Y228074D01*
X332882Y228024D01*
X332954Y227957D01*
X333020Y227879D01*
X333087Y227790D01*
Y227785D01*
X333092Y227779D01*
X333115Y227746D01*
X333137Y227691D01*
X333170Y227619D01*
X333198Y227535D01*
X333226Y227435D01*
X333242Y227330D01*
X333248Y227213D01*
Y227208D01*
Y227197D01*
Y227174D01*
X333242Y227147D01*
Y227108D01*
X333237Y227069D01*
X333215Y226975D01*
X333181Y226864D01*
X333137Y226747D01*
X333070Y226631D01*
X333026Y226575D01*
X332982Y226520D01*
X332976Y226514D01*
X332970Y226508D01*
X332954Y226492D01*
X332932Y226475D01*
X332904Y226453D01*
X332871Y226431D01*
X332826Y226403D01*
X332782Y226370D01*
X332726Y226342D01*
X332665Y226314D01*
X332599Y226281D01*
X332526Y226253D01*
X332443Y226231D01*
X332360Y226203D01*
X332266Y226187D01*
X332166Y226170D01*
X332177Y226164D01*
X332199Y226153D01*
X332232Y226131D01*
X332277Y226109D01*
X332377Y226048D01*
X332427Y226009D01*
X332471Y225976D01*
X332482Y225965D01*
X332510Y225937D01*
X332554Y225892D01*
X332610Y225837D01*
X332671Y225759D01*
X332743Y225676D01*
X332815Y225576D01*
X332893Y225465D01*
X333553Y224422D01*
X332921D01*
X332416Y225221D01*
Y225226D01*
X332404Y225238D01*
X332393Y225254D01*
X332377Y225276D01*
X332338Y225337D01*
X332288Y225415D01*
X332227Y225498D01*
X332166Y225587D01*
X332105Y225670D01*
X332049Y225748D01*
X332044Y225754D01*
X332027Y225776D01*
X331999Y225809D01*
X331960Y225848D01*
X331877Y225931D01*
X331833Y225970D01*
X331788Y226004D01*
X331783Y226009D01*
X331772Y226015D01*
X331749Y226026D01*
X331716Y226042D01*
X331683Y226059D01*
X331644Y226076D01*
X331555Y226103D01*
X331550D01*
X331539Y226109D01*
X331516D01*
X331489Y226114D01*
X331450Y226120D01*
X331405D01*
X331344Y226126D01*
X330689D01*
Y224422D01*
X330179D01*
Y228262D01*
X331960D01*
X332005Y228257D01*
D02*
G37*
G36*
X325994Y228545D02*
X325805Y228423D01*
Y227646D01*
X325994D01*
X326205Y227857D01*
X326544Y227524D01*
X325805D01*
Y226453D01*
X326438Y226725D01*
X326477Y226664D01*
X325805Y226242D01*
Y224527D01*
Y224522D01*
Y224511D01*
Y224488D01*
X325800Y224461D01*
X325794Y224433D01*
X325783Y224394D01*
X325756Y224311D01*
X325733Y224266D01*
X325706Y224216D01*
X325672Y224172D01*
X325628Y224122D01*
X325583Y224078D01*
X325528Y224039D01*
X325461Y224000D01*
X325389Y223967D01*
Y223972D01*
Y223978D01*
X325384Y224011D01*
X325361Y224055D01*
X325345Y224083D01*
X325323Y224116D01*
X325295Y224150D01*
X325256Y224183D01*
X325206Y224222D01*
X325150Y224255D01*
X325084Y224294D01*
X325001Y224333D01*
X324906Y224372D01*
X324801Y224405D01*
Y224483D01*
X324806D01*
X324823Y224477D01*
X324845D01*
X324873Y224472D01*
X324912Y224466D01*
X324956Y224461D01*
X325051Y224444D01*
X325150Y224433D01*
X325245Y224422D01*
X325334Y224416D01*
X325400D01*
X325417Y224422D01*
X325439Y224433D01*
X325467Y224449D01*
X325489Y224483D01*
X325511Y224527D01*
X325528Y224588D01*
X325533Y224627D01*
Y224672D01*
Y226098D01*
X325528Y226092D01*
X325511Y226087D01*
X325483Y226070D01*
X325445Y226048D01*
X325400Y226020D01*
X325350Y225992D01*
X325245Y225926D01*
X325134Y225854D01*
X325078Y225815D01*
X325028Y225781D01*
X324990Y225743D01*
X324951Y225715D01*
X324923Y225687D01*
X324906Y225659D01*
X324634Y226053D01*
X324645D01*
X324662Y226059D01*
X324679D01*
X324707Y226064D01*
X324740Y226076D01*
X324784Y226087D01*
X324834Y226098D01*
X324890Y226114D01*
X324956Y226137D01*
X325028Y226159D01*
X325112Y226187D01*
X325201Y226220D01*
X325300Y226259D01*
X325411Y226298D01*
X325533Y226348D01*
Y227524D01*
X325012D01*
X324823Y227480D01*
X324657Y227646D01*
X325533D01*
Y227657D01*
Y227680D01*
Y227718D01*
Y227768D01*
Y227829D01*
Y227902D01*
Y227979D01*
Y228068D01*
X325528Y228257D01*
X325522Y228451D01*
X325517Y228645D01*
Y228734D01*
X325511Y228823D01*
X325994Y228545D01*
D02*
G37*
G36*
X335218Y228273D02*
X335290Y228262D01*
X335374Y228246D01*
X335462Y228223D01*
X335557Y228196D01*
X335646Y228151D01*
X335651D01*
X335657Y228146D01*
X335684Y228129D01*
X335729Y228101D01*
X335784Y228063D01*
X335845Y228007D01*
X335912Y227946D01*
X335973Y227874D01*
X336034Y227790D01*
X336040Y227779D01*
X336062Y227752D01*
X336084Y227702D01*
X336123Y227630D01*
X336156Y227546D01*
X336201Y227452D01*
X336239Y227341D01*
X336273Y227219D01*
Y227213D01*
X336278Y227202D01*
X336284Y227186D01*
X336289Y227158D01*
X336295Y227125D01*
X336300Y227086D01*
X336312Y227036D01*
X336317Y226980D01*
X336328Y226919D01*
X336334Y226853D01*
X336339Y226775D01*
X336350Y226697D01*
X336356Y226608D01*
Y226520D01*
X336362Y226420D01*
Y226314D01*
Y226309D01*
Y226287D01*
Y226248D01*
Y226203D01*
X336356Y226142D01*
Y226076D01*
X336350Y226004D01*
X336345Y225926D01*
X336328Y225748D01*
X336300Y225565D01*
X336267Y225387D01*
X336245Y225304D01*
X336217Y225221D01*
Y225215D01*
X336212Y225204D01*
X336201Y225182D01*
X336189Y225154D01*
X336178Y225115D01*
X336156Y225077D01*
X336112Y224982D01*
X336056Y224882D01*
X335984Y224771D01*
X335901Y224672D01*
X335801Y224577D01*
X335795D01*
X335790Y224566D01*
X335773Y224555D01*
X335751Y224544D01*
X335723Y224527D01*
X335696Y224505D01*
X335612Y224466D01*
X335512Y224427D01*
X335396Y224388D01*
X335257Y224366D01*
X335107Y224355D01*
X335052D01*
X335013Y224361D01*
X334968Y224366D01*
X334913Y224377D01*
X334852Y224388D01*
X334785Y224405D01*
X334719Y224427D01*
X334647Y224449D01*
X334574Y224483D01*
X334502Y224522D01*
X334430Y224566D01*
X334358Y224622D01*
X334291Y224682D01*
X334230Y224749D01*
X334225Y224755D01*
X334214Y224771D01*
X334197Y224799D01*
X334169Y224844D01*
X334141Y224893D01*
X334114Y224960D01*
X334075Y225038D01*
X334042Y225127D01*
X334008Y225226D01*
X333975Y225343D01*
X333942Y225471D01*
X333914Y225615D01*
X333886Y225770D01*
X333870Y225937D01*
X333858Y226120D01*
X333853Y226314D01*
Y226320D01*
Y226342D01*
Y226381D01*
Y226425D01*
X333858Y226486D01*
Y226553D01*
X333864Y226625D01*
X333870Y226708D01*
X333886Y226880D01*
X333914Y227063D01*
X333947Y227247D01*
X333969Y227330D01*
X333992Y227413D01*
Y227419D01*
X333997Y227430D01*
X334008Y227452D01*
X334019Y227480D01*
X334031Y227519D01*
X334053Y227557D01*
X334097Y227652D01*
X334153Y227752D01*
X334225Y227857D01*
X334308Y227963D01*
X334408Y228051D01*
X334414D01*
X334419Y228063D01*
X334436Y228074D01*
X334458Y228085D01*
X334486Y228107D01*
X334519Y228123D01*
X334602Y228168D01*
X334702Y228207D01*
X334819Y228246D01*
X334957Y228268D01*
X335107Y228279D01*
X335157D01*
X335218Y228273D01*
D02*
G37*
G36*
X327676Y228568D02*
X327487Y228484D01*
X327254Y228129D01*
X328031D01*
X328220Y228318D01*
X328575Y227985D01*
X328564D01*
X328547Y227979D01*
X328519Y227974D01*
X328492Y227957D01*
X328453Y227940D01*
X328414Y227913D01*
X328364Y227879D01*
X328308Y227835D01*
X328247Y227779D01*
X328181Y227713D01*
X328109Y227630D01*
X328031Y227535D01*
X327942Y227419D01*
X327853Y227291D01*
X327759Y227141D01*
X328553D01*
X328719Y227330D01*
X329035Y227058D01*
X328847Y226930D01*
Y225781D01*
X328930D01*
X329163Y226015D01*
X329518Y225659D01*
X327903D01*
X327909Y225654D01*
X327920Y225626D01*
X327942Y225593D01*
X327970Y225543D01*
X328003Y225487D01*
X328042Y225421D01*
X328092Y225343D01*
X328142Y225265D01*
X328258Y225104D01*
X328386Y224943D01*
X328453Y224866D01*
X328525Y224794D01*
X328597Y224727D01*
X328669Y224672D01*
X328675Y224666D01*
X328686Y224660D01*
X328708Y224649D01*
X328736Y224627D01*
X328769Y224610D01*
X328814Y224583D01*
X328864Y224560D01*
X328913Y224533D01*
X329030Y224477D01*
X329163Y224422D01*
X329308Y224377D01*
X329457Y224344D01*
Y224261D01*
X329441D01*
X329424Y224255D01*
X329402D01*
X329346Y224244D01*
X329280Y224222D01*
X329213Y224194D01*
X329147Y224155D01*
X329091Y224100D01*
X329074Y224066D01*
X329058Y224028D01*
X329047Y224033D01*
X329019Y224050D01*
X328974Y224078D01*
X328913Y224122D01*
X328841Y224172D01*
X328758Y224238D01*
X328669Y224316D01*
X328569Y224411D01*
X328469Y224516D01*
X328364Y224638D01*
X328258Y224771D01*
X328153Y224916D01*
X328053Y225082D01*
X327959Y225260D01*
X327876Y225448D01*
X327798Y225659D01*
X327715D01*
Y225654D01*
X327709Y225648D01*
X327703Y225626D01*
X327698Y225604D01*
X327687Y225576D01*
X327676Y225543D01*
X327642Y225460D01*
X327598Y225354D01*
X327537Y225243D01*
X327459Y225110D01*
X327371Y224977D01*
X327265Y224832D01*
X327137Y224688D01*
X326988Y224538D01*
X326910Y224466D01*
X326821Y224394D01*
X326727Y224327D01*
X326632Y224255D01*
X326527Y224189D01*
X326416Y224128D01*
X326299Y224066D01*
X326177Y224006D01*
X326050Y223950D01*
X325911Y223900D01*
X325889Y223989D01*
X325894D01*
X325900Y223994D01*
X325916Y224000D01*
X325939Y224011D01*
X326000Y224044D01*
X326083Y224083D01*
X326177Y224139D01*
X326288Y224205D01*
X326405Y224289D01*
X326533Y224383D01*
X326666Y224494D01*
X326793Y224616D01*
X326926Y224749D01*
X327049Y224905D01*
X327165Y225071D01*
X327276Y225249D01*
X327365Y225448D01*
X327443Y225659D01*
X326621D01*
X326566Y225654D01*
X326499D01*
X326427Y225643D01*
X326338Y225632D01*
X326255Y225615D01*
X326166Y225593D01*
X325977Y225781D01*
X326643D01*
Y227291D01*
X326632Y227280D01*
X326605Y227247D01*
X326566Y227202D01*
X326505Y227136D01*
X326438Y227063D01*
X326355Y226980D01*
X326266Y226897D01*
X326166Y226808D01*
X326099Y226853D01*
X326105Y226858D01*
X326116Y226875D01*
X326138Y226903D01*
X326172Y226936D01*
X326205Y226980D01*
X326249Y227036D01*
X326294Y227097D01*
X326349Y227163D01*
X326405Y227236D01*
X326460Y227319D01*
X326582Y227496D01*
X326705Y227685D01*
X326821Y227890D01*
X326827Y227896D01*
X326832Y227913D01*
X326849Y227946D01*
X326871Y227985D01*
X326893Y228029D01*
X326926Y228085D01*
X326954Y228146D01*
X326988Y228218D01*
X327060Y228362D01*
X327132Y228518D01*
X327199Y228673D01*
X327254Y228823D01*
X327676Y228568D01*
D02*
G37*
%LPC*%
G36*
X364477Y433395D02*
X363262D01*
Y432640D01*
X364477D01*
Y433395D01*
D02*
G37*
G36*
X362968D02*
X361791D01*
Y432640D01*
X362968D01*
Y433395D01*
D02*
G37*
G36*
X364666Y431702D02*
X363262D01*
Y430903D01*
X364666D01*
Y431702D01*
D02*
G37*
G36*
X362968D02*
X361563D01*
Y430903D01*
X362968D01*
Y431702D01*
D02*
G37*
G36*
X370016Y433378D02*
X367247D01*
Y430648D01*
X370016D01*
Y433378D01*
D02*
G37*
G36*
X385567Y433628D02*
X384035D01*
X383997Y433583D01*
X384002Y433578D01*
X384013Y433556D01*
X384030Y433528D01*
X384052Y433484D01*
X384080Y433434D01*
X384119Y433378D01*
X384158Y433312D01*
X384208Y433239D01*
X384313Y433084D01*
X384435Y432917D01*
X384579Y432751D01*
X384729Y432596D01*
X384735Y432601D01*
X384752Y432618D01*
X384774Y432640D01*
X384807Y432673D01*
X384846Y432712D01*
X384890Y432762D01*
X384940Y432818D01*
X385001Y432884D01*
X385062Y432956D01*
X385129Y433034D01*
X385195Y433117D01*
X385268Y433212D01*
X385340Y433306D01*
X385418Y433406D01*
X385567Y433628D01*
D02*
G37*
G36*
X384729Y432240D02*
X384724Y432235D01*
X384707Y432224D01*
X384679Y432201D01*
X384641Y432174D01*
X384596Y432140D01*
X384541Y432102D01*
X384474Y432057D01*
X384402Y432007D01*
X384324Y431957D01*
X384241Y431902D01*
X384152Y431846D01*
X384058Y431791D01*
X383852Y431674D01*
X383636Y431569D01*
X383702Y431524D01*
X385861D01*
X385856Y431530D01*
X385834Y431535D01*
X385800Y431552D01*
X385751Y431580D01*
X385695Y431608D01*
X385628Y431641D01*
X385556Y431680D01*
X385478Y431724D01*
X385390Y431774D01*
X385301Y431830D01*
X385112Y431952D01*
X384918Y432091D01*
X384729Y432240D01*
D02*
G37*
G36*
X385839Y431402D02*
X384918D01*
Y430709D01*
X385839D01*
Y431402D01*
D02*
G37*
G36*
X384646D02*
X383680D01*
Y430709D01*
X384646D01*
Y431402D01*
D02*
G37*
G36*
X385839Y430586D02*
X384918D01*
Y429937D01*
X385839D01*
Y430586D01*
D02*
G37*
G36*
X384646D02*
X383680D01*
Y429937D01*
X384646D01*
Y430586D01*
D02*
G37*
G36*
X365227Y428231D02*
X363822D01*
Y427071D01*
X365227D01*
Y428231D01*
D02*
G37*
G36*
X363550D02*
X362207D01*
Y427071D01*
X363550D01*
Y428231D01*
D02*
G37*
G36*
X365227Y426949D02*
X363822D01*
Y425833D01*
X365227D01*
Y426949D01*
D02*
G37*
G36*
X363550D02*
X362207D01*
Y426938D01*
Y426910D01*
Y426866D01*
Y426810D01*
X362202Y426738D01*
Y426660D01*
X362196Y426572D01*
Y426477D01*
X362191Y426289D01*
X362185Y426194D01*
Y426105D01*
X362180Y426022D01*
X362174Y425950D01*
Y425883D01*
X362169Y425833D01*
X363550D01*
Y426949D01*
D02*
G37*
G36*
X388487Y428164D02*
X386933D01*
Y427515D01*
X388487D01*
Y428164D01*
D02*
G37*
G36*
Y427393D02*
X386933D01*
Y426821D01*
X388487D01*
Y427393D01*
D02*
G37*
G36*
X370455Y427726D02*
X367685D01*
Y424995D01*
X370455D01*
Y427726D01*
D02*
G37*
G36*
X376021Y427032D02*
X374822D01*
Y425584D01*
X376021D01*
Y427032D01*
D02*
G37*
G36*
X328386Y233931D02*
X327043D01*
Y232771D01*
X328386D01*
Y233931D01*
D02*
G37*
G36*
Y232649D02*
X327043D01*
Y231495D01*
X328386D01*
Y232649D01*
D02*
G37*
G36*
Y231372D02*
X327043D01*
Y230090D01*
X328386D01*
Y231372D01*
D02*
G37*
G36*
X312163Y233276D02*
X310865D01*
Y232371D01*
X312163D01*
Y233276D01*
D02*
G37*
G36*
X310571D02*
X309311D01*
Y232371D01*
X310571D01*
Y233276D01*
D02*
G37*
G36*
X312163Y232249D02*
X310865D01*
Y231306D01*
X312163D01*
Y232249D01*
D02*
G37*
G36*
X310571D02*
X309311D01*
Y231306D01*
X310571D01*
Y232249D01*
D02*
G37*
G36*
X321399Y233176D02*
X320078D01*
Y230951D01*
X320083Y230956D01*
X320106Y230967D01*
X320133Y230984D01*
X320172Y231012D01*
X320222Y231040D01*
X320278Y231078D01*
X320339Y231128D01*
X320405Y231178D01*
X320477Y231239D01*
X320550Y231306D01*
X320627Y231378D01*
X320705Y231456D01*
X320783Y231539D01*
X320860Y231633D01*
X320933Y231728D01*
X320999Y231833D01*
X321005Y231839D01*
X321016Y231861D01*
X321032Y231889D01*
X321055Y231933D01*
X321082Y231989D01*
X321116Y232055D01*
X321149Y232127D01*
X321182Y232216D01*
X321216Y232305D01*
X321254Y232410D01*
X321288Y232521D01*
X321316Y232638D01*
X321343Y232766D01*
X321371Y232893D01*
X321388Y233032D01*
X321399Y233176D01*
D02*
G37*
G36*
X323014Y227546D02*
X321859D01*
Y226891D01*
X323014D01*
Y227546D01*
D02*
G37*
G36*
X321565D02*
X320350D01*
Y226891D01*
X321565D01*
Y227546D01*
D02*
G37*
G36*
X323014Y226769D02*
X321859D01*
Y226764D01*
Y226758D01*
Y226742D01*
Y226719D01*
Y226692D01*
Y226653D01*
Y226575D01*
X321854Y226470D01*
X321848Y226353D01*
X321843Y226220D01*
X321837Y226076D01*
X323014D01*
Y226769D01*
D02*
G37*
G36*
X321565D02*
X320350D01*
Y226076D01*
X321549D01*
Y226081D01*
Y226098D01*
Y226120D01*
X321554Y226153D01*
Y226192D01*
Y226237D01*
X321560Y226337D01*
Y226447D01*
X321565Y226564D01*
Y226675D01*
Y226769D01*
D02*
G37*
G36*
X311620Y226603D02*
X310338D01*
Y225593D01*
X311620D01*
Y226603D01*
D02*
G37*
G36*
X331899Y227835D02*
X330689D01*
Y226564D01*
X331833D01*
X331899Y226570D01*
X331977Y226575D01*
X332066Y226581D01*
X332155Y226592D01*
X332243Y226608D01*
X332321Y226631D01*
X332332Y226636D01*
X332354Y226647D01*
X332388Y226664D01*
X332432Y226686D01*
X332482Y226719D01*
X332532Y226758D01*
X332582Y226808D01*
X332621Y226864D01*
X332626Y226869D01*
X332637Y226891D01*
X332654Y226925D01*
X332676Y226969D01*
X332693Y227019D01*
X332710Y227075D01*
X332721Y227141D01*
X332726Y227208D01*
Y227213D01*
Y227219D01*
X332721Y227252D01*
X332715Y227302D01*
X332704Y227369D01*
X332676Y227435D01*
X332643Y227513D01*
X332593Y227585D01*
X332526Y227657D01*
X332515Y227663D01*
X332488Y227685D01*
X332443Y227713D01*
X332371Y227746D01*
X332288Y227779D01*
X332177Y227807D01*
X332049Y227829D01*
X331899Y227835D01*
D02*
G37*
G36*
X335102Y227890D02*
X335068D01*
X335046Y227885D01*
X334985Y227874D01*
X334913Y227857D01*
X334830Y227824D01*
X334741Y227774D01*
X334697Y227741D01*
X334652Y227707D01*
X334613Y227663D01*
X334574Y227613D01*
Y227607D01*
X334563Y227596D01*
X334552Y227574D01*
X334536Y227546D01*
X334519Y227502D01*
X334497Y227452D01*
X334480Y227391D01*
X334458Y227319D01*
X334436Y227236D01*
X334414Y227141D01*
X334391Y227036D01*
X334375Y226919D01*
X334358Y226786D01*
X334347Y226642D01*
X334341Y226486D01*
X334336Y226314D01*
Y226303D01*
Y226275D01*
Y226225D01*
X334341Y226159D01*
Y226087D01*
X334347Y225998D01*
X334352Y225904D01*
X334364Y225804D01*
X334391Y225587D01*
X334408Y225482D01*
X334430Y225382D01*
X334452Y225288D01*
X334486Y225199D01*
X334519Y225121D01*
X334558Y225054D01*
Y225049D01*
X334569Y225043D01*
X334597Y225004D01*
X334647Y224955D01*
X334708Y224899D01*
X334791Y224844D01*
X334885Y224794D01*
X334991Y224755D01*
X335046Y224749D01*
X335107Y224744D01*
X335140D01*
X335163Y224749D01*
X335218Y224760D01*
X335296Y224782D01*
X335379Y224821D01*
X335473Y224877D01*
X335518Y224910D01*
X335562Y224955D01*
X335607Y224999D01*
X335651Y225054D01*
Y225060D01*
X335662Y225071D01*
X335673Y225088D01*
X335684Y225115D01*
X335707Y225154D01*
X335723Y225204D01*
X335745Y225260D01*
X335768Y225326D01*
X335784Y225410D01*
X335806Y225498D01*
X335829Y225604D01*
X335845Y225715D01*
X335856Y225848D01*
X335868Y225987D01*
X335879Y226142D01*
Y226314D01*
Y226320D01*
Y226325D01*
Y226353D01*
Y226403D01*
X335873Y226470D01*
Y226542D01*
X335868Y226631D01*
X335862Y226725D01*
X335851Y226830D01*
X335823Y227041D01*
X335806Y227147D01*
X335784Y227247D01*
X335762Y227341D01*
X335729Y227430D01*
X335696Y227507D01*
X335657Y227574D01*
Y227580D01*
X335646Y227585D01*
X335634Y227602D01*
X335618Y227624D01*
X335568Y227674D01*
X335507Y227735D01*
X335423Y227790D01*
X335329Y227840D01*
X335279Y227863D01*
X335224Y227879D01*
X335163Y227885D01*
X335102Y227890D01*
D02*
G37*
G36*
X328053Y228007D02*
X327193D01*
Y228001D01*
X327182Y227990D01*
X327171Y227974D01*
X327154Y227946D01*
X327132Y227918D01*
X327104Y227879D01*
X327038Y227790D01*
X326960Y227685D01*
X326871Y227569D01*
X326771Y227441D01*
X326666Y227308D01*
X326921Y227141D01*
X327609D01*
X328053Y228007D01*
D02*
G37*
G36*
X328575Y227019D02*
X327820D01*
Y227013D01*
Y226986D01*
Y226953D01*
X327815Y226903D01*
Y226841D01*
X327809Y226769D01*
X327803Y226692D01*
Y226603D01*
X327798Y226508D01*
X327792Y226414D01*
X327776Y226203D01*
X327759Y225992D01*
X327737Y225781D01*
X328575D01*
Y227019D01*
D02*
G37*
G36*
X327548D02*
X326921D01*
Y225781D01*
X327465D01*
Y225787D01*
X327470Y225809D01*
Y225842D01*
X327476Y225881D01*
X327482Y225937D01*
X327487Y226004D01*
X327493Y226076D01*
X327498Y226159D01*
X327504Y226248D01*
X327515Y226342D01*
X327520Y226442D01*
X327526Y226553D01*
X327537Y226781D01*
X327548Y227019D01*
D02*
G37*
%LPD*%
D10*
X226161Y218622D02*
X225423Y219048D01*
Y218196D01*
X226161Y218622D01*
X347922Y201458D02*
X347184Y201884D01*
Y201031D01*
X347922Y201458D01*
X366001Y145905D02*
X365263Y146331D01*
Y145478D01*
X366001Y145905D01*
X385092Y343186D02*
X384354Y343612D01*
Y342760D01*
X385092Y343186D01*
X216108Y171462D02*
X215370Y171888D01*
Y171035D01*
X216108Y171462D01*
X295584Y152551D02*
X294846Y152977D01*
Y152125D01*
X295584Y152551D01*
D11*
X278902Y186765D02*
X278634Y187765D01*
X277902Y188497D01*
X276902Y188765D01*
X275902Y188497D01*
X275169Y187765D01*
X274902Y186765D01*
X286902D02*
X286634Y187765D01*
X285902Y188497D01*
X284902Y188765D01*
X283902Y188497D01*
X283170Y187765D01*
X282902Y186765D01*
X282634Y187765D01*
X281902Y188497D01*
X280902Y188765D01*
X279902Y188497D01*
X279170Y187765D01*
X278902Y186765D01*
X231821Y213864D02*
X251310D01*
X231821Y205064D02*
X251310D01*
X231821D02*
Y213864D01*
X251310Y205064D02*
Y213864D01*
X270902Y192765D02*
Y199265D01*
X290902D01*
Y192765D02*
Y199265D01*
Y176265D02*
Y182765D01*
X270902Y176265D02*
X290902D01*
X270902D02*
Y182765D01*
X272902Y186765D02*
X274902D01*
X286902D02*
X288902D01*
X180250Y265625D02*
X183750D01*
X180250D02*
Y277625D01*
X183750D01*
X194750Y266125D02*
Y277125D01*
Y256291D02*
Y260625D01*
Y256291D02*
X194770Y256270D01*
X194730Y286979D02*
X194750Y286958D01*
Y282625D02*
Y286958D01*
X189750Y286979D02*
X194730D01*
X183750Y260625D02*
Y282625D01*
X189750Y256270D02*
X194770D01*
X340591Y139703D02*
Y141163D01*
Y139703D02*
X347481D01*
Y144623D01*
X323870Y139692D02*
X330760D01*
X318082Y114889D02*
X353279D01*
X320153Y145696D02*
X320991D01*
X350371D02*
X350519D01*
X330760Y139692D02*
Y141439D01*
X318082Y114889D02*
Y120311D01*
Y129939D02*
Y136059D01*
X353279Y114889D02*
Y120286D01*
Y129964D02*
Y136033D01*
X236004Y139459D02*
Y140919D01*
Y139459D02*
X242895D01*
Y144379D01*
X219284Y139448D02*
X226173D01*
X213496Y114645D02*
X248693D01*
X215567Y145452D02*
X216405D01*
X245784D02*
X245933D01*
X226173Y139448D02*
Y141195D01*
X213496Y114645D02*
Y120067D01*
Y129695D02*
Y135814D01*
X248693Y114645D02*
Y120042D01*
Y129720D02*
Y135789D01*
X366987Y398379D02*
X368447D01*
Y405269D01*
X363527D02*
X368447D01*
X368459Y381659D02*
Y388548D01*
X393262Y375871D02*
Y411068D01*
X362455Y377942D02*
Y378780D01*
Y408159D02*
Y408308D01*
X366711Y388548D02*
X368459D01*
X387840Y375871D02*
X393262D01*
X372092D02*
X378211D01*
X387865Y411068D02*
X393262D01*
X372117D02*
X378186D01*
X306075Y208149D02*
X310074D01*
X308074Y210148D02*
Y206150D01*
X333550Y208149D02*
X337549D01*
X192249Y170748D02*
X191249Y171748D01*
X189250D01*
X188250Y170748D01*
Y166750D01*
X189250Y165750D01*
X191249D01*
X192249Y166750D01*
Y168749D01*
X190249D01*
X194248Y165750D02*
Y171748D01*
X198247Y165750D01*
Y171748D01*
X200246D02*
Y165750D01*
X203245D01*
X204245Y166750D01*
Y170748D01*
X203245Y171748D01*
X200246D01*
X191999Y150998D02*
X190999Y151998D01*
X189000D01*
X188000Y150998D01*
Y147000D01*
X189000Y146000D01*
X190999D01*
X191999Y147000D01*
Y148999D01*
X189999D01*
X193998Y146000D02*
Y151998D01*
X197997Y146000D01*
Y151998D01*
X199996D02*
Y146000D01*
X202995D01*
X203995Y147000D01*
Y150998D01*
X202995Y151998D01*
X199996D01*
D12*
X357666Y194765D02*
X357222Y195688D01*
X356222Y195916D01*
X355421Y195277D01*
Y194252D01*
X356222Y193613D01*
X357222Y193841D01*
X357666Y194765D01*
D13*
X238843Y164550D02*
X238253Y165141D01*
X237662Y164550D01*
X238253Y163960D01*
X238843Y164550D01*
D14*
X298647Y159500D02*
X298147Y160366D01*
X297147D01*
X296647Y159500D01*
X297147Y158634D01*
X298147D01*
X298647Y159500D01*
D15*
X388575Y317225D02*
X391875Y320525D01*
X360750Y317225D02*
X388575D01*
X386875Y422850D02*
X391775Y417950D01*
X360750Y422850D02*
X386875D01*
X237284Y201626D02*
X237584D01*
X236984D02*
X237284D01*
Y200726D02*
Y202526D01*
X230969Y193227D02*
X232769D01*
X231869D02*
Y193527D01*
Y192927D02*
Y193227D01*
X225844D02*
X227644D01*
X226744D02*
Y193527D01*
Y192927D02*
Y193227D01*
X335849Y174563D02*
Y176363D01*
Y175463D02*
X336149D01*
X335549D02*
X335849D01*
X186000Y189250D02*
Y199250D01*
Y209250D01*
X206000D01*
Y189250D02*
Y209250D01*
Y189250D02*
Y199250D01*
X186000D02*
X206000D01*
Y179250D02*
Y189250D01*
X186000D02*
X206000D01*
X186000Y179250D02*
Y189250D01*
Y159300D02*
Y179250D01*
Y159300D02*
X205950D01*
X206000Y159250D01*
Y179250D01*
X186000D02*
X206000D01*
X238076Y219528D02*
X239876D01*
X238976D02*
Y219828D01*
Y219228D02*
Y219528D01*
X247500Y200726D02*
Y202526D01*
X247200Y201626D02*
X247500D01*
X247800D01*
X257757Y211100D02*
Y212900D01*
X257457Y212000D02*
X257757D01*
X258057D01*
X257757Y205913D02*
Y207713D01*
X257457Y206813D02*
X257757D01*
X258057D01*
X257757Y200725D02*
Y202525D01*
X257457Y201625D02*
X257757D01*
X258057D01*
X257480Y152407D02*
Y154207D01*
X257180Y153307D02*
X257480D01*
X257780D01*
X257480Y157525D02*
Y159325D01*
X257180Y158425D02*
X257480D01*
X257780D01*
X335849Y169350D02*
Y171150D01*
X335549Y170250D02*
X335849D01*
X336150D01*
X376761Y163349D02*
Y165149D01*
Y164249D02*
X377061D01*
X376461D02*
X376761D01*
X335849Y197802D02*
Y199602D01*
X335549Y198702D02*
X335849D01*
X336149D01*
X386591Y201261D02*
X388391D01*
X387491D02*
Y201561D01*
Y200961D02*
Y201261D01*
X349990Y210600D02*
Y212400D01*
X349690Y211500D02*
X349990D01*
X350290D01*
X363482Y141350D02*
Y143150D01*
Y142250D02*
X363782D01*
X363182D02*
X363482D01*
X335848Y192278D02*
Y194078D01*
X335548Y193177D02*
X335848D01*
X336148D01*
X321407Y188343D02*
Y191343D01*
X326407Y188343D02*
Y191343D01*
Y189843D02*
X327907D01*
Y191343D01*
X319907Y189843D02*
X321407D01*
X319907Y187843D02*
Y189843D01*
X327907Y191343D02*
Y191843D01*
X322907Y188343D02*
Y191343D01*
X324907D01*
Y188343D02*
Y191343D01*
X322907Y188343D02*
X324907D01*
X335848Y185819D02*
Y187619D01*
X335548Y186718D02*
X335848D01*
X336148D01*
X266350Y185515D02*
X268150D01*
X267250Y185215D02*
Y185515D01*
Y185815D01*
X272369Y205639D02*
X274169D01*
X273269Y205339D02*
Y205639D01*
Y205939D01*
X287619Y205639D02*
X289419D01*
X288519Y205339D02*
Y205639D01*
Y205939D01*
X277435Y205639D02*
X279235D01*
X278335D02*
Y205939D01*
Y205339D02*
Y205639D01*
X282494Y205640D02*
X284294D01*
X283394D02*
Y205940D01*
Y205340D02*
Y205640D01*
X207761Y214488D02*
X209561D01*
X208661Y214188D02*
Y214488D01*
Y214788D01*
X382059Y348350D02*
Y350150D01*
X381759Y349250D02*
X382059D01*
X382359D01*
X219750Y153600D02*
Y155400D01*
X219450Y154500D02*
X219750D01*
X220050D01*
X366816Y353490D02*
Y355290D01*
Y354390D02*
X367116D01*
X366516D02*
X366816D01*
Y348350D02*
Y350150D01*
Y349250D02*
X367116D01*
X366516D02*
X366816D01*
X309361Y176361D02*
Y178161D01*
Y177261D02*
X309661D01*
X309061D02*
X309361D01*
X304147Y147025D02*
Y148825D01*
X303847Y147925D02*
X304147D01*
X304447D01*
X215081Y223280D02*
X336779D01*
X360750Y247250D01*
Y459500D01*
X215081Y223280D02*
Y459500D01*
X360750D01*
X389500Y205750D02*
Y238750D01*
X356500Y209000D02*
X389500D01*
X369500Y138750D02*
Y158800D01*
X389500Y138750D02*
Y158800D01*
X186000Y139250D02*
Y159300D01*
X206000D01*
Y139250D02*
Y159300D01*
X186000Y139250D02*
X206000D01*
X250875Y198224D02*
Y194225D01*
Y198224D02*
X252589D01*
X253160Y198034D01*
X253351Y197843D01*
X253541Y197462D01*
Y197081D01*
X253351Y196701D01*
X253160Y196510D01*
X252589Y196320D01*
X250875D01*
X252208D02*
X253541Y194225D01*
X255579Y198224D02*
X255008Y198034D01*
X254627Y197462D01*
X254436Y196510D01*
Y195939D01*
X254627Y194987D01*
X255008Y194415D01*
X255579Y194225D01*
X255960D01*
X256531Y194415D01*
X256912Y194987D01*
X257102Y195939D01*
Y196510D01*
X256912Y197462D01*
X256531Y198034D01*
X255960Y198224D01*
X255579D01*
X375025Y295964D02*
X378453D01*
X376739Y307578D02*
Y304150D01*
X375025Y305864D02*
X378453D01*
X370283Y287328D02*
X369902Y287709D01*
X369331Y287899D01*
X368569D01*
X367998Y287709D01*
X367617Y287328D01*
Y286947D01*
X367808Y286566D01*
X367998Y286376D01*
X368379Y286185D01*
X369521Y285804D01*
X369902Y285614D01*
X370093Y285423D01*
X370283Y285043D01*
Y284471D01*
X369902Y284090D01*
X369331Y283900D01*
X368569D01*
X367998Y284090D01*
X367617Y284471D01*
X371178Y287899D02*
X372130Y283900D01*
X373082Y287899D02*
X372130Y283900D01*
X373082Y287899D02*
X374035Y283900D01*
X374987Y287899D02*
X374035Y283900D01*
X375787Y287899D02*
Y283900D01*
Y287899D02*
X377120D01*
X377691Y287709D01*
X378072Y287328D01*
X378262Y286947D01*
X378453Y286376D01*
Y285423D01*
X378262Y284852D01*
X378072Y284471D01*
X377691Y284090D01*
X377120Y283900D01*
X375787D01*
X370093Y277378D02*
X369712Y277759D01*
X369141Y277949D01*
X368379D01*
X367808Y277759D01*
X367427Y277378D01*
Y276997D01*
X367617Y276616D01*
X367808Y276426D01*
X368188Y276235D01*
X369331Y275854D01*
X369712Y275664D01*
X369902Y275473D01*
X370093Y275093D01*
Y274521D01*
X369712Y274140D01*
X369141Y273950D01*
X368379D01*
X367808Y274140D01*
X367427Y274521D01*
X370988Y277949D02*
X371940Y273950D01*
X372892Y277949D02*
X371940Y273950D01*
X372892Y277949D02*
X373844Y273950D01*
X374797Y277949D02*
X373844Y273950D01*
X378453Y276997D02*
X378262Y277378D01*
X377882Y277759D01*
X377501Y277949D01*
X376739D01*
X376358Y277759D01*
X375977Y277378D01*
X375787Y276997D01*
X375596Y276426D01*
Y275473D01*
X375787Y274902D01*
X375977Y274521D01*
X376358Y274140D01*
X376739Y273950D01*
X377501D01*
X377882Y274140D01*
X378262Y274521D01*
X378453Y274902D01*
X359356Y234422D02*
X359166Y234803D01*
X358785Y235184D01*
X358404Y235374D01*
X357643D01*
X357262Y235184D01*
X356881Y234803D01*
X356690Y234422D01*
X356500Y233851D01*
Y232898D01*
X356690Y232327D01*
X356881Y231946D01*
X357262Y231565D01*
X357643Y231375D01*
X358404D01*
X358785Y231565D01*
X359166Y231946D01*
X359356Y232327D01*
Y232898D01*
X358404D02*
X359356D01*
X360271Y235374D02*
Y231375D01*
Y235374D02*
X362937Y231375D01*
Y235374D02*
Y231375D01*
X364041Y235374D02*
Y231375D01*
Y235374D02*
X365374D01*
X365946Y235184D01*
X366326Y234803D01*
X366517Y234422D01*
X366707Y233851D01*
Y232898D01*
X366517Y232327D01*
X366326Y231946D01*
X365946Y231565D01*
X365374Y231375D01*
X364041D01*
D16*
X212677Y211732D02*
X215827D01*
X212677D02*
Y214488D01*
X221339Y211732D02*
X224488D01*
Y214488D01*
X369500Y208875D02*
Y228042D01*
Y208875D02*
Y238875D01*
X389500Y208875D02*
Y238875D01*
X369500D02*
X389500D01*
X369500Y208875D02*
X389500D01*
X186000Y179250D02*
X206000D01*
Y189250D01*
X186000D02*
X206000D01*
X186000Y179250D02*
Y189250D01*
X206000D01*
Y199250D01*
X186000D02*
X206000D01*
X186000Y189250D02*
Y199250D01*
X379500Y311000D02*
X389500D01*
Y271000D02*
Y311000D01*
X379500Y271000D02*
Y311000D01*
Y271000D02*
X389500D01*
X352548Y177048D02*
Y198702D01*
X374202Y177048D02*
Y198702D01*
X352548D02*
X374202D01*
X352548Y177048D02*
X374202D01*
X369500Y138750D02*
X389500D01*
Y158750D01*
X369500Y138750D02*
Y158750D01*
X389500D01*
X358619Y147086D02*
X361375D01*
X358619D02*
Y150235D01*
Y158897D02*
X361375D01*
X358619Y155747D02*
Y158897D01*
X206000Y139250D02*
Y159250D01*
X186000D02*
X206000D01*
X186000Y139250D02*
X206000D01*
X186000D02*
Y159250D01*
Y209250D02*
X206000D01*
Y229250D01*
X186000Y209250D02*
Y229250D01*
X206000D01*
Y159125D02*
Y179125D01*
X186000D02*
X206000D01*
X186000Y159125D02*
X206000D01*
X186000D02*
Y179125D01*
X219750Y170281D02*
X222506D01*
Y167131D02*
Y170281D01*
X219750Y158469D02*
X222506D01*
Y161619D01*
X307494Y133787D02*
X313006D01*
X307494Y134968D02*
X313006D01*
X307494Y131032D02*
X313006D01*
X307494D02*
Y134968D01*
X313006Y131032D02*
Y134968D01*
X309147Y168000D02*
X314147D01*
Y163000D02*
Y168000D01*
X294147D02*
X299147D01*
X294147Y163000D02*
Y168000D01*
D17*
X325945Y464132D02*
Y474368D01*
Y464132D02*
X331063D01*
Y474368D01*
X325945D02*
X331063D01*
X238784Y199066D02*
X242402D01*
X238784Y204184D02*
X242402D01*
X232165Y199066D02*
X235784D01*
X232165Y204184D02*
X235784D01*
X232165Y199066D02*
Y204184D01*
X242402Y199066D02*
Y204184D01*
X229310Y188110D02*
X234428D01*
X229310Y198346D02*
X234428D01*
Y194727D02*
Y198346D01*
X229310Y194727D02*
Y198346D01*
X234428Y188110D02*
Y191727D01*
X229310Y188110D02*
Y191727D01*
X224185Y188110D02*
X229303D01*
X224185Y198346D02*
X229303D01*
Y194727D02*
Y198346D01*
X224185Y194727D02*
Y198346D01*
X229303Y188110D02*
Y191727D01*
X224185Y188110D02*
Y191727D01*
X330732Y172904D02*
Y178022D01*
X340968Y172904D02*
Y178022D01*
X337349Y172904D02*
X340968D01*
X337349Y178022D02*
X340968D01*
X330732Y172904D02*
X334349D01*
X330732Y178022D02*
X334349D01*
X379132Y264066D02*
X389368D01*
Y269184D01*
X379132D02*
X389368D01*
X379132Y264066D02*
Y269184D01*
X376150Y258425D02*
X377150D01*
X376150Y252825D02*
Y258425D01*
Y252825D02*
X377150D01*
X377250Y258425D02*
X382550D01*
X377150Y253025D02*
Y258425D01*
Y252825D02*
X382550D01*
X385950Y258425D02*
X391350D01*
Y258225D02*
Y258425D01*
Y252825D02*
Y258225D01*
X391250Y252825D02*
X391350D01*
X385950D02*
X391250D01*
X376150Y252800D02*
X377150D01*
X376150Y247200D02*
Y252800D01*
Y247200D02*
X377150D01*
X377250Y252800D02*
X382550D01*
X377150Y247400D02*
Y252800D01*
Y247200D02*
X382550D01*
X385950Y252800D02*
X391350D01*
Y252600D02*
Y252800D01*
Y247200D02*
Y252600D01*
X391250Y247200D02*
X391350D01*
X385950D02*
X391250D01*
X376150Y264050D02*
X377150D01*
X376150Y258450D02*
Y264050D01*
Y258450D02*
X377150D01*
X377250Y264050D02*
X382550D01*
X377150Y258650D02*
Y264050D01*
Y258450D02*
X382550D01*
X385950Y264050D02*
X391350D01*
Y263850D02*
Y264050D01*
Y258450D02*
Y263850D01*
X391250Y258450D02*
X391350D01*
X385950D02*
X391250D01*
X259576Y126412D02*
Y131712D01*
Y131812D01*
X254176D02*
X259576D01*
X253976D02*
X254176D01*
X253976Y126412D02*
Y131812D01*
X259576Y117612D02*
Y123012D01*
X253976Y117612D02*
X259376D01*
X253976Y117712D02*
Y123012D01*
X259576Y116612D02*
Y117612D01*
X253976Y116612D02*
X259576D01*
X253976D02*
Y117612D01*
X254191Y132654D02*
Y142890D01*
Y132654D02*
X259309D01*
Y142890D01*
X254191D02*
X259309D01*
X236417Y214410D02*
X241535D01*
X236417Y224646D02*
X241535D01*
Y221028D02*
Y224646D01*
X236417Y221028D02*
Y224646D01*
X241535Y214410D02*
Y218028D01*
X236417Y214410D02*
Y218028D01*
X199816Y260798D02*
Y271035D01*
Y260798D02*
X204934D01*
Y271035D01*
X199816D02*
X204934D01*
X252618Y199066D02*
Y204184D01*
X242382Y199066D02*
Y204184D01*
X246000D01*
X242382Y199066D02*
X246000D01*
X249000Y204184D02*
X252618D01*
X249000Y199066D02*
X252618D01*
X358651Y166809D02*
X368887D01*
X358651Y161691D02*
Y166809D01*
Y161691D02*
X368887D01*
Y166809D01*
X262875Y209441D02*
Y214559D01*
X252639Y209441D02*
Y214559D01*
X256257D01*
X252639Y209441D02*
X256257D01*
X259257Y214559D02*
X262875D01*
X259257Y209441D02*
X262875D01*
Y204253D02*
Y209372D01*
X252639Y204253D02*
Y209372D01*
X256257D01*
X252639Y204253D02*
X256257D01*
X259257Y209372D02*
X262875D01*
X259257Y204253D02*
X262875D01*
Y199066D02*
Y204184D01*
X252639Y199066D02*
Y204184D01*
X256257D01*
X252639Y199066D02*
X256257D01*
X259257Y204184D02*
X262875D01*
X259257Y199066D02*
X262875D01*
X262598Y150748D02*
Y155866D01*
X252362Y150748D02*
Y155866D01*
X255980D01*
X252362Y150748D02*
X255980D01*
X258980Y155866D02*
X262598D01*
X258980Y150748D02*
X262598D01*
Y155866D02*
Y160984D01*
X252362Y155866D02*
Y160984D01*
X255980D01*
X252362Y155866D02*
X255980D01*
X258980Y160984D02*
X262598D01*
X258980Y155866D02*
X262598D01*
X258132Y193941D02*
X268368D01*
Y199059D01*
X258132D02*
X268368D01*
X258132Y193941D02*
Y199059D01*
X340967Y167691D02*
Y172809D01*
X330731Y167691D02*
Y172809D01*
X334349D01*
X330731Y167691D02*
X334349D01*
X337350Y172809D02*
X340967D01*
X337350Y167691D02*
X340967D01*
X371643Y161690D02*
Y166808D01*
X381879Y161690D02*
Y166808D01*
X378260Y161690D02*
X381879D01*
X378260Y166808D02*
X381879D01*
X371643Y161690D02*
X375260D01*
X371643Y166808D02*
X375260D01*
X340967Y196143D02*
Y201261D01*
X330730Y196143D02*
Y201261D01*
X334349D01*
X330730Y196143D02*
X334349D01*
X337349Y201261D02*
X340967D01*
X337349Y196143D02*
X340967D01*
X384932Y196143D02*
X390050D01*
X384932Y206380D02*
X390050D01*
Y202761D02*
Y206380D01*
X384932Y202761D02*
Y206380D01*
X390050Y196143D02*
Y199761D01*
X384932Y196143D02*
Y199761D01*
X355107Y208941D02*
Y214059D01*
X344871Y208941D02*
Y214059D01*
X348489D01*
X344871Y208941D02*
X348489D01*
X351489Y214059D02*
X355107D01*
X351489Y208941D02*
X355107D01*
X358364Y139691D02*
Y144809D01*
X368600Y139691D02*
Y144809D01*
X364982Y139691D02*
X368600D01*
X364982Y144809D02*
X368600D01*
X358364Y139691D02*
X361982D01*
X358364Y144809D02*
X361982D01*
X340966Y190618D02*
Y195736D01*
X330730Y190618D02*
Y195736D01*
X334348D01*
X330730Y190618D02*
X334348D01*
X337348Y195736D02*
X340966D01*
X337348Y190618D02*
X340966D01*
X317607Y180001D02*
Y199686D01*
X318250D01*
X317607Y180001D02*
X318249D01*
X329564D02*
X330205D01*
X329562Y199686D02*
X330205D01*
Y180001D02*
Y199686D01*
X340966Y184159D02*
Y189277D01*
X330730Y184159D02*
Y189277D01*
X334348D01*
X330730Y184159D02*
X334348D01*
X337348Y189277D02*
X340966D01*
X337348Y184159D02*
X340966D01*
X264691Y190633D02*
X269809D01*
X264691Y180396D02*
X269809D01*
X264691D02*
Y184015D01*
X269809Y180396D02*
Y184015D01*
X264691Y187015D02*
Y190633D01*
X269809Y187015D02*
Y190633D01*
X358589Y208942D02*
X368825D01*
Y214060D01*
X358589D02*
X368825D01*
X358589Y208942D02*
Y214060D01*
X270710Y210757D02*
X275828D01*
X270710Y200520D02*
X275828D01*
X270710D02*
Y204139D01*
X275828Y200520D02*
Y204139D01*
X270710Y207139D02*
Y210757D01*
X275828Y207139D02*
Y210757D01*
X285960D02*
X291078D01*
X285960Y200520D02*
X291078D01*
X285960D02*
Y204139D01*
X291078Y200520D02*
Y204139D01*
X285960Y207139D02*
Y210757D01*
X291078Y207139D02*
Y210757D01*
X330731Y178028D02*
X340967D01*
Y183146D01*
X330731D02*
X340967D01*
X330731Y178028D02*
Y183146D01*
X275776Y200521D02*
X280894D01*
X275776Y210757D02*
X280894D01*
Y207139D02*
Y210757D01*
X275776Y207139D02*
Y210757D01*
X280894Y200521D02*
Y204139D01*
X275776Y200521D02*
Y204139D01*
X280834Y200523D02*
X285952D01*
X280834Y210759D02*
X285952D01*
Y207140D02*
Y210759D01*
X280834Y207140D02*
Y210759D01*
X285952Y200523D02*
Y204140D01*
X280834Y200523D02*
Y204140D01*
X268382Y161772D02*
X278618D01*
X268382Y156653D02*
Y161772D01*
Y156653D02*
X278618D01*
Y161772D01*
X268382Y156684D02*
X278618D01*
X268382Y151566D02*
Y156684D01*
Y151566D02*
X278618D01*
Y156684D01*
X268382Y174424D02*
X278618D01*
X268382Y169306D02*
Y174424D01*
Y169306D02*
X278618D01*
Y174424D01*
X267325Y116500D02*
Y121800D01*
Y116400D02*
Y116500D01*
Y116400D02*
X272725D01*
X272925D01*
Y121800D01*
X267325Y125200D02*
Y130600D01*
X267525D02*
X272925D01*
Y125200D02*
Y130500D01*
X267325Y130600D02*
Y131600D01*
X272925D01*
Y130600D02*
Y131600D01*
X385424Y181000D02*
Y186301D01*
Y180901D02*
Y181000D01*
Y180901D02*
X390824D01*
X391024D01*
Y186301D01*
X385424Y189700D02*
Y195100D01*
X385624D02*
X391024D01*
Y189700D02*
Y195001D01*
X385424Y195100D02*
Y196100D01*
X391024D01*
Y195100D02*
Y196100D01*
X390050Y170590D02*
Y180826D01*
X384932D02*
X390050D01*
X384932Y170590D02*
Y180826D01*
Y170590D02*
X390050D01*
X206103Y219606D02*
X211221D01*
X206103Y209370D02*
X211221D01*
X206103D02*
Y212988D01*
X211221Y209370D02*
Y212988D01*
X206103Y215988D02*
Y219606D01*
X211221Y215988D02*
Y219606D01*
X281184Y126200D02*
Y131500D01*
Y131600D01*
X275784D02*
X281184D01*
X275584D02*
X275784D01*
X275584Y126200D02*
Y131600D01*
X281184Y117400D02*
Y122800D01*
X275584Y117400D02*
X280984D01*
X275584Y117500D02*
Y122800D01*
X281184Y116400D02*
Y117400D01*
X275584Y116400D02*
X281184D01*
X275584D02*
Y117400D01*
X283842Y116500D02*
Y121800D01*
Y116400D02*
Y116500D01*
Y116400D02*
X289242D01*
X289442D01*
Y121800D01*
X283842Y125200D02*
Y130600D01*
X284042D02*
X289442D01*
Y125200D02*
Y130500D01*
X283842Y130600D02*
Y131600D01*
X289442D01*
Y130600D02*
Y131600D01*
X206956Y184184D02*
X217192D01*
X206956Y179066D02*
Y184184D01*
Y179066D02*
X217192D01*
Y184184D01*
X206956Y184191D02*
X217192D01*
Y189309D01*
X206956D02*
X217192D01*
X206956Y184191D02*
Y189309D01*
X277784Y225934D02*
X288020D01*
X277784Y220816D02*
Y225934D01*
Y220816D02*
X288020D01*
Y225934D01*
X277811Y218684D02*
X288047D01*
X277811Y213566D02*
Y218684D01*
Y213566D02*
X288047D01*
Y218684D01*
X358507Y215691D02*
X368743D01*
Y220809D01*
X358507D02*
X368743D01*
X358507Y215691D02*
Y220809D01*
X297701Y126200D02*
Y131500D01*
Y131600D01*
X292301D02*
X297701D01*
X292101D02*
X292301D01*
X292101Y126200D02*
Y131600D01*
X297701Y117400D02*
Y122800D01*
X292101Y117400D02*
X297501D01*
X292101Y117500D02*
Y122800D01*
X297701Y116400D02*
Y117400D01*
X292101Y116400D02*
X297701D01*
X292101D02*
Y117400D01*
X358507Y221432D02*
X368743D01*
Y226551D01*
X358507D02*
X368743D01*
X358507Y221432D02*
Y226551D01*
X344871Y221316D02*
X355107D01*
Y226434D01*
X344871D02*
X355107D01*
X344871Y221316D02*
Y226434D01*
Y215690D02*
X355107D01*
Y220808D01*
X344871D02*
X355107D01*
X344871Y215690D02*
Y220808D01*
X339104Y149990D02*
X349341D01*
Y155108D01*
X339104D02*
X349341D01*
X339104Y149990D02*
Y155108D01*
X330730Y165309D02*
X340967D01*
X330730Y160191D02*
Y165309D01*
Y160191D02*
X340967D01*
Y165309D01*
X387177Y346691D02*
Y351809D01*
X376941Y346691D02*
Y351809D01*
X380559D01*
X376941Y346691D02*
X380559D01*
X383559Y351809D02*
X387177D01*
X383559Y346691D02*
X387177D01*
X211934Y159257D02*
Y169493D01*
X206816D02*
X211934D01*
X206816Y159257D02*
Y169493D01*
Y159257D02*
X211934D01*
X339104Y155078D02*
X349341D01*
Y160196D01*
X339104D02*
X349341D01*
X339104Y155078D02*
Y160196D01*
X322175Y149990D02*
X332411D01*
Y155108D01*
X322175D02*
X332411D01*
X322175Y149990D02*
Y155108D01*
X322176Y160233D02*
X332412D01*
X322176Y155115D02*
Y160233D01*
Y155115D02*
X332412D01*
Y160233D01*
X224868Y151941D02*
Y157059D01*
X214632Y151941D02*
Y157059D01*
X218250D01*
X214632Y151941D02*
X218250D01*
X221250Y157059D02*
X224868D01*
X221250Y151941D02*
X224868D01*
X361698Y351832D02*
Y356950D01*
X371934Y351832D02*
Y356950D01*
X368316Y351832D02*
X371934D01*
X368316Y356950D02*
X371934D01*
X361698Y351832D02*
X365316D01*
X361698Y356950D02*
X365316D01*
X361698Y346691D02*
Y351809D01*
X371934Y346691D02*
Y351809D01*
X368316Y346691D02*
X371934D01*
X368316Y351809D02*
X371934D01*
X361698Y346691D02*
X365316D01*
X361698Y351809D02*
X365316D01*
X361382Y415691D02*
X371618D01*
Y420809D01*
X361382D02*
X371618D01*
X361382Y415691D02*
Y420809D01*
X293933Y179822D02*
X304170D01*
X293933Y174703D02*
Y179822D01*
Y174703D02*
X304170D01*
Y179822D01*
X304243Y174703D02*
Y179821D01*
X314479Y174703D02*
Y179821D01*
X310861Y174703D02*
X314479D01*
X310861Y179821D02*
X314479D01*
X304243Y174703D02*
X307861D01*
X304243Y179821D02*
X307861D01*
X309264Y145366D02*
Y150484D01*
X299028Y145366D02*
Y150484D01*
X302647D01*
X299028Y145366D02*
X302647D01*
X305647Y150484D02*
X309264D01*
X305647Y145366D02*
X309264D01*
X297251Y190591D02*
X302551D01*
X297150D02*
X297251D01*
X297150Y185191D02*
Y190591D01*
Y184991D02*
Y185191D01*
Y184991D02*
X302551D01*
X305950Y190591D02*
X311350D01*
Y184991D02*
Y190391D01*
X305950Y184991D02*
X311250D01*
X311350Y190591D02*
X312351D01*
Y184991D02*
Y190591D01*
X311350Y184991D02*
X312351D01*
X361398Y370309D02*
X371634D01*
X361398Y365191D02*
Y370309D01*
Y365191D02*
X371634D01*
Y370309D01*
D18*
X286625Y476250D02*
X289625D01*
X286625Y462250D02*
Y476250D01*
Y462250D02*
X290125D01*
X311625D02*
X324625D01*
Y476250D01*
X311625D02*
X324625D01*
X289625D02*
X301625D01*
X289625Y462250D02*
Y476250D01*
Y462250D02*
X301625D01*
D19*
X259513Y166420D02*
X261580D01*
Y168487D01*
X259513Y190830D02*
X261580D01*
Y188763D02*
Y190830D01*
X237170Y188763D02*
Y190830D01*
X239237D01*
X237170Y166420D02*
X239237D01*
X237170D02*
Y168487D01*
X385486Y338757D02*
Y341611D01*
X382632D02*
X385486D01*
X365014Y338757D02*
Y341611D01*
X367868D01*
X365014Y321139D02*
X367868D01*
X365014D02*
Y323993D01*
X385486Y321139D02*
Y323993D01*
X382632Y321139D02*
X385486D01*
M02*
