G04*
G04 #@! TF.GenerationSoftware,Altium Limited,Altium Designer,19.0.10 (269)*
G04*
G04 Layer_Color=16711935*
%FSLAX25Y25*%
%MOIN*%
G70*
G01*
G75*
%ADD97C,0.07099*%
%ADD98R,0.07099X0.07099*%
%ADD99C,0.07493*%
%ADD100R,0.07493X0.07493*%
%ADD101R,0.07493X0.07493*%
%ADD102C,0.00800*%
%ADD103R,0.07099X0.07099*%
%ADD104C,0.03753*%
%ADD105O,0.05524X0.08674*%
%ADD106O,0.05524X0.09855*%
%ADD107O,0.08674X0.05524*%
%ADD108O,0.09855X0.05524*%
D97*
X384500Y213875D02*
D03*
X374500D02*
D03*
X384500Y223875D02*
D03*
X374500D02*
D03*
X384500Y233875D02*
D03*
X374500Y153750D02*
D03*
X384500Y143750D02*
D03*
Y153750D02*
D03*
X191000Y144250D02*
D03*
X201000Y154250D02*
D03*
X191000D02*
D03*
Y224250D02*
D03*
X201000Y214250D02*
D03*
Y224250D02*
D03*
X191000Y164125D02*
D03*
X201000Y174125D02*
D03*
X191000D02*
D03*
D98*
X374500Y233875D02*
D03*
X201000Y144250D02*
D03*
Y164125D02*
D03*
D99*
X191000Y184250D02*
D03*
Y194250D02*
D03*
X384500Y286000D02*
D03*
Y296000D02*
D03*
Y306000D02*
D03*
D100*
X201000Y184250D02*
D03*
Y194250D02*
D03*
D101*
X384500Y276000D02*
D03*
D102*
X187250Y267097D02*
D03*
Y276153D02*
D03*
D103*
X374500Y143750D02*
D03*
X191000Y214250D02*
D03*
D104*
X324303Y139495D02*
D03*
X347059D02*
D03*
X219717Y139251D02*
D03*
X242473D02*
D03*
X368655Y382091D02*
D03*
Y404847D02*
D03*
D105*
X317619Y125125D02*
D03*
X353053Y125125D02*
D03*
X213033Y124881D02*
D03*
X248466Y124881D02*
D03*
D106*
X353053Y141463D02*
D03*
X317620Y141464D02*
D03*
X248467Y141219D02*
D03*
X213034Y141219D02*
D03*
D107*
X383026Y375408D02*
D03*
X383026Y410841D02*
D03*
D108*
X366687Y410842D02*
D03*
X366687Y375409D02*
D03*
M02*
