M48
;Layer_Color=9474304
;FILE_FORMAT=2:5
INCH,TZ
;TYPE=PLATED
T1F00S00C0.01575
T2F00S00C0.02000
T3F00S00C0.02500
T6F00S00C0.03543
T7F00S00C0.12598
%
T01
X209921Y147233
X213110Y147244
Y150551
X216299
X209921
X222129Y149922
X221625Y143750
X230078Y139606
X234094
X240517Y143750
X238000Y148875
X241968Y151766
X245564
Y148504
X256693
X260039
X260039Y145197
X256640
X270158Y136312
X270125Y119764
X286668
X276059Y148185
X235827Y155039
X353150Y152992
X357241Y155699
Y150079
Y135512
X366063Y142250
X365631Y156731
X361210Y160394
X374202Y164249
X379187Y168957
X382345
X367874Y184485
Y187480
Y190630
X370394Y192780
X372598Y190787
X372676Y194803
X376850Y208150
X369134Y211502
X361066Y218189
Y223876
X356650Y223701
X347430Y223780
Y218110
X338819Y220222
X335489
X332159
X330394Y218045
Y214961
Y211502
X345827Y206658
X348740
X352548Y211500
X338408Y198702
X333386Y186765
X338409Y180630
Y175463
X333290Y170250
X333290Y162750
X324734Y164248
X346781Y167402
X344882Y170945
X347430Y172756
X355591Y177402
X357638Y184646
X361024Y182441
X387559Y198740
X386941Y229055
X384618
X382047Y241024
X374215Y240866
X370868
X367522
Y237638
Y234409
X365433Y228583
X376760Y244016
X380750Y250000
X312756Y182441
X288054Y188268
X282677
X279580
X276483
X273386
X263622Y192126
X260691Y193071
X255276Y194646
X248189Y195748
X244941Y201625
X234712Y201622
X238740Y195669
X242756Y185081
Y181724
Y178367
Y175010
Y171653
X246614
Y175010
Y178367
Y181724
Y185081
X250394
Y181724
Y175010
Y171653
X255277Y163150
X261181Y162524
X261890Y165827
X229370Y165197
X224016Y164310
Y159904
X215984Y157953
X212953
X209921
X212074Y163000
X224016Y179055
X228583Y181181
X231417Y179370
X228278Y175748
X226378Y185726
X221389Y185827
Y188976
Y192126
X225118Y200630
X218189Y204488
X214709
X211221
X211157Y208200
X214646
X214632Y211732
X208661Y221260
X222362Y225276
X239020Y227874
X247402Y221417
Y217323
X251654
Y221417
X255906
Y217323
X260157
Y221417
X264409
Y217323
X265150Y211929
Y206811
Y202677
X275776Y199974
X280902Y199921
X280370Y212130
X285461Y212205
X280315Y228583
X371339Y345433
X373282Y351809
X379500Y349250
X389449Y333344
X356772Y390516
T02
X209055Y268475
T03
X369375Y360394
X375433Y388347
T06
X191000Y144250
X201000
Y154250
X191000
X374500Y153750
Y143750
X384500
Y153750
Y213875
X374500
Y223875
X384500
Y233875
X374500
X384500Y276000
Y286000
Y296000
Y306000
X187250Y276153
Y267097
X191000Y224250
Y214250
X201000
Y224250
Y194250
Y184250
X191000
Y194250
Y174125
Y164125
X201000
Y174125
T07
X195500Y127750
X379500
X195500Y451750
X379500
M30
