G04*
G04 #@! TF.GenerationSoftware,Altium Limited,Altium Designer,19.0.10 (269)*
G04*
G04 Layer_Color=128*
%FSLAX25Y25*%
%MOIN*%
G70*
G01*
G75*
%ADD129C,0.00200*%
D129*
X382728Y213875D02*
X386272D01*
X384500Y212103D02*
Y215647D01*
X372728Y213875D02*
X376272D01*
X374500Y212103D02*
Y215647D01*
X382728Y223875D02*
X386272D01*
X384500Y222103D02*
Y225647D01*
X372728Y223875D02*
X376272D01*
X374500Y222103D02*
Y225647D01*
X382728Y233875D02*
X386272D01*
X384500Y232103D02*
Y235647D01*
X372728Y233875D02*
X376272D01*
X374500Y232103D02*
Y235647D01*
X189228Y184250D02*
X192772D01*
X191000Y182478D02*
Y186022D01*
X199228Y184250D02*
X202772D01*
X201000Y182478D02*
Y186022D01*
X189228Y194250D02*
X192772D01*
X191000Y192478D02*
Y196022D01*
X199228Y194250D02*
X202772D01*
X201000Y192478D02*
Y196022D01*
X382728Y276000D02*
X386272D01*
X384500Y274228D02*
Y277772D01*
X382728Y286000D02*
X386272D01*
X384500Y284228D02*
Y287772D01*
X382728Y296000D02*
X386272D01*
X384500Y294228D02*
Y297772D01*
X382728Y306000D02*
X386272D01*
X384500Y304228D02*
Y307772D01*
X185478Y267097D02*
X189022D01*
X187250Y265326D02*
Y268869D01*
X185478Y276153D02*
X189022D01*
X187250Y274381D02*
Y277924D01*
X372728Y143750D02*
X376272D01*
X374500Y141978D02*
Y145522D01*
X372728Y153750D02*
X376272D01*
X374500Y151978D02*
Y155522D01*
X382728Y143750D02*
X386272D01*
X384500Y141978D02*
Y145522D01*
X382728Y153750D02*
X386272D01*
X384500Y151978D02*
Y155522D01*
X199228Y144250D02*
X202772D01*
X201000Y142478D02*
Y146022D01*
X189228Y144250D02*
X192772D01*
X191000Y142478D02*
Y146022D01*
X199228Y154250D02*
X202772D01*
X201000Y152478D02*
Y156022D01*
X189228Y154250D02*
X192772D01*
X191000Y152478D02*
Y156022D01*
X189228Y214250D02*
X192772D01*
X191000Y212478D02*
Y216022D01*
X189228Y224250D02*
X192772D01*
X191000Y222478D02*
Y226022D01*
X199228Y214250D02*
X202772D01*
X201000Y212478D02*
Y216022D01*
X199228Y224250D02*
X202772D01*
X201000Y222478D02*
Y226022D01*
X199228Y164125D02*
X202772D01*
X201000Y162353D02*
Y165897D01*
X189228Y164125D02*
X192772D01*
X191000Y162353D02*
Y165897D01*
X199228Y174125D02*
X202772D01*
X201000Y172353D02*
Y175897D01*
X189228Y174125D02*
X192772D01*
X191000Y172353D02*
Y175897D01*
X322826Y139495D02*
X325779D01*
X324303Y138019D02*
Y140972D01*
X345582Y139495D02*
X348535D01*
X347059Y138019D02*
Y140972D01*
X316045Y125125D02*
X319195D01*
X317620Y123550D02*
Y126700D01*
X351478Y125125D02*
X354628D01*
X353053Y123550D02*
Y126700D01*
X351675Y141464D02*
X354431D01*
X353053Y140085D02*
Y142842D01*
X316242Y141464D02*
X318998D01*
X317620Y140085D02*
Y142842D01*
X218240Y139251D02*
X221193D01*
X219717Y137775D02*
Y140727D01*
X240996Y139251D02*
X243949D01*
X242473Y137775D02*
Y140727D01*
X211459Y124881D02*
X214608D01*
X213033Y123306D02*
Y126456D01*
X246892Y124881D02*
X250041D01*
X248467Y123306D02*
Y126456D01*
X247089Y141219D02*
X249845D01*
X248467Y139841D02*
Y142597D01*
X211655Y141219D02*
X214411D01*
X213033Y139841D02*
Y142597D01*
X367179Y382091D02*
X370132D01*
X368655Y380615D02*
Y383568D01*
X367179Y404847D02*
X370132D01*
X368655Y403371D02*
Y406324D01*
X381451Y375408D02*
X384600D01*
X383026Y373834D02*
Y376983D01*
X381451Y410842D02*
X384600D01*
X383026Y409267D02*
Y412416D01*
X365309Y410842D02*
X368065D01*
X366687Y409464D02*
Y412220D01*
X365309Y375408D02*
X368065D01*
X366687Y374030D02*
Y376786D01*
X233925Y201622D02*
X235500D01*
X234712Y200835D02*
Y202410D01*
X244153Y201625D02*
X245728D01*
X244941Y200838D02*
Y202413D01*
X220602Y185827D02*
X222176D01*
X221389Y185039D02*
Y186614D01*
X220602Y188976D02*
X222176D01*
X221389Y188189D02*
Y189764D01*
X220602Y192126D02*
X222176D01*
X221389Y191339D02*
Y192913D01*
X279583Y212130D02*
X281157D01*
X280370Y211343D02*
Y212918D01*
X279528Y228583D02*
X281102D01*
X280315Y227795D02*
Y229370D01*
X238232Y227874D02*
X239807D01*
X239020Y227087D02*
Y228661D01*
X264363Y202677D02*
X265938D01*
X265150Y201890D02*
Y203465D01*
X264363Y206811D02*
X265938D01*
X265150Y206024D02*
Y207598D01*
X264363Y211929D02*
X265938D01*
X265150Y211141D02*
Y212716D01*
X375972Y244016D02*
X377547D01*
X376760Y243228D02*
Y244803D01*
X381260Y241024D02*
X382835D01*
X382047Y240236D02*
Y241811D01*
X379962Y250000D02*
X381537D01*
X380750Y249213D02*
Y250787D01*
X386154Y229055D02*
X387728D01*
X386941Y228268D02*
Y229842D01*
X373428Y240866D02*
X375002D01*
X374215Y240079D02*
Y241653D01*
X370081Y240866D02*
X371656D01*
X370868Y240079D02*
Y241653D01*
X366735Y240866D02*
X368309D01*
X367522Y240079D02*
Y241653D01*
X366735Y237638D02*
X368309D01*
X367522Y236850D02*
Y238425D01*
X366735Y234409D02*
X368309D01*
X367522Y233622D02*
Y235197D01*
X383831Y229055D02*
X385405D01*
X384618Y228268D02*
Y229842D01*
X368347Y211502D02*
X369921D01*
X369134Y210715D02*
Y212289D01*
X347953Y206658D02*
X349528D01*
X348740Y205870D02*
Y207445D01*
X345039Y206658D02*
X346614D01*
X345827Y205870D02*
Y207445D01*
X367087Y184485D02*
X368661D01*
X367874Y183698D02*
Y185273D01*
X367087Y187480D02*
X368661D01*
X367874Y186693D02*
Y188268D01*
X367087Y190630D02*
X368661D01*
X367874Y189842D02*
Y191417D01*
X344094Y170945D02*
X345669D01*
X344882Y170158D02*
Y171732D01*
X360423Y160394D02*
X361998D01*
X361210Y159606D02*
Y161181D01*
X381557Y168957D02*
X383132D01*
X382345Y168169D02*
Y169744D01*
X378400Y168957D02*
X379974D01*
X379187Y168169D02*
Y169744D01*
X332503Y170250D02*
X334078D01*
X333290Y169462D02*
Y171037D01*
X337621Y175463D02*
X339196D01*
X338409Y174676D02*
Y176250D01*
X332598Y186765D02*
X334173D01*
X333386Y185977D02*
Y187552D01*
X338032Y220222D02*
X339606D01*
X338819Y219434D02*
Y221009D01*
X334702Y220222D02*
X336276D01*
X335489Y219434D02*
Y221009D01*
X331372Y220222D02*
X332946D01*
X332159Y219434D02*
Y221009D01*
X329606Y211502D02*
X331181D01*
X330394Y210715D02*
Y212289D01*
X329606Y214961D02*
X331181D01*
X330394Y214173D02*
Y215748D01*
X329606Y218045D02*
X331181D01*
X330394Y217258D02*
Y218833D01*
X287266Y188268D02*
X288841D01*
X288054Y187480D02*
Y189055D01*
X281890Y188268D02*
X283465D01*
X282677Y187480D02*
Y189055D01*
X278793Y188268D02*
X280367D01*
X279580Y187480D02*
Y189055D01*
X275695Y188268D02*
X277270D01*
X276483Y187480D02*
Y189055D01*
X272598Y188268D02*
X274173D01*
X273386Y187480D02*
Y189055D01*
X245827Y178367D02*
X247402D01*
X246614Y177580D02*
Y179155D01*
X249606Y181724D02*
X251181D01*
X250394Y180937D02*
Y182511D01*
X249606Y175010D02*
X251181D01*
X250394Y174223D02*
Y175798D01*
X245827Y175010D02*
X247402D01*
X246614Y174223D02*
Y175798D01*
X245827Y181724D02*
X247402D01*
X246614Y180937D02*
Y182511D01*
X249606Y171653D02*
X251181D01*
X250394Y170866D02*
Y172441D01*
X245827Y171653D02*
X247402D01*
X246614Y170866D02*
Y172441D01*
X241968Y171653D02*
X243543D01*
X242756Y170866D02*
Y172441D01*
X241968Y175010D02*
X243543D01*
X242756Y174223D02*
Y175798D01*
X241968Y178367D02*
X243543D01*
X242756Y177580D02*
Y179155D01*
X241968Y181724D02*
X243543D01*
X242756Y180937D02*
Y182511D01*
X249606Y185081D02*
X251181D01*
X250394Y184293D02*
Y185868D01*
X245827Y185081D02*
X247402D01*
X246614Y184293D02*
Y185868D01*
X241968Y185081D02*
X243543D01*
X242756Y184293D02*
Y185868D01*
X259251Y145197D02*
X260826D01*
X260039Y144409D02*
Y145984D01*
X255853Y145197D02*
X257427D01*
X256640Y144409D02*
Y145984D01*
X255906Y148504D02*
X257480D01*
X256693Y147716D02*
Y149291D01*
X259252Y148504D02*
X260826D01*
X260039Y147716D02*
Y149291D01*
X244777Y148504D02*
X246351D01*
X245564Y147716D02*
Y149291D01*
X244777Y151766D02*
X246351D01*
X245564Y150979D02*
Y152553D01*
X241181Y151766D02*
X242756D01*
X241968Y150979D02*
Y152553D01*
X212323Y147244D02*
X213898D01*
X213110Y146457D02*
Y148031D01*
X209134Y147233D02*
X210709D01*
X209921Y146446D02*
Y148021D01*
X215512Y150551D02*
X217087D01*
X216299Y149764D02*
Y151339D01*
X212323Y150551D02*
X213898D01*
X213110Y149764D02*
Y151339D01*
X209134Y150551D02*
X210709D01*
X209921Y149764D02*
Y151339D01*
X210370Y208200D02*
X211945D01*
X211157Y207412D02*
Y208987D01*
X210433Y204488D02*
X212008D01*
X211221Y203701D02*
Y205276D01*
X211287Y163000D02*
X212862D01*
X212074Y162213D02*
Y163787D01*
X215197Y157953D02*
X216772D01*
X215984Y157165D02*
Y158740D01*
X217402Y204488D02*
X218976D01*
X218189Y203701D02*
Y205276D01*
X213922Y204488D02*
X215497D01*
X214709Y203701D02*
Y205276D01*
X213858Y208200D02*
X215433D01*
X214646Y207412D02*
Y208987D01*
X213844Y211732D02*
X215419D01*
X214632Y210945D02*
Y212520D01*
X207874Y221260D02*
X209449D01*
X208661Y220472D02*
Y222047D01*
X221575Y225276D02*
X223150D01*
X222362Y224488D02*
Y226063D01*
X224331Y200630D02*
X225905D01*
X225118Y199843D02*
Y201417D01*
X352362Y152992D02*
X353937D01*
X353150Y152205D02*
Y153779D01*
X356454Y150079D02*
X358029D01*
X357241Y149291D02*
Y150866D01*
X356454Y155699D02*
X358029D01*
X357241Y154911D02*
Y156486D01*
X237953Y195669D02*
X239528D01*
X238740Y194882D02*
Y196457D01*
X260394Y162524D02*
X261968D01*
X261181Y161737D02*
Y163311D01*
X356454Y135512D02*
X358029D01*
X357241Y134724D02*
Y136299D01*
X311968Y182441D02*
X313543D01*
X312756Y181653D02*
Y183228D01*
X259903Y193071D02*
X261478D01*
X260691Y192283D02*
Y193858D01*
X284674Y212205D02*
X286248D01*
X285461Y211417D02*
Y212992D01*
X255118Y217323D02*
X256693D01*
X255906Y216535D02*
Y218110D01*
X263622Y217323D02*
X265197D01*
X264409Y216535D02*
Y218110D01*
X259370Y217323D02*
X260945D01*
X260157Y216535D02*
Y218110D01*
X250866Y217323D02*
X252441D01*
X251654Y216535D02*
Y218110D01*
X246614Y217323D02*
X248189D01*
X247402Y216535D02*
Y218110D01*
X263622Y221417D02*
X265197D01*
X264409Y220630D02*
Y222205D01*
X259370Y221417D02*
X260945D01*
X260157Y220630D02*
Y222205D01*
X255118Y221417D02*
X256693D01*
X255906Y220630D02*
Y222205D01*
X250866Y221417D02*
X252441D01*
X251654Y220630D02*
Y222205D01*
X246614Y221417D02*
X248189D01*
X247402Y220630D02*
Y222205D01*
X227491Y175748D02*
X229065D01*
X228278Y174961D02*
Y176535D01*
X247402Y195748D02*
X248976D01*
X248189Y194961D02*
Y196535D01*
X254488Y194646D02*
X256063D01*
X255276Y193858D02*
Y195433D01*
X262835Y192126D02*
X264409D01*
X263622Y191339D02*
Y192913D01*
X261102Y165827D02*
X262677D01*
X261890Y165039D02*
Y166614D01*
X280114Y199921D02*
X281689D01*
X280902Y199134D02*
Y200709D01*
X254490Y163150D02*
X256065D01*
X255277Y162362D02*
Y163937D01*
X223228Y164310D02*
X224803D01*
X224016Y163522D02*
Y165097D01*
X228583Y165197D02*
X230157D01*
X229370Y164409D02*
Y165984D01*
X235039Y155039D02*
X236614D01*
X235827Y154252D02*
Y155827D01*
X223228Y179055D02*
X224803D01*
X224016Y178268D02*
Y179842D01*
X269370Y136312D02*
X270945D01*
X270158Y135525D02*
Y137100D01*
X212165Y157953D02*
X213740D01*
X212953Y157165D02*
Y158740D01*
X364844Y156731D02*
X366418D01*
X365631Y155944D02*
Y157519D01*
X365276Y142250D02*
X366850D01*
X366063Y141462D02*
Y143037D01*
X230630Y179370D02*
X232205D01*
X231417Y178583D02*
Y180157D01*
X227795Y181181D02*
X229370D01*
X228583Y180394D02*
Y181968D01*
X229291Y139606D02*
X230866D01*
X230078Y138819D02*
Y140393D01*
X233307Y139606D02*
X234881D01*
X234094Y138819D02*
Y140393D01*
X209134Y157953D02*
X210709D01*
X209921Y157165D02*
Y158740D01*
X225590Y185726D02*
X227165D01*
X226378Y184939D02*
Y186514D01*
X269338Y119764D02*
X270912D01*
X270125Y118976D02*
Y120551D01*
X275272Y148185D02*
X276846D01*
X276059Y147397D02*
Y148972D01*
X285880Y119764D02*
X287455D01*
X286668Y118976D02*
Y120551D01*
X370551Y345433D02*
X372126D01*
X371339Y344646D02*
Y346220D01*
X388661Y333344D02*
X390236D01*
X389449Y332556D02*
Y334131D01*
X374183Y388347D02*
X376683D01*
X375433Y387097D02*
Y389597D01*
X368125Y360394D02*
X370625D01*
X369375Y359144D02*
Y361644D01*
X378713Y349250D02*
X380287D01*
X379500Y348462D02*
Y350037D01*
X355984Y390516D02*
X357559D01*
X356772Y389729D02*
Y391304D01*
X372494Y351809D02*
X374069D01*
X373282Y351021D02*
Y352596D01*
X371889Y194803D02*
X373464D01*
X372676Y194015D02*
Y195590D01*
X376063Y208150D02*
X377638D01*
X376850Y207363D02*
Y208937D01*
X355862Y223701D02*
X357437D01*
X356650Y222913D02*
Y224488D01*
X364646Y228583D02*
X366220D01*
X365433Y227795D02*
Y229370D01*
X356850Y184646D02*
X358425D01*
X357638Y183858D02*
Y185433D01*
X360236Y182441D02*
X361811D01*
X361024Y181653D02*
Y183228D01*
X360278Y218189D02*
X361853D01*
X361066Y217402D02*
Y218976D01*
X354803Y177402D02*
X356378D01*
X355591Y176614D02*
Y178189D01*
X346643Y172756D02*
X348218D01*
X347430Y171968D02*
Y173543D01*
X360278Y223876D02*
X361853D01*
X361066Y223088D02*
Y224663D01*
X346643Y218110D02*
X348218D01*
X347430Y217323D02*
Y218898D01*
X346643Y223780D02*
X348218D01*
X347430Y222992D02*
Y224567D01*
X386772Y198740D02*
X388347D01*
X387559Y197953D02*
Y199528D01*
X373414Y164249D02*
X374989D01*
X374202Y163461D02*
Y165036D01*
X332502Y162750D02*
X334077D01*
X333290Y161963D02*
Y163538D01*
X351761Y211500D02*
X353336D01*
X352548Y210713D02*
Y212287D01*
X345994Y167402D02*
X347569D01*
X346781Y166614D02*
Y168189D01*
X371811Y190787D02*
X373386D01*
X372598Y190000D02*
Y191575D01*
X369606Y192780D02*
X371181D01*
X370394Y191993D02*
Y193568D01*
X323947Y164248D02*
X325522D01*
X324734Y163461D02*
Y165036D01*
X208055Y268475D02*
X210055D01*
X209055Y267475D02*
Y269475D01*
X274988Y199974D02*
X276563D01*
X275776Y199187D02*
Y200762D01*
X337620Y198702D02*
X339195D01*
X338408Y197914D02*
Y199489D01*
X337621Y180630D02*
X339196D01*
X338409Y179842D02*
Y181417D01*
X223228Y159904D02*
X224803D01*
X224016Y159116D02*
Y160691D01*
X221342Y149922D02*
X222917D01*
X222129Y149135D02*
Y150710D01*
X239729Y143750D02*
X241304D01*
X240517Y142963D02*
Y144537D01*
X220838Y143750D02*
X222412D01*
X221625Y142963D02*
Y144537D01*
X237213Y148875D02*
X238787D01*
X238000Y148088D02*
Y149662D01*
X373201Y127750D02*
X385799D01*
X379500Y121451D02*
Y134049D01*
X373201Y451750D02*
X385799D01*
X379500Y445451D02*
Y458049D01*
X189201Y451750D02*
X201799D01*
X195500Y445451D02*
Y458049D01*
X189201Y127750D02*
X201799D01*
X195500Y121451D02*
Y134049D01*
M02*
